<?xml version="1.0" encoding="UTF-8" standalone="no"?>
<!-- Created with Inkscape (http://www.inkscape.org/) -->
<svg xmlns:dc="http://purl.org/dc/elements/1.1/" xmlns:cc="http://web.resource.org/cc/" xmlns:rdf="http://www.w3.org/1999/02/22-rdf-syntax-ns#" xmlns:svg="http://www.w3.org/2000/svg" xmlns="http://www.w3.org/2000/svg" xmlns:sodipodi="http://sodipodi.sourceforge.net/DTD/sodipodi-0.dtd" xmlns:inkscape="http://www.inkscape.org/namespaces/inkscape" width="197.75713" height="118.8974" id="svg1888" sodipodi:version="0.32" inkscape:version="0.44.1" version="1.0" sodipodi:docbase="C:\download\SVG graphics\Mo's" sodipodi:docname="couvert.svg">
  <defs id="defs1890"/>
  <sodipodi:namedview id="base" pagecolor="#ffffff" bordercolor="#666666" borderopacity="1.0" gridtolerance="10000" guidetolerance="10" objecttolerance="10" inkscape:pageopacity="0.0" inkscape:pageshadow="2" inkscape:zoom="0.7" inkscape:cx="247.54504" inkscape:cy="107.29664" inkscape:document-units="px" inkscape:current-layer="layer1" inkscape:window-width="853" inkscape:window-height="569" inkscape:window-x="586" inkscape:window-y="452"/>
  <g inkscape:label="Layer 1" inkscape:groupmode="layer" id="layer1" transform="translate(-278.2644,-397.2777)">
    <g style="fill-rule:evenodd" id="g1878" transform="matrix(0.340379,0,0,0.340379,234.9644,267.1515)">
      <path class="fil0" d="M 388.664,426.238 L 388.664,426.2597 L 388.6612,426.2597 L 388.6553,426.2597 L 388.6553,426.2379 C 352.5883,426.1314 319.8721,440.6731 296.1372,464.2662 C 272.4015,487.86 257.6636,520.4913 257.5554,556.5602 L 257.5771,556.5602 L 257.5771,556.5631 L 257.5771,556.5689 L 257.5554,556.5689 C 257.4489,592.6358 271.9905,625.3521 295.5836,649.087 C 319.1776,672.8226 351.8087,687.5607 387.8777,687.6688 L 387.8777,687.647 L 387.8805,687.647 L 387.8864,687.6471 L 387.8863,687.6688 C 423.9525,687.7754 456.6684,673.2341 480.4033,649.6406 C 504.1389,626.0467 518.8766,593.4159 518.9847,557.3466 L 518.9629,557.3465 L 518.9629,557.3437 L 518.963,557.3378 L 518.9847,557.3379 C 519.0912,521.2713 504.5495,488.5547 480.9568,464.8198 C 457.3633,441.0841 424.7326,426.3461 388.664,426.238 L 388.664,426.238 z " id="path10" style="fill:white"/>
      <path class="fil1" d="M 388.695,415.102 L 388.6978,415.102 L 388.6977,415.1237 C 427.8756,415.2415 463.2895,431.2202 488.8697,456.9543 C 514.449,482.6877 530.2147,518.1948 530.0992,557.3703 L 530.121,557.3703 L 530.121,557.3762 L 530.1209,557.379 L 530.0992,557.379 C 529.9814,596.5573 514.0031,631.9716 488.269,657.552 C 462.536,683.1317 427.0289,698.8973 387.854,698.7819 L 387.854,698.8036 L 387.848,698.8036 L 387.8453,698.8036 L 387.8453,698.7818 C 348.667,698.664 313.2527,682.6854 287.6723,656.9512 C 262.0923,631.2175 246.327,595.7108 246.4424,556.5352 L 246.4207,556.5351 L 246.4207,556.5292 L 246.4207,556.5264 L 246.4425,556.5265 C 246.5603,517.3482 262.5389,481.9339 288.2731,456.3535 C 314.0068,430.7734 349.5135,415.0082 388.6891,415.1236 L 388.6892,415.1019 L 388.6951,415.1019 L 388.695,415.102 z M 388.6645,426.2377 L 388.6644,426.2594 L 388.6617,426.2594 L 388.6557,426.2594 L 388.6558,426.2376 C 352.5888,426.1311 319.8726,440.6728 296.1377,464.2659 C 272.4021,487.8598 257.664,520.491 257.5559,556.5599 L 257.5777,556.56 L 257.5777,556.5627 L 257.5776,556.5687 L 257.5559,556.5686 C 257.4494,592.6356 271.991,625.3518 295.5841,649.0867 C 319.178,672.8223 351.8092,687.5604 387.8781,687.6685 L 387.8782,687.6467 L 387.881,687.6467 L 387.8869,687.6468 L 387.8868,687.6685 C 423.953,687.775 456.6689,673.2338 480.4037,649.6403 C 504.1394,626.0464 518.877,593.4156 518.9851,557.3463 L 518.9634,557.3462 L 518.9634,557.3434 L 518.9634,557.3375 L 518.9852,557.3376 C 519.0917,521.271 504.5501,488.5543 480.9573,464.8195 C 457.3638,441.0838 424.7331,426.3458 388.6645,426.2377 L 388.6645,426.2377 z " id="path12" style="fill:black;fill-rule:nonzero"/>
      <path class="fil0" d="M 388.532,470.417 L 388.5319,470.4281 L 388.5292,470.4281 L 388.5232,470.4281 L 388.5233,470.417 C 364.6432,470.3468 342.9845,479.9729 327.2742,495.5902 C 311.5622,511.2085 301.8072,532.8113 301.7356,556.6918 L 301.7466,556.6918 L 301.7466,556.6946 L 301.7466,556.7004 L 301.7356,556.7005 C 301.6654,580.5789 311.2907,602.2376 326.9068,617.9488 C 342.5243,633.6607 364.1271,643.4172 388.0095,643.4889 L 388.0095,643.4779 L 388.0123,643.4779 L 388.0182,643.4779 L 388.0182,643.4889 C 411.8974,643.5591 433.5557,633.933 449.2661,618.3157 C 464.9781,602.6974 474.7333,581.0947 474.8051,557.2142 L 474.794,557.2141 L 474.7941,557.2114 L 474.7941,557.2054 L 474.8051,557.2055 C 474.8753,533.3271 465.25,511.6684 449.6335,495.9572 C 434.0159,480.2453 412.4132,470.4887 388.532,470.417 L 388.532,470.417 z " id="path14" style="fill:white"/>
      <path class="fil1" d="M 388.546,464.849 L 388.5488,464.849 L 388.5488,464.86 C 413.9841,464.9368 436.9786,475.3138 453.5895,492.025 C 470.1992,508.7354 480.4367,531.7895 480.3623,557.2221 L 480.3734,557.2221 L 480.3734,557.2281 L 480.3733,557.2308 L 480.3623,557.2308 C 480.2855,582.6653 469.9097,605.6599 453.1985,622.2715 C 436.4889,638.882 413.4352,649.1203 388.0018,649.0459 L 388.0018,649.057 L 387.9958,649.057 L 387.9931,649.057 L 387.9931,649.0459 C 362.5566,648.9691 339.5621,638.5921 322.9512,621.8809 C 306.3419,605.1705 296.1044,582.1164 296.1788,556.6838 L 296.1677,556.6838 L 296.1677,556.6779 L 296.1677,556.6751 L 296.1788,556.6752 C 296.2555,531.2406 306.631,508.2461 323.3422,491.6344 C 340.0518,475.0239 363.1059,464.7856 388.5401,464.86 L 388.5401,464.849 L 388.546,464.849 L 388.546,464.849 z M 388.5322,470.417 L 388.5321,470.4281 L 388.5294,470.4281 L 388.5234,470.4281 L 388.5235,470.417 C 364.6434,470.3469 342.9847,479.973 327.2744,495.5902 C 311.5624,511.2085 301.8075,532.8113 301.7358,556.6917 L 301.7468,556.6918 L 301.7468,556.6945 L 301.7468,556.7005 L 301.7357,556.7004 C 301.6656,580.5789 311.2909,602.2376 326.9069,617.9488 C 342.5245,633.6607 364.1273,643.4172 388.0097,643.4889 L 388.0097,643.4779 L 388.0125,643.4779 L 388.0184,643.4779 L 388.0184,643.489 C 411.8977,643.5591 433.5559,633.933 449.2663,618.3158 C 464.9783,602.6974 474.7336,581.0946 474.8053,557.2142 L 474.7942,557.2142 L 474.7942,557.2114 L 474.7943,557.2055 L 474.8053,557.2055 C 474.8755,533.327 465.2501,511.6684 449.6337,495.9572 C 434.0162,480.2452 412.4134,470.4887 388.5322,470.417 L 388.5322,470.417 z " id="path16" style="fill:black;fill-rule:nonzero"/>
      <path class="fil2" d="M 391.688,669.394 C 433.7308,664.0385 481.0906,639.8897 505.161,596.0716 C 491.2479,630.0984 463.4958,673.2916 391.652,681.3639 C 391.664,677.3737 387.73,669.8982 391.6878,669.394 L 391.688,669.394 z " id="path18" style="fill:black"/>
      <path class="fil2" d="M 218.315,495.465 L 217.8046,663.92 C 217.7972,666.5404 213.2193,668.6636 207.621,668.6495 L 207.621,668.6495 C 202.0269,668.6325 197.4545,666.4742 197.4659,663.865 L 197.9668,495.409 C 188.4248,490.8566 181.7332,480.1333 181.7725,467.6524 C 181.807,455.9394 187.7533,445.8111 196.3919,440.8971 L 196.285,478.0133 L 202.1639,478.0309 L 202.2853,438.4862 C 203.1218,438.269 203.9761,438.0938 204.8423,437.9664 L 204.7234,478.0402 L 210.5977,478.0584 L 210.7163,437.8552 C 211.4094,437.9273 212.0904,438.0295 212.7663,438.1607 L 212.6438,478.0656 L 218.5227,478.0831 L 218.6363,440.1328 C 228.0925,444.726 234.7062,455.3996 234.6732,467.8113 C 234.6336,480.2899 227.8832,490.9672 218.315,495.4649 L 218.315,495.465 z " id="path20" style="fill:black"/>
      <path class="fil2" d="M 557.874,538.115 L 557.4952,664.938 C 557.4874,667.554 562.0586,669.708 567.654,669.7247 L 567.654,669.7247 C 573.2493,669.7414 577.8294,667.6147 577.8412,664.9988 C 578.1629,592.687 577.5295,520.2818 578.4893,447.9838 C 579.5127,445.9522 559.1242,460.1336 553.983,478.4298 C 550.8989,501.0433 555.6326,526.4696 557.874,538.1149 L 557.874,538.115 z " id="path22" style="fill:black"/>
      <path class="fil2" d="M 637.282,496.677 L 636.7788,665.13 C 636.7709,667.746 632.1869,669.8725 626.5916,669.8558 L 626.5916,669.8558 C 620.9962,669.8391 616.425,667.6852 616.4328,665.0692 L 616.936,496.6162 C 607.3925,492.0639 600.7046,481.3411 600.742,468.8599 C 600.7914,452.2887 612.6762,438.8852 627.2813,438.9288 C 641.8865,438.9724 653.6909,452.4467 653.6415,469.0179 C 653.6041,481.4991 646.8524,492.1817 637.282,496.677 z " id="path24" style="fill:black"/>
    </g>
  </g>
  <metadata>
    <rdf:RDF>
      <cc:Work>
        <dc:format>image/svg+xml</dc:format>
        <dc:type rdf:resource="http://purl.org/dc/dcmitype/StillImage"/>
        <cc:license rdf:resource="http://creativecommons.org/licenses/publicdomain/"/>
        <dc:publisher>
          <cc:Agent rdf:about="http://openclipart.org/">
            <dc:title>Open Clip Art Library</dc:title>
          </cc:Agent>
        </dc:publisher>
        <dc:title>couvert</dc:title>
        <dc:date>2006-09-10T15:05:26</dc:date>
        <dc:description>A plate with cutlery.</dc:description>
        <dc:source>http://openclipart.org/detail/123/couvert-by-molumen</dc:source>
        <dc:creator>
          <cc:Agent>
            <dc:title>molumen</dc:title>
          </cc:Agent>
        </dc:creator>
        <dc:subject>
          <rdf:Bag>
            <rdf:li>black &amp; white</rdf:li>
            <rdf:li>clip art</rdf:li>
            <rdf:li>clipart</rdf:li>
            <rdf:li>eat</rdf:li>
            <rdf:li>eating</rdf:li>
            <rdf:li>food</rdf:li>
            <rdf:li>fork</rdf:li>
            <rdf:li>icon</rdf:li>
            <rdf:li>knife</rdf:li>
            <rdf:li>menu</rdf:li>
            <rdf:li>plate</rdf:li>
            <rdf:li>porcelain</rdf:li>
            <rdf:li>restaurant</rdf:li>
            <rdf:li>spoon</rdf:li>
            <rdf:li>symbol</rdf:li>
          </rdf:Bag>
        </dc:subject>
      </cc:Work>
      <cc:License rdf:about="http://creativecommons.org/licenses/publicdomain/">
        <cc:permits rdf:resource="http://creativecommons.org/ns#Reproduction"/>
        <cc:permits rdf:resource="http://creativecommons.org/ns#Distribution"/>
        <cc:permits rdf:resource="http://creativecommons.org/ns#DerivativeWorks"/>
      </cc:License>
    </rdf:RDF>
  </metadata>
</svg>
