<?xml version="1.0" encoding="iso-8859-1"?>
<!-- Generator: Adobe Illustrator 10.0.3, SVG Export Plug-In . SVG Version: 3.0.0 Build 77)  -->
<!DOCTYPE svg PUBLIC "-//W3C//DTD SVG 1.0//EN"    "http://www.w3.org/TR/2001/REC-SVG-20010904/DTD/svg10.dtd" [
	<!ENTITY ns_flows "http://ns.adobe.com/Flows/1.0/">
	<!ENTITY ns_svg "http://www.w3.org/2000/svg">
	<!ENTITY ns_xlink "http://www.w3.org/1999/xlink">
]>
<svg  xmlns="&ns_svg;" xmlns:xlink="&ns_xlink;" xmlns:a="http://ns.adobe.com/AdobeSVGViewerExtensions/3.0/"
	 width="128" height="128" viewBox="0 0 128 128" overflow="visible" enable-background="new 0 0 128 128" xml:space="preserve">
	<g id="Layer_1">
		<g>
			<g>
				<path fill="#FFFFFF" d="M22.276,97.064c7.308,8.434,35.872,27.957,51.712,28.504c18.774,0.646,25.156-9.369,25.156-9.369
					s23.397-26.236,1.386-50.188c-22.012-23.953-67.849,1.515-73.151,5.825C14.164,82.578,17.912,92.031,22.276,97.064z"/>
				<linearGradient id="XMLID_1_" gradientUnits="userSpaceOnUse" x1="64.3564" y1="53.4956" x2="63.5688" y2="132.1331">
					<stop  offset="0" style="stop-color:#9E9EAC"/>
					<stop  offset="1" style="stop-color:#42425B"/>
					
					
					
				</linearGradient>
				<path fill="url(#XMLID_1_)" d="M27.017,71.393c-5.746,4.67-8.88,9.557-9.312,14.521c-0.442,5.07,2.006,9.066,4.139,11.527
					c7.168,8.271,35.896,28.141,52.127,28.699c18.882,0.65,25.392-9.213,25.658-9.633c0.182-0.193,23.432-26.83,1.324-50.886
					C78.409,41.092,32.404,67.014,27.017,71.393z M18.846,86.014c0.405-4.645,3.397-9.266,8.895-13.732
					c4.537-3.689,50.582-29.592,72.368-5.882c21.398,23.286-1.161,49.159-1.391,49.417c-0.117,0.17-6.523,9.805-24.709,9.18
					c-15.941-0.551-44.229-20.148-51.3-28.305C20.722,94.396,18.438,90.684,18.846,86.014z"/>
				<linearGradient id="XMLID_2_" gradientUnits="userSpaceOnUse" x1="63.9912" y1="116.9619" x2="63.9912" y2="6.4322">
					<stop  offset="0.0899" style="stop-color:#F2F2F2"/>
					<stop  offset="0.5843" style="stop-color:#757575"/>
					
					
					
				</linearGradient>
				<path fill="url(#XMLID_2_)" d="M23.65,94.598c7.066,7.805,34.683,25.879,49.997,26.385c18.149,0.6,24.322-8.674,24.322-8.674
					s22.619-24.287,1.339-46.46c-21.279-22.175-65.597,1.403-70.725,5.392C15.809,81.186,19.432,89.936,23.65,94.598z"/>
				<linearGradient id="XMLID_3_" gradientUnits="userSpaceOnUse" x1="79.166" y1="109.1533" x2="88.9093" y2="44.6756">
					<stop  offset="0.0899" style="stop-color:#F2F2F2"/>
					<stop  offset="0.5843" style="stop-color:#757575"/>
					
					
					
				</linearGradient>
				<path fill="url(#XMLID_3_)" d="M100.64,65.763c-0.991-1.023-2.044-1.921-3.12-2.761c0.088,0.703,0.152,1.413,0.152,2.138
					c0,9.435-19.867,28.382-23.124,31.763c-2.619,2.717-6.015,4.83-9.885,6.094c5.181-0.906,9.729-3.148,13.037-6.26
					c3.257-3.061,23.123-20.229,23.123-28.777C100.823,67.213,100.75,66.483,100.64,65.763z"/>
				<linearGradient id="XMLID_4_" gradientUnits="userSpaceOnUse" x1="89.1211" y1="32.5708" x2="52.9106" y2="102.8186">
					<stop  offset="0" style="stop-color:#FFFFFF"/>
					<stop offset="1" style="stop-color:#FFFFFF;stop-opacity:0"/>
					
					
					
				</linearGradient>
				<path fill="url(#XMLID_4_)"  a:adobe-blending-mode="screen" d="M98.055,65.761c0-0.713-0.065-1.41-0.155-2.102
					c-10.581-8.054-24.986-7.749-38.022-4.613C47.9,67.104,35.703,78.975,35.703,84.787c0,10.303,10.737,18.656,23.98,18.656
					c1.772,0,3.497-0.156,5.158-0.439c3.894-1.242,7.311-3.322,9.945-5.996C78.065,93.684,98.055,75.043,98.055,65.761z"/>
				<g>
					
						<linearGradient id="XMLID_5_" gradientUnits="userSpaceOnUse" x1="-407.4365" y1="58.9644" x2="-402.6279" y2="68.3584" gradientTransform="matrix(0.8042 -0.5228 0.5718 0.8104 371.7246 -158.9207)">
						<stop  offset="0.1629" style="stop-color:#B8B8B8"/>
						<stop  offset="1" style="stop-color:#FFFFFF"/>
						
						
						
					</linearGradient>
					<path fill="url(#XMLID_5_)" d="M86.268,99.234c2.077,1.277,2.257,4.758,0.401,7.777c-1.853,3.02-5.037,4.436-7.115,3.162
						c-2.077-1.277-2.259-4.758-0.405-7.779C81.004,99.375,84.19,97.959,86.268,99.234z"/>
					
						<linearGradient id="XMLID_6_" gradientUnits="userSpaceOnUse" x1="-310.2207" y1="12.1753" x2="-307.169" y2="17.8425" gradientTransform="matrix(0.7869 -0.5464 0.5952 0.7947 314.7363 -76.9526)">
						<stop  offset="0" style="stop-color:#FFFFFF"/>
						<stop  offset="1" style="stop-color:#FF6200"/>
						
						
						
					</linearGradient>
					<path fill="url(#XMLID_6_)" d="M85.419,100.611c1.554,0.953,1.692,3.561,0.305,5.818c-1.388,2.26-3.772,3.318-5.325,2.363
						c-1.55-0.951-1.687-3.559-0.301-5.816C81.483,100.715,83.867,99.656,85.419,100.611z"/>
					
						<linearGradient id="XMLID_7_" gradientUnits="userSpaceOnUse" x1="-394.1396" y1="60.9307" x2="-389.3305" y2="70.3258" gradientTransform="matrix(0.8042 -0.5228 0.5718 0.8104 371.7246 -158.9207)">
						<stop  offset="0.1629" style="stop-color:#B8B8B8"/>
						<stop  offset="1" style="stop-color:#FFFFFF"/>
						
						
						
					</linearGradient>
					<path fill="url(#XMLID_7_)" d="M98.083,93.875c2.08,1.279,2.257,4.76,0.403,7.779s-5.039,4.436-7.118,3.16
						c-2.078-1.275-2.257-4.758-0.403-7.777C92.819,94.016,96.004,92.602,98.083,93.875z"/>
					
						<linearGradient id="XMLID_8_" gradientUnits="userSpaceOnUse" x1="-296.6309" y1="15.7847" x2="-293.569" y2="20.6863" gradientTransform="matrix(0.7869 -0.5464 0.5952 0.7947 314.7363 -76.9526)">
						<stop  offset="0" style="stop-color:#FFFFFF"/>
						<stop  offset="0.9944" style="stop-color:#FFC500"/>
						
						
						
					</linearGradient>
					<path fill="url(#XMLID_8_)" d="M97.239,95.256c1.552,0.953,1.687,3.557,0.301,5.818c-1.387,2.256-3.771,3.314-5.324,2.361
						c-1.556-0.953-1.69-3.559-0.302-5.818C93.3,95.357,95.681,94.301,97.239,95.256z"/>
				</g>
			</g>
			<path opacity="0.1" d="M83.765,69.189c0,3.41-3.934,6.172-8.786,6.172c-4.854,0-8.789-2.762-8.789-6.172
				c0-3.409,3.935-6.173,8.789-6.173C79.831,63.017,83.765,65.78,83.765,69.189z"/>
			<g>
				<path fill="#FFFFFF" d="M99.049,12.453l-9.934-4.585l-0.62-0.063c-3.264-1.312-7.019-2.496-11.074-3.439
					c-12.603-2.926-23.8-2.517-26.778,0.736c-0.289,0.732-0.54,1.479-0.745,2.248c-1.488,5.587-0.759,12.048,2.567,17.979
					c1.999,3.562,4.695,6.509,7.772,8.729c0,0,4.437,28.327,4.523,28.898c0.761,4.994,4.682,9.102,10.457,9.102
					s9.216-4.107,10.459-9.102C85.812,62.409,99.049,12.453,99.049,12.453z"/>
				<linearGradient id="XMLID_9_" gradientUnits="userSpaceOnUse" x1="75.3174" y1="65.1191" x2="75.3174" y2="-49.9971">
					<stop  offset="0.0899" style="stop-color:#F2F2F2"/>
					<stop  offset="0.5843" style="stop-color:#757575"/>
					
					
					
				</linearGradient>
				<path fill="url(#XMLID_9_)" d="M99.049,12.056l-9.492-4.404l-0.591-0.06c-3.119-1.26-6.708-2.398-10.583-3.304
					c-12.042-2.81-22.74-2.417-25.587,0.708c-0.275,0.702-0.516,1.42-0.712,2.159c-1.422,5.367-0.724,11.573,2.454,17.268
					c1.909,3.422,4.485,6.252,7.426,8.385c0,0,4.239,27.209,4.322,27.757c0.727,4.798,4.474,8.742,9.992,8.742
					s8.806-3.944,9.992-8.742C86.401,60.041,99.049,12.056,99.049,12.056z"/>
				<linearGradient id="XMLID_10_" gradientUnits="userSpaceOnUse" x1="74.1533" y1="127.6738" x2="74.1533" y2="-7.5172">
					<stop  offset="0.0899" style="stop-color:#F2F2F2"/>
					<stop  offset="0.5843" style="stop-color:#757575"/>
					
					
					
				</linearGradient>
				<path fill="url(#XMLID_10_)" d="M77.29,4.924c3.937,0.914,11.535,3.491,11.672,3.504c0.164,0.075,8.618,3.977,9.409,4.343
					c-1.395,5.264-13.121,49.523-13.252,50.045c-0.647,2.606-2.909,8.668-9.901,8.668c-5.926,0-9.237-4.328-9.892-8.615
					l-4.56-29.137l-0.193-0.139c-3.094-2.231-5.725-5.187-7.608-8.546c-2.142-3.818-3.238-7.928-3.238-11.968
					c0-1.889,0.239-3.762,0.725-5.583c0,0,0.604-1.825,0.682-2.055C54.075,2.365,65.272,2.134,77.29,4.924z M50.22,4.714
					l-0.083,0.091l-0.793,2.396c-0.511,1.919-0.764,3.891-0.764,5.879c0,4.234,1.146,8.536,3.386,12.528
					c1.923,3.428,4.601,6.444,7.739,8.754c0.067,0.426,4.489,28.679,4.489,28.679c0.86,5.646,5.393,9.587,11.023,9.587
					c5.412,0,9.529-3.564,11.014-9.535c0.134-0.535,13.238-49.995,13.371-50.495l0.124-0.465L89.268,7.307
					c0,0-7.76-2.58-11.717-3.499C64.887,0.868,53.393,1.25,50.22,4.714z"/>
				
					<linearGradient id="XMLID_11_" gradientUnits="userSpaceOnUse" x1="62.4009" y1="-22.5625" x2="75.0377" y2="5.785" gradientTransform="matrix(0.9996 0.0277 -0.0277 0.9996 -0.1512 5.2885)">
					<stop  offset="0" style="stop-color:#FFFFFF"/>
					<stop offset="1" style="stop-color:#FFFFFF;stop-opacity:0"/>
					
					
					
				</linearGradient>
				<path fill="url(#XMLID_11_)"  a:adobe-blending-mode="screen" d="M60.441,8.402c2.942-3.021,13.692-3.113,25.7,0.011
					c2.453,0.638,4.783,1.369,6.952,2.157c-0.119-0.274-0.233-0.549-0.366-0.821c-3.687-1.543-8.32-2.987-13.477-4.11
					C67.228,3.022,56.48,3.043,53.554,5.501c-0.292,0.563-0.55,1.14-0.763,1.733c0.254,1.929,3.538,4.266,8.657,6.415
					c-1.052-1.09-1.681-2.148-1.781-3.124C59.884,9.798,60.145,9.093,60.441,8.402z"/>
				<linearGradient id="XMLID_12_" gradientUnits="userSpaceOnUse" x1="66.8223" y1="46.9346" x2="67.7265" y2="31.106">
					<stop  offset="0" style="stop-color:#FFFFFF"/>
					<stop offset="1" style="stop-color:#FFFFFF;stop-opacity:0"/>
					
					
					
				</linearGradient>
				<path fill="url(#XMLID_12_)"  a:adobe-blending-mode="screen" d="M67.718,20.858l0.052,0.384
					c0.365,0.066,0.729,0.136,1.101,0.192L67.718,20.858z"/>
				<linearGradient id="XMLID_13_" gradientUnits="userSpaceOnUse" x1="74.6973" y1="1.3047" x2="86.7507" y2="28.3434">
					<stop  offset="0" style="stop-color:#FFFFFF"/>
					<stop offset="1" style="stop-color:#FFFFFF;stop-opacity:0"/>
					
					
					
				</linearGradient>
				<path fill="url(#XMLID_13_)"  a:adobe-blending-mode="screen" d="M79.365,19.584c-2.032-0.001-4.007-0.156-5.905-0.445
					c-0.371-0.057-0.735-0.125-1.101-0.192l0.438,3.249l2.186,16.235l2.444-15.719c0.601,0.03,1.2,0.055,1.811,0.055
					c6.655,0,12.67-1.76,17.015-4.601l0.833-3.128C92.422,17.859,86.205,19.587,79.365,19.584z"/>
				<path fill="#FFFFFF" d="M71.398,34.117c-7.355-1.428-13.434-5.292-17.208-10.308c3.262,7.81,11.106,13.318,20.279,13.318
					c4.883,0,9.378-1.58,13.021-4.218C82.697,34.7,77.104,35.227,71.398,34.117z"/>
				<path opacity="0.1" d="M96.638,10.938c-3.159,11.983-12.821,48.647-12.94,49.125c-1.089,4.401-3.806,8.133-8.226,9.207
					c0.268,0.02,0.532,0.037,0.807,0.037c5.519,0,8.806-3.944,9.992-8.742c0.131-0.523,12.778-48.508,12.778-48.508L96.638,10.938z"
					/>
			</g>
		</g>
		<path fill="none" d="M128,128H0V0h128V128z"/>
	</g>
</svg>
