<?xml version="1.0" encoding="UTF-8" standalone="no"?>
<!-- Created with Inkscape (http://www.inkscape.org/) -->

<svg
   xmlns:ns="http://ns.adobe.com/SaveForWeb/1.0/"
   xmlns:dc="http://purl.org/dc/elements/1.1/"
   xmlns:cc="http://creativecommons.org/ns#"
   xmlns:rdf="http://www.w3.org/1999/02/22-rdf-syntax-ns#"
   xmlns:svg="http://www.w3.org/2000/svg"
   xmlns="http://www.w3.org/2000/svg"
   xmlns:sodipodi="http://sodipodi.sourceforge.net/DTD/sodipodi-0.dtd"
   xmlns:inkscape="http://www.inkscape.org/namespaces/inkscape"
   version="1.1"
   width="192.97749"
   height="169.01122"
   viewBox="0 0 192.97749 169.01121"
   id="svg2"
   xml:space="preserve"
   inkscape:version="0.48.2 r9819"
   sodipodi:docname="AJAX1.svg"><sodipodi:namedview
   pagecolor="#ffffff"
   bordercolor="#666666"
   borderopacity="1"
   objecttolerance="10"
   gridtolerance="10"
   guidetolerance="10"
   inkscape:pageopacity="0"
   inkscape:pageshadow="2"
   inkscape:window-width="1280"
   inkscape:window-height="1004"
   id="namedview8"
   showgrid="false"
   fit-margin-top="0"
   fit-margin-left="0"
   fit-margin-right="0"
   fit-margin-bottom="0"
   inkscape:zoom="3.7083822"
   inkscape:cx="68.74417"
   inkscape:cy="132.60196"
   inkscape:window-x="-8"
   inkscape:window-y="-8"
   inkscape:window-maximized="1"
   inkscape:current-layer="svg2" /><defs
   id="defs9" />
<metadata
   id="metadata3">
	<ns:sfw>
		<ns:slices />
		<ns:sliceSourceBounds
   bottomLeftOrigin="true"
   x="200"
   y="336"
   width="193"
   height="169" />
	</ns:sfw>
	<rdf:RDF>
		<cc:Work
   rdf:about="">
			<dc:format>image/svg+xml</dc:format>
			<dc:type
   rdf:resource="http://purl.org/dc/dcmitype/StillImage" />
			<dc:title />
		</cc:Work>
	</rdf:RDF>
	<ns:sfw>
		<ns:slices />
		<ns:sliceSourceBounds
   bottomLeftOrigin="true"
   x="200"
   y="336"
   width="193"
   height="169" />
	</ns:sfw>
</metadata>
<path
   d="M 96.491487,12.513757 74.182375,50.757948 12.491487,156.51375 l 167.999993,0 z"
   id="path5"
   style="fill:none;stroke:#cccccc;stroke-width:25;stroke-linejoin:round;stroke-opacity:1"
   inkscape:connector-curvature="0"
   sodipodi:nodetypes="ccccc" />
<path
   d="m 96.491487,12.513757 -84,143.999993 H 180.49148 L 96.491487,12.513757 z"
   id="path7"
   style="fill:#ffffff;stroke:#cc0000;stroke-width:17;stroke-linejoin:round"
   inkscape:connector-curvature="0" />
<path
   d="m 92.003487,120.07175 c -0.01,-0.302 -0.102,-0.597 -0.266,-0.849 l -6.617,-10.23 -10.359,-5.482 -15.7,29.648 c -0.509,0.967 -0.778,2.043 -0.778,3.137 0,2.481 1.373,4.757 3.566,5.917 l 16.556,-31.27 6.957,10.757 0.521,14.066 c 0.134,3.6 3.09,6.446 6.692,6.446 0.115,0 0.136,0 0.25,-0.003 l -0.822,-22.137 m -13.825,-24.807993 -1.322,2.496 -3.953,-3.267 -1.772,3.351 c -1.919,-1.018 -3.122,-3.01 -3.122,-5.181 0,-0.954 0.234,-1.896 0.682,-2.742 l 4.824,-9.105 c 0.724,-1.372 2.147,-2.229 3.698,-2.229 h 14.772 c 3.701,0 6.695,3 6.695,6.699 0,0.145 -0.001,0.284 -0.013,0.429 l -1.633,25.125993 15.708993,13.062 c -0.607,0.72 -1.379,1.281 -2.252,1.64 l -13.677993,-11.297 -0.184,2.84 c -3.081,-0.198 -5.48,-2.758 -5.48,-5.849 0,-0.13 0.005,-0.246 0.011,-0.375 l 0.081,-1.221 -3.839,-3.173 1.322,-2.492 2.735,2.257 0.678,-10.494993 -6.233,11.775993 -10.359,-5.486 9.305,-17.578993 h -6.629 l -3.999,7.549 3.956,3.266 0,0 z m 25.526993,-26.304 c -3.469,0 -6.278993,2.811 -6.278993,6.278 0,3.47 2.810993,6.28 6.278993,6.28 3.467,0 6.277,-2.811 6.277,-6.28 0,-3.468 -2.81,-6.278 -6.277,-6.278 z m 6.62,57.535993 c 1.19,-0.388 2.249,-1.098 3.058,-2.052 l 6.531,-7.729 c 1.591,-1.881 3.93,-2.966 6.393,-2.966 2.604,0 5.055,1.207 6.64,3.27 l 17.293,22.5 c 0.225,0.294 0.345,0.65 0.345,1.021 0,0.925 -0.747,1.672 -1.672,1.672 H 98.680487 c -0.921,0 -1.67,-0.747 -1.67,-1.672 0,-0.398 0.137,-0.779 0.393,-1.08 l 9.604993,-11.364 c 0.404,-0.479 0.933,-0.833 1.529,-1.026 l 1.788,-0.574 0,0 z"
   id="path7_1_"
   style="fill:#000000;stroke:none"
   inkscape:connector-curvature="0" />
</svg>