<?xml version="1.0" encoding="UTF-8" standalone="no"?>
<!-- Created with Inkscape (http://www.inkscape.org/) -->
<svg xmlns:dc="http://purl.org/dc/elements/1.1/" xmlns:cc="http://creativecommons.org/ns#" xmlns:rdf="http://www.w3.org/1999/02/22-rdf-syntax-ns#" xmlns:svg="http://www.w3.org/2000/svg" xmlns="http://www.w3.org/2000/svg" xmlns:sodipodi="http://sodipodi.sourceforge.net/DTD/sodipodi-0.dtd" xmlns:inkscape="http://www.inkscape.org/namespaces/inkscape" width="193.0128" height="161.4631" id="svg2" version="1.1" inkscape:version="0.47 r22583" sodipodi:docname="work learn fight.svg">
  <defs id="defs4">
    <inkscape:perspective sodipodi:type="inkscape:persp3d" inkscape:vp_x="0 : 526.18109 : 1" inkscape:vp_y="0 : 1000 : 0" inkscape:vp_z="744.09448 : 526.18109 : 1" inkscape:persp3d-origin="372.04724 : 350.78739 : 1" id="perspective10"/>
    <inkscape:perspective id="perspective2824" inkscape:persp3d-origin="0.5 : 0.33333333 : 1" inkscape:vp_z="1 : 0.5 : 1" inkscape:vp_y="0 : 1000 : 0" inkscape:vp_x="0 : 0.5 : 1" sodipodi:type="inkscape:persp3d"/>
    <inkscape:perspective id="perspective2852" inkscape:persp3d-origin="0.5 : 0.33333333 : 1" inkscape:vp_z="1 : 0.5 : 1" inkscape:vp_y="0 : 1000 : 0" inkscape:vp_x="0 : 0.5 : 1" sodipodi:type="inkscape:persp3d"/>
    <inkscape:perspective id="perspective2866" inkscape:persp3d-origin="0.5 : 0.33333333 : 1" inkscape:vp_z="1 : 0.5 : 1" inkscape:vp_y="0 : 1000 : 0" inkscape:vp_x="0 : 0.5 : 1" sodipodi:type="inkscape:persp3d"/>
  </defs>
  <sodipodi:namedview id="base" pagecolor="#ffffff" bordercolor="#666666" borderopacity="1.0" inkscape:pageopacity="0.0" inkscape:pageshadow="2" inkscape:zoom="1.0987013" inkscape:cx="147.4803" inkscape:cy="62.411776" inkscape:document-units="px" inkscape:current-layer="layer1" showgrid="false" inkscape:window-width="1024" inkscape:window-height="675" inkscape:window-x="-4" inkscape:window-y="40" inkscape:window-maximized="1"/>
  <g inkscape:label="Ebene 1" inkscape:groupmode="layer" id="layer1" transform="translate(-298.23399,-451.3184)">
    <path style="fill:#000000" d="m 405.58048,600.5315 c 0.35117,-6.7375 0.30725,-12.75587 -0.0976,-13.37416 -0.80202,-1.22482 -7.30453,-5.36606 -8.43521,-5.3721 -0.38451,-0.002 -1.81446,1.45876 -3.17768,3.24626 -2.018,2.64609 -2.7033,5.24755 -3.688,14 -0.66519,5.9125 -1.53921,10.75 -1.94227,10.75 -1.24443,0 -1.77502,-8.52416 -1.23707,-19.87388 0.55576,-11.72525 -0.171,-13.71099 -3.7194,-10.16259 -1.63089,1.63089 -2.03647,3.331 -2.03647,8.53647 0,5.11111 -0.32051,6.5 -1.5,6.5 -1.0349,0 -1.5,-1.03898 -1.5,-3.35078 0,-5.26171 -1.95053,-9.57228 -5.05876,-11.1796 -6.65639,-3.44216 -9.34909,-0.83958 -11.40996,11.02809 -0.72866,4.19605 -1.58541,7.88975 -1.90389,8.20823 -1.14399,1.144 -3.66889,-1.99982 -3.08461,-3.84072 1.22739,-3.86718 2.10017,-22.0556 1.32894,-27.69491 -0.44268,-3.23695 -2.6594,-12.13698 -4.92604,-19.77784 -3.44732,-11.62092 -4.1313,-15.36995 -4.18312,-22.92851 -0.0344,-5.02194 0.44879,-9.99035 1.08775,-11.18426 3.40804,-6.36798 -1.39793,-7.9998 -8.72225,-2.96156 -3.24115,2.22951 -6.79042,3.71604 -9.84781,4.12451 -9.54918,1.27578 -22.75944,-3.21531 -29.29796,-9.96043 -3.33366,-3.439 -3.49734,-3.95276 -3.83491,-12.03727 -0.34662,-8.30154 -0.31266,-8.44485 2,-8.43879 1.29394,0.003 3.64156,0.67839 5.21693,1.5 1.78068,0.92869 5.63701,1.49384 10.19329,1.49384 6.43995,0 7.51783,-0.2696 8.8857,-2.22251 0.85618,-1.22238 1.5567,-4.21705 1.5567,-6.65483 0,-3.85438 -0.51064,-4.9181 -3.9161,-8.15763 -2.65668,-2.52724 -5.55779,-4.11913 -9.02088,-4.94991 -9.11477,-2.1866 -8.83927,-6.01548 0.84404,-11.73034 4.01309,-2.36844 5.67566,-2.71508 13.16902,-2.7457 7.67288,-0.0314 9.00532,0.24901 12.6519,2.66221 8.14031,5.387 14.19782,13.81486 14.25006,19.8262 0.0362,4.16063 2.62893,6.64157 9.93773,9.50908 8.40068,3.29589 11.05636,2.86948 16.27138,-2.61265 3.57799,-3.76124 3.99595,-3.92392 10.08167,-3.92392 3.93708,0 7.08632,0.5437 8.29005,1.43124 1.4117,1.04088 3.59607,1.27882 8.00889,0.87241 5.3006,-0.48817 6.56678,-0.24381 10.01468,1.93276 2.17081,1.37037 4.51731,3.17886 5.21446,4.01887 0.69715,0.84001 3.31048,1.83365 5.8074,2.20809 3.36666,0.50486 5.49387,1.63125 8.2315,4.35871 2.03039,2.02286 4.88919,4.21539 6.35288,4.87229 3.50514,1.57311 10.81023,12.38092 10.81506,16.00076 0.006,4.78537 3.47316,9.08308 9.7084,12.03533 5.66953,2.68439 8.39129,5.0794 21.53786,18.9522 4.77239,5.03603 6.75,7.88381 6.75,9.72011 0,2.43372 -0.29905,2.59636 -4.75,2.58346 -2.6125,-0.008 -11.5,-1.18621 -19.75,-2.6192 -22.08227,-3.83559 -22.5,-3.87128 -22.5,-1.92241 0,2.51072 -2.08205,6.06874 -11.35625,19.40669 -9.51177,13.67962 -10.64375,16.93571 -10.64375,30.61612 0,9.5932 -0.50463,11.53257 -3.00083,11.53257 -1.53541,0 -1.8876,-1.30161 -2.50285,-9.25 -0.65543,-8.46747 -2.50326,-15.75 -3.99632,-15.75 -0.33113,0 -1.30393,1.67983 -2.16179,3.73297 -1.22304,2.92714 -1.41168,5.62547 -0.8739,12.5 l 0.68584,8.76703 -2.72748,0 -2.72748,0 0.63851,-12.25 z m 3.96596,-23.39705 c 1.76019,-0.90588 5.57381,-3.66991 8.47471,-6.1423 2.90091,-2.47238 5.51866,-4.25095 5.81723,-3.95238 0.29858,0.29857 -0.61997,2.83761 -2.04121,5.6423 -1.42125,2.80468 -2.19178,5.09943 -1.71229,5.09943 0.47948,0 3.1023,-2.3625 5.82848,-5.25 5.22397,-5.5331 11.18043,-14.91948 13.44922,-21.19369 1.23922,-3.42701 1.18964,-3.85979 -0.59132,-5.16207 -1.73935,-1.27184 -2.17709,-1.16999 -4.15936,0.9678 -1.61811,1.74506 -2.97705,2.27027 -5.04027,1.94799 -2.57517,-0.40225 -2.67017,-0.31522 -1.07485,0.9846 0.9625,0.78422 1.75,1.68756 1.75,2.00743 0,0.31987 -3.13135,0.31905 -6.95856,-0.002 -9.64529,-0.80862 -15.19223,0.88971 -19.55573,5.98747 -6.24334,7.29395 -6.84273,13.08253 -1.8696,18.05566 3.12127,3.12128 3.48698,3.16933 7.68355,1.00957 z m -38.82605,-3.31025 c 0.32541,-0.52652 -1.15663,-4.46402 -3.29341,-8.75 -3.73301,-7.48773 -6.05507,-14.95144 -4.3175,-13.87756 0.45792,0.28301 2.56644,3.47933 4.6856,7.10292 7.45029,12.73942 11.72807,15.35355 19.68457,12.02911 3.034,-1.26769 3.68674,-2.19996 5.12212,-7.3156 0.90476,-3.22453 1.64501,-6.8547 1.64501,-8.06704 0,-3.50772 -4.39844,-13.38843 -8.93126,-20.06331 -4.79589,-7.06226 -9.75759,-10.72745 -15.81874,-11.68524 -2.3375,-0.36938 -4.25,-0.96175 -4.25,-1.31638 0,-0.35464 1.4625,-1.43311 3.25,-2.3966 1.7875,-0.9635 4.32481,-3.32211 5.63846,-5.24136 2.04439,-2.98686 2.3069,-4.27984 1.82226,-8.97559 -0.31142,-3.01733 -0.3307,-5.48605 -0.0428,-5.48605 0.28786,0 1.86809,0.95752 3.51163,2.12782 2.52797,1.80008 3.83576,2.02822 8.4905,1.48114 6.81621,-0.80111 10.51509,-2.6558 13.41299,-6.72553 2.9441,-4.13459 1.68578,-6.27428 -3.93484,-6.69093 -4.48414,-0.3324 -5.47547,1.07944 -2.39816,3.41545 1.65918,1.2595 1.65577,1.33009 -0.0657,1.36025 -2.59169,0.0454 -5.6843,-1.80247 -5.6843,-3.3964 0,-1.77622 -2.06275,-2.5045 -9.20932,-3.25147 -5.50253,-0.57513 -6.07121,-0.43051 -8.97676,2.28282 -4.40636,4.11485 -17.75714,22.32244 -18.48008,25.20285 -2.1511,8.57066 5.18948,42.30462 11.57511,53.194 3.1796,5.42214 5.31593,7.06319 6.56466,5.0427 z m 29.47835,-19.47288 c 1.67642,-2.43659 3.04804,-4.68659 3.04804,-5 0,-1.01909 -2.57788,-0.60136 -4.19747,0.68018 -1.45268,1.14947 -3.53382,8.75 -2.39588,8.75 0.2735,0 1.86889,-1.99358 3.54531,-4.43018 z m 74.54947,-6.16785 c 0.55079,-1.70392 1.63815,-3.86522 2.41635,-4.8029 1.26669,-1.52627 0.80006,-2.32621 -4.45416,-7.63583 l -5.86907,-5.93096 -2.42962,2.23386 c -2.84746,2.61803 -7.14111,11.27407 -7.15516,14.42484 -0.0121,2.71627 0.87623,3.27909 6.79051,4.30221 7.76141,1.34264 9.57119,0.90442 10.70115,-2.59122 z m -20.74211,-2.624 c -0.39277,-1.17832 -14.99122,-7.63582 -17.47794,-7.73122 -3.02548,-0.11607 0.55587,3.43422 6.11924,6.06615 6.35264,3.00534 12.08559,3.84572 11.3587,1.66507 z m -26.81843,-11.40446 c 1.02524,-4.58123 2.07326,-6.42896 5.27244,-9.29564 4.24436,-3.80324 7.78667,-9.70765 7.78667,-12.97902 0,-3.63511 1.84584,-3.18326 4.85341,1.18809 1.63779,2.38045 3.76668,4.97721 4.73085,5.77058 1.62673,1.33854 1.70397,1.19479 1.07192,-1.99489 -0.37462,-1.89056 -1.77464,-5.82591 -3.11115,-8.74524 -4.01757,-8.77553 -9.35947,-9.50295 -16.60172,-2.2607 -2.20319,2.20319 -4.27909,5.37222 -4.61311,7.04228 -0.33401,1.67007 -1.69295,3.74783 -3.01986,4.61725 -2.23985,1.46762 -5.31034,6.10189 -5.31034,8.01488 0,0.45673 1.35,1.33999 3,1.9628 4.15242,1.56736 4.2346,5.3061 0.11663,5.3061 -4.90216,0 -4.91068,5.9506 -0.01,6.69856 1.24933,0.19067 2.47411,0.54925 2.72172,0.79686 1.02089,1.0209 1.90115,-0.71066 3.11213,-6.12191 z m -12.70756,-2.35646 -0.49962,-6.98295 5.95024,-8.76705 c 3.27264,-4.82188 7.45111,-10.87891 9.28549,-13.46008 3.22313,-4.53527 3.2797,-4.77779 1.6829,-7.21481 -0.90879,-1.38699 -2.48152,-2.96555 -3.49496,-3.50793 -3.97381,-2.12672 -12.17726,4.91088 -13.82047,11.85637 -0.33304,1.40767 -1.21641,3.26577 -1.96305,4.12912 -1.26307,1.46049 -5.37386,12.22179 -5.37386,14.06778 0,0.45342 1.125,1.10675 2.5,1.45186 2.91349,0.73124 3.39034,3.41064 0.60699,3.41064 -1.04116,0 -2.1715,0.72574 -2.51188,1.61274 -1.01402,2.64249 4.47935,10.2068 7.52137,10.35685 0.33906,0.0167 0.39165,-3.11192 0.11685,-6.95254 z m 43.32598,1.88699 c 0.37254,-0.60278 0.0616,-1.65911 -0.69099,-2.34739 -1.58741,-1.4518 -15.8813,-6.55665 -18.35902,-6.55665 -3.33285,0 -0.77485,2.38884 4.46532,4.17003 2.94712,1.00175 6.07097,2.43959 6.94189,3.19518 2.94813,2.55775 6.56322,3.28563 7.6428,1.53883 z m -57.53456,-3.46914 c 0.53639,-1.4108 0.97525,-4.89877 0.97525,-7.75103 0,-4.69092 0.76362,-6.47435 8,-18.68387 4.4,-7.42387 8,-14.2859 8,-15.24897 0,-4.62016 -7.36399,-7.39901 -11.53165,-4.35155 -1.69931,1.24257 -1.76265,1.6821 -0.56486,3.92019 2.92117,5.45826 -2.38081,15.36264 -9.4777,17.70482 -3.76845,1.2437 -5.42579,3.96781 -5.42579,8.91816 0,3.0242 1.36437,4.6303 4.41713,5.19974 3.32545,0.62031 3.06411,2.85761 -0.3338,2.85761 -2.67903,0 -3.08333,0.35214 -3.08333,2.68555 0,3.14036 3.53758,7.31445 6.19906,7.31445 1.06619,0 2.26377,-1.08713 2.82569,-2.5651 z m -13.66067,-9.07447 c 0.34975,-2.55177 0.63592,-6.54493 0.63592,-8.8737 l 0,-4.23413 -3.25,0.66073 c -3.59216,0.73029 -4.89432,4.00292 -2.66267,6.6919 1.00332,1.20892 0.92407,1.81194 -0.41393,3.14994 -1.53974,1.53974 -1.4686,1.84916 1.02299,4.44982 1.47279,1.53725 2.98244,2.79501 3.35478,2.79501 0.37234,0 0.96315,-2.08781 1.31291,-4.63957 z M 338.8168,506.2815 c 6.49891,-3.91344 8.2112,-4.18161 12.50901,-1.95913 1.63884,0.84747 3.48007,1.23162 4.09163,0.85366 0.61155,-0.37797 -1.53916,-1.51854 -4.77937,-2.53462 l -5.89129,-1.8474 -4.60518,2.47733 c -2.53284,1.36254 -7.25784,3.15036 -10.5,3.97293 -5.44776,1.38218 -6.45411,1.35063 -13.26949,-0.41594 -4.88471,-1.26613 -8.39197,-2.86288 -10.38763,-4.72918 l -3.01296,-2.81765 1.73185,2.71827 c 2.99999,4.70871 10.79882,7.7031 20.17226,7.74521 7.54784,0.0339 8.54428,-0.21364 13.94117,-3.46348 z m -1.4304,-5.00532 5.67907,-3.50532 7.15629,1.50538 c 8.11326,1.70667 10.12134,1.15346 12.49838,-3.44323 l 1.49406,-2.88919 -9.01859,-4.29606 c -9.95502,-4.74212 -10.65197,-5.71961 -9.59199,-13.45305 0.56016,-4.08683 0.32082,-4.76424 -2.97043,-8.40726 -7.43167,-8.22597 -12.61505,-9.69287 -22.86176,-6.46989 -4.1817,1.31531 -5.45877,2.09328 -4.44583,2.70832 0.78165,0.4746 3.79965,2.207 6.70667,3.84977 6.6353,3.74963 8.77378,7.69073 7.7776,14.33371 -0.46053,3.071 -1.73204,5.83391 -3.73428,8.11434 -2.66195,3.03178 -3.62087,3.4578 -7.78318,3.4578 -2.61095,0 -6.21266,-0.51087 -8.00379,-1.13526 -2.5379,-0.88472 -3.42973,-0.85516 -4.04101,0.13392 -1.0843,1.75444 0.54849,6.93615 2.71156,8.60518 3.01524,2.32659 10.48246,4.2533 16.76789,4.32651 5.156,0.06 6.76304,-0.4135 11.65934,-3.43567 z m 27.92166,-12.92085 c -0.65099,-0.78439 -3.628,-2.19502 -6.61557,-3.13472 -8.06341,-2.53626 -8.57118,-3.13306 -9.18638,-10.79717 -0.49875,-6.21336 -0.87999,-7.11596 -4.88914,-11.5751 -5.12423,-5.69937 -11.6789,-9.07067 -17.60929,-9.05707 -4.22406,0.01 -13.87553,3.74866 -15.19738,5.88745 -1.10559,1.78889 1.00774,1.27684 6.13357,-1.48613 4.1563,-2.24038 5.6979,-2.52859 11.45076,-2.14083 7.88942,0.53177 11.67293,2.80084 15.97105,9.57828 2.24341,3.53749 2.8811,5.7192 2.8811,9.85703 0,6.30367 1.0756,7.50935 10.26505,11.50638 7.13591,3.10383 8.46255,3.36967 6.79623,1.36188 z m 30.75178,-4.78895 c 0.25246,-2.18956 -0.17279,-2.83706 -2.1969,-3.34508 -3.28423,-0.82429 -9.36524,1.22283 -10.62506,3.57684 -0.85915,1.60533 -0.55375,1.91407 2.25767,2.28234 1.78818,0.23424 4.82623,0.37529 6.75123,0.31345 3.03008,-0.0973 3.54203,-0.47697 3.81306,-2.82755 z" id="path2872"/>
  </g>
  <metadata>
    <rdf:RDF>
      <cc:Work>
        <dc:format>image/svg+xml</dc:format>
        <dc:type rdf:resource="http://purl.org/dc/dcmitype/StillImage"/>
        <cc:license rdf:resource="http://creativecommons.org/licenses/publicdomain/"/>
        <dc:publisher>
          <cc:Agent rdf:about="http://openclipart.org/">
            <dc:title>Open Clip Art Library</dc:title>
          </cc:Agent>
        </dc:publisher>
        <dc:title>worker, learn and fight for your rights</dc:title>
        <dc:date>2010-12-31T17:30:26</dc:date>
        <dc:description/>
        <dc:source>http://openclipart.org/detail/102805/worker-learn-and-fight-for-your-rights-by-worker</dc:source>
        <dc:creator>
          <cc:Agent>
            <dc:title>worker</dc:title>
          </cc:Agent>
        </dc:creator>
        <dc:subject>
          <rdf:Bag>
            <rdf:li>clip art</rdf:li>
            <rdf:li>clipart</rdf:li>
            <rdf:li>fight</rdf:li>
            <rdf:li>fight</rdf:li>
            <rdf:li>hand</rdf:li>
            <rdf:li>learn</rdf:li>
            <rdf:li>left</rdf:li>
            <rdf:li>pencil</rdf:li>
            <rdf:li>revolution</rdf:li>
            <rdf:li>rights</rdf:li>
            <rdf:li>socialism</rdf:li>
            <rdf:li>unite</rdf:li>
            <rdf:li>work</rdf:li>
            <rdf:li>worker</rdf:li>
            <rdf:li>workingclass</rdf:li>
            <rdf:li>write</rdf:li>
          </rdf:Bag>
        </dc:subject>
      </cc:Work>
      <cc:License rdf:about="http://creativecommons.org/licenses/publicdomain/">
        <cc:permits rdf:resource="http://creativecommons.org/ns#Reproduction"/>
        <cc:permits rdf:resource="http://creativecommons.org/ns#Distribution"/>
        <cc:permits rdf:resource="http://creativecommons.org/ns#DerivativeWorks"/>
      </cc:License>
    </rdf:RDF>
  </metadata>
</svg>
