<?xml version="1.0" encoding="UTF-8" standalone="no"?>
<svg
   xmlns:dc="http://purl.org/dc/elements/1.1/"
   xmlns:cc="http://creativecommons.org/ns#"
   xmlns:rdf="http://www.w3.org/1999/02/22-rdf-syntax-ns#"
   xmlns:svg="http://www.w3.org/2000/svg"
   xmlns="http://www.w3.org/2000/svg"
   xmlns:sodipodi="http://sodipodi.sourceforge.net/DTD/sodipodi-0.dtd"
   xmlns:inkscape="http://www.inkscape.org/namespaces/inkscape"
   width="64pt"
   height="64pt"
   viewBox="0 0 64 64"
   version="1.1"
   id="svg2"
   inkscape:version="0.48.0 r9654"
   sodipodi:docname="Basic_Notebook.svg">
  <metadata
     id="metadata60">
    <rdf:RDF>
      <cc:Work
         rdf:about="">
        <dc:format>image/svg+xml</dc:format>
        <dc:type
           rdf:resource="http://purl.org/dc/dcmitype/StillImage" />
      </cc:Work>
    </rdf:RDF>
  </metadata>
  <defs
     id="defs58" />
  <sodipodi:namedview
     pagecolor="#ffffff"
     bordercolor="#666666"
     borderopacity="1"
     objecttolerance="10"
     gridtolerance="10"
     guidetolerance="10"
     inkscape:pageopacity="0"
     inkscape:pageshadow="2"
     inkscape:window-width="1280"
     inkscape:window-height="750"
     id="namedview56"
     showgrid="false"
     inkscape:zoom="7.6996974"
     inkscape:cx="36.3"
     inkscape:cy="40.918126"
     inkscape:window-x="-8"
     inkscape:window-y="-8"
     inkscape:window-maximized="1"
     inkscape:current-layer="svg2" />
  <path
     fill="#7f3f00"
     d=" M 31.01 3.90 C 31.58 3.97 32.73 4.12 33.31 4.19 C 33.20 4.56 33.00 5.31 32.90 5.68 C 32.06 6.40 31.36 7.24 30.81 8.20 C 30.47 8.11 29.78 7.93 29.43 7.84 L 29.20 7.64 L 28.48 6.21 C 29.11 6.14 30.37 6.01 31.00 5.95 C 31.00 5.44 31.01 4.41 31.01 3.90 Z"
     id="path6" />
  <path
     fill="#fe7f3f"
     d=" M 33.31 4.19 L 33.45 3.68 C 33.82 5.45 34.94 6.31 36.79 6.25 C 36.30 6.98 35.80 7.70 35.30 8.41 C 34.44 8.93 33.55 9.41 32.65 9.86 C 32.34 9.55 31.71 8.91 31.40 8.59 C 31.86 8.44 32.79 8.13 33.25 7.97 C 33.16 7.40 32.98 6.25 32.90 5.68 C 33.00 5.31 33.20 4.56 33.31 4.19 Z"
     id="path8" />
  <path
     fill="#7f3f00"
     d=" M 24.01 4.90 C 24.57 4.97 25.70 5.12 26.27 5.19 C 26.19 5.57 26.04 6.31 25.97 6.68 C 25.24 7.32 24.59 8.03 24.02 8.81 L 23.26 8.94 L 22.03 9.12 C 22.02 8.59 22.00 7.54 21.99 7.01 C 22.49 7.01 23.49 7.00 23.99 6.99 C 24.00 6.47 24.01 5.42 24.01 4.90 Z"
     id="path10" />
  <path
     fill="#fe7f3f"
     d=" M 26.27 5.19 L 26.35 4.79 C 27.11 5.93 28.06 6.88 29.20 7.64 L 29.43 7.84 C 28.57 8.87 27.66 9.88 26.71 10.83 C 26.36 10.95 25.68 11.19 25.34 11.31 C 25.19 10.83 24.89 9.86 24.74 9.38 C 25.16 9.26 25.98 9.04 26.40 8.92 C 26.29 8.36 26.08 7.24 25.97 6.68 C 26.04 6.31 26.19 5.57 26.27 5.19 Z"
     id="path12" />
  <path
     fill="#bfbfbf"
     d=" M 36.79 6.25 C 39.38 9.92 40.22 14.40 41.45 18.63 C 44.34 29.21 48.00 39.58 50.38 50.28 L 49.88 50.41 C 46.61 51.26 43.30 51.98 40.02 52.82 C 33.45 54.53 26.66 55.66 20.45 58.50 L 19.95 58.72 C 20.04 53.73 17.89 49.15 16.71 44.40 C 13.75 33.94 10.30 23.61 7.70 13.07 C 8.27 13.05 9.43 13.03 10.00 13.02 C 10.46 13.01 11.37 12.99 11.83 12.99 L 12.36 13.52 C 12.66 13.86 13.27 14.55 13.57 14.89 L 11.71 15.06 C 11.25 15.05 10.31 15.02 9.85 15.01 C 14.39 28.26 17.49 41.97 22.10 55.19 C 22.53 55.11 23.39 54.94 23.82 54.86 C 31.94 52.56 40.36 51.27 48.21 48.08 C 45.30 38.80 42.68 29.43 39.90 20.11 C 38.61 16.15 38.35 11.54 35.30 8.41 C 35.80 7.70 36.30 6.98 36.79 6.25 Z"
     id="path16" />
  <path
     fill="#7f3f00"
     d=" M 18.20 6.92 C 18.78 6.99 19.95 7.13 20.53 7.19 C 20.25 7.65 19.70 8.57 19.43 9.02 C 19.15 9.39 18.58 10.13 18.30 10.50 L 18.49 11.26 C 18.00 11.19 17.02 11.07 16.53 11.00 C 16.97 9.60 17.62 8.27 18.20 6.92 Z"
     id="path18" />
  <path
     fill="#fe7f3f"
     d=" M 20.53 7.19 L 20.85 6.66 C 20.92 7.31 21.04 8.60 21.11 9.25 L 22.03 9.12 L 23.26 8.94 C 22.69 9.92 22.28 10.97 22.02 12.08 C 21.05 12.35 20.08 12.64 19.12 12.94 C 18.96 12.52 18.65 11.68 18.49 11.26 C 18.89 11.18 19.69 11.03 20.10 10.95 C 19.93 10.47 19.60 9.51 19.43 9.02 C 19.70 8.57 20.25 7.65 20.53 7.19 Z"
     id="path20" />
  <path
     fill="#bfbfbf"
     d=" M 29.43 7.84 C 29.78 7.93 30.47 8.11 30.81 8.20 L 31.40 8.59 C 31.71 8.91 32.34 9.55 32.65 9.86 C 30.68 10.23 28.69 10.50 26.71 10.83 C 27.66 9.88 28.57 8.87 29.43 7.84 Z"
     id="path24" />
  <path
     fill="#7f3f00"
     d=" M 12.01 8.88 C 12.66 8.97 13.98 9.17 14.63 9.27 C 14.45 9.61 14.08 10.28 13.90 10.62 C 13.12 11.33 12.43 12.12 11.83 12.99 C 11.37 12.99 10.46 13.01 10.00 13.02 C 10.00 12.52 10.00 11.52 10.00 11.02 C 10.50 11.01 11.50 11.00 12.00 10.99 C 12.00 10.46 12.00 9.40 12.01 8.88 Z"
     id="path26" />
  <path
     fill="#fe7f3f"
     d=" M 14.63 9.27 L 15.04 8.53 L 14.58 10.82 C 15.07 10.87 16.04 10.96 16.53 11.00 C 16.43 11.98 16.34 12.97 16.27 13.96 C 15.38 14.29 14.48 14.60 13.57 14.89 C 13.27 14.55 12.66 13.86 12.36 13.52 C 12.80 13.36 13.67 13.04 14.11 12.88 C 14.06 12.31 13.95 11.18 13.90 10.62 C 14.08 10.28 14.45 9.61 14.63 9.27 Z"
     id="path28" />
  <path
     fill="#bfbfbf"
     d=" M 23.26 8.94 L 24.02 8.81 L 24.74 9.38 C 24.89 9.86 25.19 10.83 25.34 11.31 C 24.27 11.72 23.16 11.98 22.02 12.08 C 22.28 10.97 22.69 9.92 23.26 8.94 Z"
     id="path32" />
  <path
     fill="#fefefe"
     d=" M 32.65 9.86 C 33.55 9.41 34.44 8.93 35.30 8.41 C 38.35 11.54 38.61 16.15 39.90 20.11 C 42.68 29.43 45.30 38.80 48.21 48.08 C 40.36 51.27 31.94 52.56 23.82 54.86 C 21.86 49.15 20.44 43.28 18.68 37.51 C 16.15 30.09 14.70 22.32 11.71 15.06 L 13.57 14.89 C 14.48 14.60 15.38 14.29 16.27 13.96 C 17.23 13.65 18.18 13.31 19.12 12.94 C 20.08 12.64 21.05 12.35 22.02 12.08 C 23.16 11.98 24.27 11.72 25.34 11.31 C 25.68 11.19 26.36 10.95 26.71 10.83 C 28.69 10.50 30.68 10.23 32.65 9.86 Z"
     id="path34" />
  <path
     d=" M 16.53 11.00 C 17.02 11.07 18.00 11.19 18.49 11.26 C 18.65 11.68 18.96 12.52 19.12 12.94 C 18.18 13.31 17.23 13.65 16.27 13.96 C 16.34 12.97 16.43 11.98 16.53 11.00 Z"
     id="path38"
     fill="#bfbfbf" />
  <path
     fill="#bfbfbf"
     d=" M 16.00 17.27 C 22.34 16.66 28.38 14.55 34.50 12.87 C 33.81 13.99 33.49 15.68 31.89 15.79 C 26.64 17.10 21.42 18.68 16.02 19.20 C 16.02 18.72 16.00 17.76 16.00 17.27 Z"
     id="path40" />
  <path
     fill="#7f7f7f"
     d=" M 9.85 15.01 C 10.31 15.02 11.25 15.05 11.71 15.06 C 14.70 22.32 16.15 30.09 18.68 37.51 C 20.44 43.28 21.86 49.15 23.82 54.86 C 23.39 54.94 22.53 55.11 22.10 55.19 C 17.49 41.97 14.39 28.26 9.85 15.01 Z"
     id="path42" />
  <path
     fill="#bfbfbf"
     d=" M 18.00 22.26 C 24.35 21.67 30.39 19.55 36.51 17.87 C 35.82 18.99 35.49 20.67 33.90 20.78 C 28.65 22.10 23.42 23.68 18.01 24.20 C 18.01 23.72 18.00 22.75 18.00 22.26 Z"
     id="path44" />
  <path
     fill="#bfbfbf"
     d=" M 20.00 26.28 C 25.74 25.80 31.09 23.58 36.52 21.81 C 35.82 22.93 35.50 24.61 33.95 24.85 C 29.39 26.30 24.78 27.73 20.01 28.23 C 20.00 27.74 20.00 26.77 20.00 26.28 Z"
     id="path46" />
  <path
     fill="#bfbfbf"
     d=" M 22.00 30.26 C 28.04 29.70 33.83 27.86 39.50 25.80 C 38.83 26.95 38.47 28.62 36.92 28.89 C 32.07 30.44 27.08 31.67 22.00 32.19 C 22.00 31.71 22.00 30.75 22.00 30.26 Z"
     id="path48" />
  <path
     fill="#bfbfbf"
     d=" M 25.00 44.28 C 27.52 43.92 30.04 43.49 32.56 43.09 C 31.48 46.57 27.97 46.09 25.02 46.09 C 25.02 45.63 25.00 44.73 25.00 44.28 Z"
     id="path50" />
  <path
     fill="#bfbfbf"
     d=" M 27.00 48.28 C 29.52 47.91 32.04 47.48 34.56 47.09 C 33.51 50.62 29.96 50.08 27.01 50.08 C 27.00 49.63 27.00 48.73 27.00 48.28 Z"
     id="path52" />
  <path
     fill="#7f7f7f"
     d=" M 40.02 52.82 C 43.30 51.98 46.61 51.26 49.88 50.41 C 48.87 53.95 44.42 52.94 41.72 54.30 C 34.34 54.98 27.86 60.09 20.29 58.57 L 20.45 58.50 C 26.66 55.66 33.45 54.53 40.02 52.82 Z"
     id="path54" />
</svg>
