<?xml version="1.0" encoding="UTF-8" standalone="no"?>
<!-- Created with Inkscape (http://www.inkscape.org/) -->

<svg
   xmlns:dc="http://purl.org/dc/elements/1.1/"
   xmlns:cc="http://creativecommons.org/ns#"
   xmlns:rdf="http://www.w3.org/1999/02/22-rdf-syntax-ns#"
   xmlns:svg="http://www.w3.org/2000/svg"
   xmlns="http://www.w3.org/2000/svg"
   xmlns:sodipodi="http://sodipodi.sourceforge.net/DTD/sodipodi-0.dtd"
   xmlns:inkscape="http://www.inkscape.org/namespaces/inkscape"
   width="640px"
   height="480px"
   id="svg17992"
   version="1.1"
   inkscape:version="0.48.2 r9819"
   sodipodi:docname="corazon_rompecabezas.svg">
  <defs
     id="defs17994">
    <inkscape:perspective
       sodipodi:type="inkscape:persp3d"
       inkscape:vp_x="0 : 240 : 1"
       inkscape:vp_y="0 : 1000 : 0"
       inkscape:vp_z="640 : 240 : 1"
       inkscape:persp3d-origin="320 : 160 : 1"
       id="perspective18000" />
    <inkscape:perspective
       id="perspective18010"
       inkscape:persp3d-origin="0.5 : 0.33333333 : 1"
       inkscape:vp_z="1 : 0.5 : 1"
       inkscape:vp_y="0 : 1000 : 0"
       inkscape:vp_x="0 : 0.5 : 1"
       sodipodi:type="inkscape:persp3d" />
  </defs>
  <sodipodi:namedview
     id="base"
     pagecolor="#ffffff"
     bordercolor="#666666"
     borderopacity="1.0"
     inkscape:pageopacity="0.0"
     inkscape:pageshadow="2"
     inkscape:zoom="0.77472527"
     inkscape:cx="164.45477"
     inkscape:cy="240"
     inkscape:current-layer="layer1"
     inkscape:document-units="px"
     showgrid="false"
     inkscape:window-width="1680"
     inkscape:window-height="987"
     inkscape:window-x="-8"
     inkscape:window-y="-8"
     inkscape:window-maximized="1" />
  <g
     id="layer1"
     inkscape:label="Layer 1"
     inkscape:groupmode="layer">
    <g
       id="g17963"
       transform="matrix(0.45980419,0,0,0.45980419,53.356147,7.5268803)"
       inkscape:export-filename="C:\Python27\theGabit\thegabit\website\static\tasks\images\blood.png"
       inkscape:export-xdpi="5.625"
       inkscape:export-ydpi="5.625">
      <path
         sodipodi:nodetypes="ccsccccccscscscscccscsccc"
         id="path17744"
         d="M 9.327,397.32958 C 2.506,397.57613 -5.1452,399.82075 -9.2267,404.62799 -15.1637,417.04916 -0.7415,411.31407 0.9546,419.91336 2.6509,428.51264 -7.5299,428.98819 -7.5299,428.98819 L -7.5299,428.98819 -24.8853,431.3602 C -16.1865,476.75055 -2.0103,519.29262 30.3354,552.38659 L 73.9502,552.26267 73.9502,507.27411 C 74.5724,504.475 76.5543,499.58174 82.8976,500.78818 91.6551,502.45378 85.8144,516.61524 98.4643,510.78563 102.596,507.40313 104.8703,501.52712 105.6305,495.74814 105.6425,495.65794 105.6615,495.57668 105.6725,495.48647 106.1063,493.45416 106.3262,491.1288 106.2335,488.65626 105.9824,481.95851 103.6964,474.44563 98.8008,470.43777 86.1509,464.60817 91.9916,478.76964 83.2341,480.43524 74.4766,482.10084 73.9922,472.10401 73.9922,472.10401 L 73.9502,428.9883 28.1056,428.9883 C 25.231,428.33524 20.4925,426.34792 21.6966,420.24395 23.3929,411.64466 37.801,417.37975 31.8641,404.95859 28.4193,400.90148 22.4492,398.66826 16.5639,397.9218 16.4719,397.9103 16.3752,397.8913 16.2834,397.8804 14.2136,397.45441 11.8455,397.23853 9.3274,397.32957 L 9.327,397.32958 z"
         style="fill:#ff0000;stroke:#000000;stroke-width:6;stroke-miterlimit:4;stroke-opacity:1;stroke-dasharray:none"
         inkscape:connector-curvature="0" />
      <path
         sodipodi:nodetypes="ccscscscscccscscscsscccsc"
         id="path17746"
         d="M 1068.186,429.78546 1043.9473,429.78546 C 1041.1644,429.24857 1035.7613,427.36658 1037.0335,420.91718 1038.7298,412.31794 1053.1378,418.05294 1047.2009,405.63182 1043.7562,401.57474 1037.7861,399.34153 1031.9007,398.59503 1031.8087,398.58303 1031.7121,398.56453 1031.6202,398.55363 1029.5505,398.12764 1027.1823,397.91182 1024.6643,398.00281 1017.8432,398.24943 1010.1921,400.49396 1006.1105,405.30124 1000.1736,417.72237 1014.5957,411.98736 1016.2919,420.5866 1017.9882,429.18584 1007.8074,429.66135 1007.8074,429.66135 L 964.1927,429.78542 C 964.1927,429.78542 964.4731,473.08005 964.4731,473.08005 964.4731,473.08005 964.9575,483.07685 973.715,481.41133 982.4725,479.74571 976.6319,465.58429 989.2816,471.41388 994.1774,475.42176 996.4633,482.93449 996.7144,489.63237 996.8074,492.10479 996.5872,494.43029 996.1534,496.46259 996.1424,496.55289 996.1234,496.64772 996.1114,496.73794 995.3512,502.51691 993.0769,508.37915 988.9451,511.76166 986.5733,512.8547 984.8497,513.25075 983.5599,513.15247 977.9706,512.72693 980.494,503.13129 973.3785,501.77803 965.2073,500.22385 964.2858,508.5375 964.1927,509.69606 L 964.1927,553.05958 1010.0373,553.05958 C 1036.8178,529.12352 1045.1148,521.3602 1075.1148,431.3602 1076.6181,426.8504 1072.9293,432.09617 1068.1861,429.78546 z"
         style="fill:#ff0000;stroke:#000000;stroke-width:6;stroke-miterlimit:4;stroke-opacity:1;stroke-dasharray:none"
         inkscape:connector-curvature="0" />
      <path
         sodipodi:nodetypes="ccsccccsscscscscccscscscsscccscsccc"
         id="path17748"
         d="M 935.5236,326.84752 C 935.7748,333.54532 938.0607,341.05821 942.9564,345.06604 955.6062,350.8956 949.7656,336.73419 958.5232,335.06859 967.2807,333.40299 967.7649,343.39978 967.7649,343.39978 L 967.7649,343.39978 967.7649,386.47421 C 967.7649,386.47421 1011.2675,386.41911 1011.2675,386.41911 1011.2675,386.41911 1021.4483,385.9436 1019.752,377.34432 1018.3738,370.3574 1008.5876,372.83513 1008.1542,367.34686 1008.0542,366.08032 1008.4575,364.38792 1009.5705,362.05896 1013.6522,357.2517 1021.3033,355.00708 1028.1244,354.76055 1030.6424,354.66945 1033.0106,354.88537 1035.0803,355.31136 1035.1723,355.32246 1035.269,355.34086 1035.3608,355.35276 1041.2461,356.09919 1047.2164,358.3324 1050.661,362.38951 1056.5979,374.81072 1042.1758,369.07559 1040.4797,377.67487 1039.2437,383.94025 1044.2843,385.87576 1047.127,386.4743 L 1075.1147,387.3602 C 1083.2412,344.10411 1072.9077,294.27166 1049.2167,263.66812 1049.2167,263.66812 1039.0359,264.14369 1040.732,272.74293 1042.4283,281.34221 1056.8504,275.60712 1050.9135,288.02827 1046.8319,292.83552 1039.1809,295.08015 1032.3597,295.3267 1029.8418,295.4178 1027.4735,295.20185 1025.4038,294.77587 1025.3118,294.76487 1025.2152,294.74637 1025.1234,294.73447 1019.238,293.98804 1013.2679,291.75482 1009.8231,287.69771 1008.71,285.36874 1008.3066,283.6763 1008.4067,282.40981 1008.8401,276.92148 1018.6123,279.39927 1019.9905,272.41236 1021.5733,264.38889 1013.1066,263.48402 1011.9268,263.3926 L 967.7652,263.3926 967.7652,308.4087 C 967.0999,311.23138 965.076,315.88412 958.8598,314.70183 950.1022,313.03623 955.9429,298.88856 943.2931,304.71817 939.1614,308.10063 936.8869,313.96289 936.1268,319.74186 936.1148,319.83216 936.0958,319.92708 936.0848,320.01728 935.651,322.04964 935.431,324.37501 935.5237,326.84749 L 935.5237,326.84752 z"
         style="fill:#ff0000;stroke:#000000;stroke-width:6;stroke-miterlimit:4;stroke-opacity:1;stroke-dasharray:none"
         inkscape:connector-curvature="0" />
      <path
         sodipodi:nodetypes="ccscscscsccccccscscscscccc"
         id="path17750"
         d="M 73.6574,384.55923 73.6574,340.8651 C 73.7795,339.48601 74.795,331.51538 82.8291,333.0434 91.5866,334.70901 85.7461,348.85667 98.3958,343.02711 102.5277,339.64461 104.802,333.78234 105.5621,328.00337 105.5741,327.91317 105.5931,327.81815 105.6041,327.72795 106.0379,325.69563 106.2577,323.37028 106.1651,320.89773 105.9139,314.19999 103.628,306.68709 98.7323,302.67926 86.0824,296.84965 91.9231,311.01111 83.1655,312.67671 74.408,314.34231 73.9237,304.34548 73.9237,304.34548 L 74.01454,266.99914 C 69.396999,229.22383 12.10088,235.70665 7.7515203,267.27706 L -10.217657,266.87509 C -28.689757,306.11004 -34.9395,342.38424 -24.8854,387.3602 -24.8854,387.3602 -8.0046,384.24238 -8.0046,384.24238 -8.0046,384.24238 2.1761,383.76682 0.4799,375.16758 -1.2164,366.56829 -15.6384,372.30338 -9.7016,359.88222 -5.62,355.07498 2.0312,352.83035 8.8522,352.5838 11.3703,352.4928 13.7383,352.70864 15.8082,353.13463 15.9002,353.14563 15.9967,353.16413 16.0886,353.17603 21.974,353.92246 27.9441,356.15568 31.3889,360.21278 37.3258,372.63395 22.9176,366.89886 21.2214,375.49814 19.5519,383.96188 29.2833,384.54258 29.5938,384.55919 L 73.6574,384.55919 73.6573,384.55923 73.6574,384.55923 z"
         style="fill:#ff0000;stroke:#000000;stroke-width:6;stroke-miterlimit:4;stroke-opacity:1;stroke-dasharray:none"
         inkscape:connector-curvature="0" />
      <path
         id="path17752"
         d="M 178.8386,583.74045 C 172.0175,583.4939 164.3663,581.24927 160.2848,576.44203 154.3478,564.02087 168.77,569.75595 170.4662,561.15667 172.1625,552.55739 161.9816,552.08187 161.9816,552.08187 L 161.9816,552.08187 118.1145,552.08187 C 118.1145,552.08187 118.1695,509.36544 118.1695,509.36548 118.1695,509.36548 118.6538,499.36864 127.4114,501.03425 134.5269,502.38756 132.0036,511.99697 137.5928,512.42256 138.8827,512.52076 140.6062,512.12475 142.9781,511.0317 147.8738,507.02386 150.1597,499.51099 150.4108,492.81322 150.5038,490.34069 150.2837,488.01533 149.8499,485.98302 149.8389,485.89282 149.8199,485.79785 149.8079,485.70761 149.0476,479.92858 146.7733,474.06636 142.6416,470.68385 129.9918,464.85425 135.8324,479.01571 127.0749,480.68131 120.6942,481.89484 118.7231,476.94527 118.1134,474.15405 L 118.1134,428.8075 C 118.1134,428.8075 162.1349,429.15174 162.1349,429.15174 162.1349,429.15174 172.3157,429.6273 170.6194,438.22658 168.9233,446.82583 154.5152,441.09073 160.4521,453.51194 164.5337,458.31918 172.1709,460.56377 178.9919,460.81036 181.5098,460.90136 183.878,460.68552 185.9477,460.25953 186.0397,460.24853 186.1364,460.23003 186.2282,460.21813 192.1136,459.47164 198.0978,457.23847 201.5424,453.18133 207.4794,440.76016 193.0573,446.49525 191.361,437.89596 189.6648,429.29667 199.8456,428.82116 199.8456,428.82116 L 243.4604,428.80756 243.4604,473.79609 C 244.0826,476.5952 246.0644,481.48845 252.4077,480.28206 261.1652,478.61646 255.3245,464.45499 267.9744,470.2846 272.1061,473.66706 274.3804,479.54307 275.1406,485.3221 275.1526,485.4123 275.1716,485.49351 275.1826,485.58371 275.6165,487.61607 275.8363,489.94144 275.7435,492.41393 275.4925,499.11169 273.2065,506.62457 268.3109,510.63245 255.661,516.46202 261.5017,502.30056 252.7442,500.635 243.9867,498.96939 243.5023,508.96619 243.5023,508.96619 L 243.4603,552.08194 197.6157,552.08194 C 194.7411,552.73491 190.0026,554.72224 191.2067,560.8262 192.903,569.42549 207.311,563.6904 201.3742,576.11156 197.9294,580.16866 191.9593,582.40189 186.074,583.14836 185.982,583.15976 185.8853,583.17876 185.7934,583.18976 183.7237,583.61575 181.3555,583.83162 178.8375,583.74058 z"
         style="fill:#ff0000;stroke:#000000;stroke-width:6;stroke-miterlimit:4;stroke-opacity:1;stroke-dasharray:none"
         inkscape:connector-curvature="0" />
      <path
         id="path17754"
         d="M 179.887,417.44634 C 173.066,417.19979 165.4149,414.95516 161.3333,410.14791 155.3963,397.72676 169.8185,403.46185 171.5148,394.86257 173.2109,386.26327 163.0302,385.78776 163.0302,385.78776 L 163.0302,385.78776 119.1629,385.78776 C 119.1629,385.78776 119.2199,343.07133 119.2199,343.07138 119.2199,343.07138 119.7043,333.07454 128.4618,334.74013 135.5774,336.09344 133.0539,345.70286 138.6433,346.12845 139.9331,346.22665 141.6567,345.83065 144.0285,344.7376 148.9243,340.72976 151.2101,333.21688 151.4613,326.51912 151.5543,324.04658 151.3341,321.72122 150.9003,319.6889 150.8893,319.5987 150.8703,319.50374 150.8583,319.41349 150.0982,313.63446 147.8239,307.77224 143.692,304.38975 131.0422,298.56014 136.8828,312.7216 128.1253,314.3872 121.7445,315.60073 119.7736,310.65116 119.164,307.85994 L 119.164,262.51338 C 119.164,262.51338 163.1854,262.85763 163.1854,262.85763 163.1854,262.85763 173.3663,263.33318 171.67,271.93247 169.9737,280.53172 155.5656,274.79663 161.5025,287.21784 165.5842,292.02507 173.2213,294.26966 180.0422,294.51626 182.5604,294.60726 184.9285,294.39141 186.9983,293.96543 187.0903,293.95443 187.1868,293.93593 187.2787,293.92403 193.164,293.17756 199.1482,290.94439 202.5929,286.88724 208.5299,274.46607 194.1077,280.20116 192.4114,271.60187 190.7152,263.00259 200.896,262.52707 200.896,262.52707 L 244.5108,262.51347 C 244.5108,262.51347 244.2303,305.80824 244.2303,305.80824 244.2303,305.80824 243.746,315.80503 234.9885,314.13942 226.2308,312.47382 232.0715,298.3124 219.4218,304.14197 214.526,308.14981 212.2402,315.66269 211.989,322.36049 211.896,324.83298 212.1162,327.15834 212.55,329.19071 212.561,329.28081 212.58,329.37583 212.592,329.46612 213.3521,335.24509 215.6264,341.10736 219.7583,344.48982 222.13,345.58287 223.8536,345.97884 225.1435,345.88066 230.7328,345.45508 228.2094,335.85942 235.325,334.50616 243.496,332.95208 244.4175,341.26574 244.5106,342.42422 L 244.5106,385.78785 198.6661,385.78785 C 195.7914,386.44082 191.0531,388.42815 192.2571,394.53212 193.9534,403.13139 208.3615,397.39631 202.4245,409.81747 198.9797,413.87458 193.0096,416.1078 187.1243,416.85427 187.0323,416.86567 186.9356,416.88467 186.8439,416.89567 184.7742,417.32165 182.406,417.53753 179.8879,417.44649 z"
         style="fill:#ff0000;stroke:#000000;stroke-width:6;stroke-miterlimit:4;stroke-opacity:1;stroke-dasharray:none"
         inkscape:connector-curvature="0" />
      <path
         sodipodi:nodetypes="ccccccscscscscccscscscccc"
         id="path17756"
         d="M 105.1147,123.3602 C 81.6753,137.15835 40.1147,158.3602 21.1861,198.71735 L 40.1147,198.3602 C 42.4245,162.69863 112.5893,166.89573 105.1147,203.3602 L 104.4048,199.88917 149.997,199.88917 C 152.78,200.42603 158.183,202.308 156.9109,208.75744 155.2146,217.35673 140.8066,211.62164 146.7434,224.04279 150.1882,228.09995 156.1583,230.33316 162.0437,231.07958 162.1357,231.09108 162.2323,231.10998 162.3242,231.12098 164.394,231.54696 166.762,231.76285 169.2801,231.67181 176.1011,231.42525 183.7523,229.18063 187.8338,224.37339 193.7708,211.95222 179.3487,217.68731 177.6523,209.08804 175.9562,200.48879 186.137,200.01322 186.137,200.01322 L 229.7518,199.88928 229.7518,154.90076 C 230.3739,152.10164 232.3558,147.20839 238.6991,148.41478 247.4566,150.08039 241.616,164.24185 254.2657,158.41223 258.3975,155.02977 260.6719,149.15376 261.432,143.37475 261.443,143.28455 261.463,143.20333 261.474,143.11313 261.9079,141.08077 262.1277,138.7554 262.035,136.28291 261.7839,129.58515 260.0103,127.3681 255.1146,123.36021 233.0987,113.74471 167.0905,95.50716 105.1146,123.36021 L 105.1146,123.3602 105.1147,123.3602 z"
         style="fill:#ff0000;stroke:#000000;stroke-width:6;stroke-miterlimit:4;stroke-opacity:1;stroke-dasharray:none"
         inkscape:connector-curvature="0" />
      <path
         sodipodi:nodetypes="cccccscscscscccscscscsccc"
         id="path17758"
         d="M 794.0499,712.9606 846.8723,713.35005 C 857.2733,705.91494 927.65,627.95114 971.1147,589.3602 L 919.5931,589.87901 873.7766,589.87901 C 870.926,589.26811 865.9426,587.32202 867.1712,581.09344 868.8675,572.4942 883.2896,578.2292 877.3527,565.80808 873.908,561.751 867.9238,559.51769 862.0385,558.77129 861.9465,558.76039 861.8639,558.74079 861.772,558.72989 859.7023,558.30391 857.3341,558.08809 854.8161,558.17907 847.9951,558.42559 840.3439,560.67033 836.2623,565.47751 830.3254,577.89874 844.7475,572.16352 846.4437,580.76287 848.14,589.36211 837.9592,589.83761 837.9592,589.83761 L 794.0499,589.87901 C 794.0499,589.87901 794.3725,632.77453 794.3725,632.77453 794.3725,632.77453 794.8568,642.77123 803.6143,641.10571 812.3719,639.44008 806.5312,625.27867 819.181,631.10825 824.0767,635.11603 826.3626,642.62898 826.6137,649.32674 826.7067,651.79928 826.4866,654.12456 826.0528,656.15696 826.0418,656.24726 826.0228,656.34209 826.0108,656.43232 825.2506,662.2114 822.9763,668.07363 818.8445,671.45615 806.1947,677.28573 812.0354,663.13792 803.2778,661.4724 794.6583,659.83301 794.0669,669.38859 794.05,669.69344 L 794.05,712.96075 794.05,712.9606 z"
         style="fill:#ff0000;stroke:#000000;stroke-width:6;stroke-miterlimit:4;stroke-opacity:1;stroke-dasharray:none"
         inkscape:connector-curvature="0" />
      <path
         id="path17760"
         d="M 348.0273,232.22829 C 341.2063,232.47483 333.555,234.71946 329.4734,239.5267 323.5365,251.94787 337.9587,246.21277 339.6548,254.81206 341.3512,263.41135 331.1703,263.88687 331.1703,263.88687 L 331.1703,263.88687 287.3032,263.88687 287.3032,307.58097 C 287.181,308.96007 286.1656,316.9307 278.1315,315.40267 269.3739,313.73706 275.2146,299.5894 262.5648,305.41897 258.433,308.80146 256.1587,314.66373 255.3984,320.44271 255.3874,320.53291 255.3674,320.62792 255.3564,320.71813 254.9226,322.75045 254.7028,325.0758 254.7955,327.54834 255.0465,334.24609 257.3325,341.75898 262.2282,345.76683 274.878,351.59643 269.0373,337.43497 277.7949,335.76936 286.5525,334.10376 287.0367,344.1006 287.0367,344.1006 L 287.3032,387.16123 C 287.3032,387.16123 331.3246,386.817 331.3246,386.817 331.3246,386.817 341.5054,386.34144 339.8093,377.74214 338.113,369.1429 323.7049,374.878 329.6418,362.45679 333.7234,357.64955 341.3604,355.40496 348.1816,355.15837 350.6995,355.06737 353.0677,355.28322 355.1374,355.70919 355.2294,355.72029 355.3261,355.73869 355.4179,355.75059 361.3034,356.49702 367.2875,358.73019 370.7322,362.78734 376.6691,375.2085 362.247,369.47341 360.5508,378.0727 358.8545,386.67198 369.0353,387.14751 369.0353,387.14755 L 412.6501,387.16115 C 412.6501,387.16115 412.3696,343.8664 412.3696,343.8664 412.3696,343.8664 411.8852,333.86959 403.1277,335.5352 394.3702,337.2008 400.2108,351.36224 387.561,345.53266 382.6654,341.52482 380.3794,334.01193 380.1283,327.31413 380.0353,324.84163 380.2554,322.51628 380.6892,320.48391 380.7002,320.39381 380.7192,320.29879 380.7312,320.2085 381.4914,314.42952 383.7657,308.56725 387.8974,305.18481 390.2694,304.09174 391.9929,303.69577 393.2828,303.79396 398.8721,304.21954 396.3487,313.81519 403.4642,315.16846 411.6354,316.72254 412.5568,308.40889 412.6499,307.25038 L 412.6499,263.88677 366.8053,263.88677 C 363.9308,263.23381 359.1923,261.24648 360.3964,255.14251 362.0927,246.54323 376.5007,252.27832 370.5638,239.85715 367.1191,235.80005 361.1489,233.56683 355.2637,232.82035 355.1717,232.80895 355.075,232.78985 354.9831,232.77895 352.9133,232.35297 350.5452,232.13708 348.0272,232.22812 z"
         style="fill:#ff0000;stroke:#000000;stroke-width:6;stroke-miterlimit:4;stroke-opacity:1;stroke-dasharray:none"
         inkscape:connector-curvature="0" />
      <path
         sodipodi:nodetypes="ccscccccccscscscscccscscscscccscsccc"
         id="path17762"
         d="M 614.2447,322.33147 C 613.9936,315.6337 611.7076,308.12076 606.8119,304.11287 594.1622,298.28329 600.0028,312.4447 591.2453,314.11033 582.4877,315.77595 582.0034,305.77915 582.0034,305.77915 L 582.0034,305.77915 582.0034,262.70466 C 582.0034,262.70466 538.5009,262.75906 538.5009,262.75906 L 502.6273,262.70386 456.4602,262.70386 456.4602,307.47206 C 455.9135,310.20472 453.9969,315.51025 447.4287,314.26104 438.6712,312.59541 444.5119,298.44771 431.862,304.27729 427.7303,307.6597 425.456,313.52204 424.6958,319.30112 424.6838,319.39142 424.6648,319.48625 424.6538,319.57648 424.22,321.60877 424.0001,323.93416 424.0929,326.4067 424.3439,333.10446 426.6299,340.6173 431.5256,344.62519 444.1754,350.45477 438.3347,336.29336 447.0922,334.62773 455.8497,332.9621 456.3341,342.95891 456.3341,342.95891 L 456.4603,385.78543 502.2768,385.78543 C 505.1275,386.39643 510.1107,388.34253 508.8821,394.57111 507.1858,403.17034 492.7638,397.43534 498.7007,409.85642 502.1454,413.9135 508.1296,416.14671 514.0149,416.8931 514.1069,416.9051 514.1895,416.9236 514.2814,416.9345 516.3511,417.36059 518.7193,417.57642 521.2373,417.48543 528.0583,417.23892 535.7095,414.99417 539.7911,410.187 545.728,397.76581 531.3059,403.50103 529.6097,394.90168 527.9134,386.30255 538.0942,385.82694 538.0942,385.82694 L 582.0034,385.78554 582.0034,340.76945 C 582.6685,337.94679 584.6924,333.29405 590.9087,334.47634 599.6663,336.14197 593.8256,350.28966 606.4754,344.45997 610.6072,341.07757 612.8815,335.21523 613.6417,329.43636 613.6537,329.34606 613.6727,329.25112 613.6837,329.1609 614.1175,327.1286 614.3373,324.80322 614.2446,322.33068 L 614.2447,322.33149 z"
         style="fill:#ff0000;stroke:#000000;stroke-width:6;stroke-miterlimit:4;stroke-opacity:1;stroke-dasharray:none"
         inkscape:connector-curvature="0" />
      <path
         id="path17764"
         d="M 443.9652,493.93469 C 443.7141,500.63246 441.4282,508.14541 436.5324,512.15318 423.8827,517.98287 429.7233,503.82135 420.9658,502.15573 412.2082,500.4901 411.7239,510.48701 411.7239,510.48701 L 411.7239,510.48701 411.7239,553.56135 C 411.7239,553.56135 368.2213,553.50695 368.2214,553.50695 368.2214,553.50695 358.0406,553.03144 359.7368,544.43209 361.115,537.44515 370.9013,539.92291 371.3347,534.43464 371.4347,533.16811 371.0314,531.47571 369.9183,529.14673 365.8367,524.33945 358.1855,522.09492 351.3645,521.8483 348.8464,521.7569 346.4783,521.97314 344.4086,522.39912 344.3166,522.41002 344.22,522.42852 344.1281,522.44052 338.2427,523.18702 332.2726,525.42023 328.8278,529.47731 322.8909,541.89843 337.313,536.16343 339.0093,544.76267 340.2452,551.02803 335.2045,552.96357 332.3619,553.56217 L 286.1808,553.56217 C 286.1808,553.56217 286.5313,510.33622 286.5313,510.33622 286.5313,510.33622 287.0157,500.33941 295.7732,502.00504 304.5307,503.67056 298.6901,517.81825 311.3399,511.98867 316.2356,507.98079 318.5215,500.48166 318.7726,493.7839 318.8656,491.31147 318.6455,488.98608 318.2117,486.95378 318.2007,486.86348 318.1817,486.76855 318.1697,486.67832 317.4094,480.89935 315.1352,475.02329 311.0034,471.64089 298.3536,465.8112 304.1942,479.97272 295.4367,481.63834 286.6791,483.30386 286.1948,473.30706 286.1948,473.30706 L 286.1808,430.48043 331.9974,430.48043 C 334.848,429.86953 339.8313,427.92354 338.6027,421.69486 336.9064,413.09562 322.4843,418.83073 328.4213,406.4095 331.866,402.35242 337.8501,400.11922 343.7355,399.37282 343.8275,399.36082 343.9101,399.34232 344.0019,399.33142 346.0717,398.90533 348.4399,398.68951 350.9579,398.7806 357.7789,399.02712 365.43,401.27175 369.5117,406.07893 375.4485,418.50016 361.0264,412.76505 359.3302,421.36429 357.634,429.96353 367.8147,430.43914 367.8147,430.43914 L 411.724,430.48054 411.724,475.49662 C 412.389,478.31928 414.4129,482.97213 420.6292,481.78984 429.3868,480.12422 423.5461,465.97652 436.1959,471.8061 440.3277,475.18862 442.602,481.05085 443.3622,486.82982 443.3742,486.92012 443.3932,487.01506 443.4042,487.10528 443.838,489.13758 444.0579,491.46297 443.9652,493.9355 z"
         style="fill:#ff0000;stroke:#000000;stroke-width:6;stroke-miterlimit:4;stroke-opacity:1;stroke-dasharray:none"
         inkscape:connector-curvature="0" />
      <path
         id="path17766"
         d="M 592.8106,492.74305 C 593.0617,499.44081 595.3476,506.95376 600.2433,510.96165 612.8931,516.79123 607.0524,502.62982 615.8099,500.96419 624.5675,499.29856 625.0518,509.29537 625.0518,509.29537 L 625.0518,509.29537 625.0518,552.36986 C 625.0518,552.36986 668.5544,552.31546 668.5544,552.31546 668.5544,552.31546 678.7352,551.83996 677.0389,543.24068 675.3426,534.64133 660.9206,540.37655 666.8574,527.95532 670.939,523.14814 678.5902,520.9034 685.4113,520.65688 687.9293,520.56548 690.2974,520.78172 692.3672,521.2077 692.4592,521.2186 692.5557,521.2371 692.6477,521.2491 698.533,521.9955 704.5032,524.22881 707.9479,528.28589 713.8848,540.70712 699.4627,534.9719 697.7665,543.57125 696.5303,549.83829 701.5866,551.77274 704.4279,552.37068 L 750.595,552.37068 750.595,507.60248 C 751.1417,504.86983 753.0583,499.56429 759.6265,500.81351 768.384,502.47914 762.5433,516.62684 775.1932,510.79725 779.3249,507.41485 781.5993,501.55251 782.3594,495.77343 782.3714,495.68313 782.3904,495.5883 782.4014,495.49807 782.8353,493.46578 783.0551,491.14039 782.9624,488.66785 782.7113,481.97009 780.4253,474.45725 775.5296,470.44936 762.8798,464.61978 768.7205,478.78119 759.963,480.44682 751.2055,482.11244 750.7212,472.11564 750.7212,472.11564 L 750.5949,429.28912 704.7784,429.28912 C 701.9278,428.67811 696.9445,426.73202 698.1731,420.50344 699.8694,411.9042 714.2914,417.63921 708.3546,405.21813 704.9098,401.16105 698.9256,398.92784 693.0403,398.18144 692.9483,398.16944 692.8657,398.15094 692.7738,398.14004 690.7041,397.71394 688.3359,397.49812 685.8179,397.58911 678.9969,397.83562 671.3457,400.08036 667.2641,404.88754 661.3272,417.30873 675.7493,411.57351 677.4456,420.17286 679.1418,428.77199 668.961,429.2476 668.961,429.2476 L 625.0518,429.289 625.0518,474.30508 C 624.3867,477.12775 622.3628,481.78048 616.1465,480.5982 607.3889,478.93257 613.2296,464.78488 600.5798,470.61457 596.4481,473.99697 594.1737,479.85931 593.4135,485.63818 593.4015,485.72848 593.3825,485.82341 593.3715,485.91364 592.9377,487.94593 592.7179,490.27132 592.8106,492.74386 z"
         style="fill:#ff0000;stroke:#000000;stroke-width:6;stroke-miterlimit:4;stroke-opacity:1;stroke-dasharray:none"
         inkscape:connector-curvature="0" />
      <path
         id="path17768"
         d="M 515.7462,584.1376 C 508.9251,583.89106 501.274,581.64642 497.1925,576.83918 491.2555,564.41803 505.6777,570.15312 507.3739,561.55383 509.0701,552.95454 498.8893,552.47902 498.8893,552.47902 L 498.8893,552.47902 455.0221,552.47902 C 455.0221,552.47902 455.0781,509.7626 455.0781,509.76264 455.0781,509.76264 455.5625,499.76581 464.32,501.4314 471.4355,502.78471 468.9121,512.39412 474.5014,512.81972 475.7913,512.91792 477.5148,512.52192 479.8867,511.42887 484.7824,507.42103 487.0683,499.90814 487.3194,493.21039 487.4124,490.73785 487.1923,488.41249 486.7585,486.38017 486.7475,486.28997 486.7285,486.19501 486.7165,486.10476 485.9563,480.32573 483.682,474.46351 479.5502,471.08102 466.9003,465.2514 472.741,479.41287 463.9835,481.07846 457.6027,482.292 455.6317,477.34243 455.0221,474.55121 L 455.0221,429.20465 C 455.0221,429.20465 499.0435,429.54889 499.0435,429.54889 499.0435,429.54889 509.2244,430.02445 507.5282,438.62374 505.8319,447.22299 491.4238,441.4879 497.3607,453.90911 501.4423,458.71634 509.0795,460.96093 515.9004,461.20753 518.4185,461.29853 520.7866,461.08268 522.8564,460.6567 522.9484,460.6457 523.0449,460.6272 523.1368,460.6153 529.0222,459.86883 535.0064,457.63565 538.451,453.57851 544.388,441.15734 529.9658,446.89243 528.2696,438.29314 526.5734,429.69386 536.7542,429.21834 536.7542,429.21834 L 580.3689,429.20474 C 580.3689,429.20474 580.0885,472.4995 580.0885,472.4995 580.0885,472.4995 579.6041,482.4963 570.8466,480.83069 562.089,479.16509 567.9297,465.00367 555.2799,470.83324 550.3842,474.84108 548.0984,482.35396 547.8472,489.05176 547.7542,491.52425 547.9743,493.84961 548.4081,495.88198 548.4191,495.97208 548.4381,496.0671 548.4501,496.15739 549.2103,501.93636 551.4846,507.79863 555.6164,511.18108 557.9882,512.27414 559.7117,512.67011 561.0017,512.57193 566.5909,512.14635 564.0676,502.55069 571.1831,501.19743 579.3542,499.64335 580.2757,507.957 580.3688,509.11549 L 580.3688,552.47911 534.5242,552.47911 C 531.6496,553.13209 526.9112,555.11942 528.1153,561.22339 529.8116,569.82266 544.2196,564.08758 538.2827,576.50874 534.8379,580.56585 528.8678,582.79907 522.9824,583.54554 522.8904,583.55694 522.7938,583.57594 522.702,583.58694 520.6323,584.01292 518.2641,584.2288 515.7461,584.13776 z"
         style="fill:#ff0000;stroke:#000000;stroke-width:6;stroke-miterlimit:4;stroke-opacity:1;stroke-dasharray:none"
         inkscape:connector-curvature="0" />
      <path
         id="path17770"
         d="M 627.2687,384.29754 C 627.2687,384.29754 670.7712,384.24244 670.7712,384.24244 670.7712,384.24244 680.952,383.76688 679.2557,375.1676 677.8776,368.18068 668.0912,370.65847 667.6579,365.17014 667.5579,363.90364 667.9611,362.21121 669.0743,359.88224 673.1559,355.075 680.807,352.83041 687.6282,352.58382 690.1461,352.49282 692.5142,352.7087 694.584,353.13464 694.676,353.14574 694.7725,353.16414 694.8645,353.17604 700.7499,353.92247 706.72,356.15565 710.1648,360.2128 716.1016,372.63396 701.6795,366.89887 699.9833,375.49815 698.7473,381.76353 703.7881,383.699 706.6307,384.29759 L 752.8119,384.29759 752.8119,339.52936 C 753.3585,336.79674 755.2751,331.49125 761.8434,332.74048 770.6009,334.40604 764.7602,348.55375 777.41,342.72413 781.5418,339.34168 783.8161,333.47942 784.5763,327.70044 784.5883,327.61014 784.6073,327.51519 784.6183,327.42503 785.0522,325.39267 785.2719,323.06731 785.1793,320.59481 784.9281,313.89701 782.6422,306.38412 777.7465,302.37628 765.0967,296.54667 770.9374,310.70813 762.1799,312.37374 753.4222,314.03934 752.938,304.04255 752.938,304.04255 L 752.8117,261.21601 706.9953,261.21601 C 704.1446,260.60508 699.1613,258.659 700.39,252.43037 702.0861,243.83108 716.5083,249.56617 710.5713,237.14501 707.1267,233.0879 701.1425,230.85469 695.2571,230.10821 695.1651,230.09681 695.0825,230.07781 694.9908,230.06681 692.921,229.64087 690.5528,229.42499 688.0347,229.51599 681.2137,229.76258 673.5626,232.00716 669.4809,236.8144 663.5441,249.23561 677.9661,243.50052 679.6624,252.09976 681.3587,260.69905 671.1779,261.1746 671.1779,261.1746 L 627.2687,261.216 C 627.2687,261.216 627.5912,304.11137 627.5912,304.11137 627.5912,304.11137 628.0755,314.1082 636.833,312.44261 645.5906,310.77701 639.7499,296.61554 652.3996,302.44516 657.2954,306.453 659.5814,313.96588 659.8324,320.66364 659.9254,323.13617 659.7053,325.46152 659.2714,327.49384 659.2604,327.58404 659.2414,327.67901 659.2294,327.76925 658.4693,333.54828 656.195,339.41055 652.0633,342.793 639.4134,348.62262 645.2541,334.4749 636.4966,332.8093 627.8773,331.17 627.2857,340.72551 627.2688,341.03036 L 627.2688,384.29758 z"
         style="fill:#ff0000;stroke:#000000;stroke-width:6;stroke-miterlimit:4;stroke-opacity:1;stroke-dasharray:none"
         inkscape:connector-curvature="0" />
      <path
         id="path17772"
         d="M 683.3803,558.09918 C 676.5593,558.34572 668.9081,560.59035 664.8266,565.39759 658.8896,577.81876 673.3118,572.08366 675.0079,580.68296 676.7042,589.28224 666.5234,589.75779 666.5234,589.75779 L 666.5234,589.75779 622.6562,589.75779 C 622.6562,589.75779 622.7122,632.47418 622.7122,632.47418 622.7122,632.47418 623.1966,642.47097 631.9541,640.80537 640.7117,639.13976 634.871,624.97835 647.5207,630.80791 652.4165,634.8158 654.7023,642.32864 654.9535,649.02644 655.0465,651.49893 654.8264,653.82429 654.3925,655.85665 654.3815,655.94685 654.3625,656.04182 654.3505,656.13205 653.5904,661.91104 651.3161,667.7733 647.1844,671.15576 634.5345,676.98537 640.3752,662.8239 631.6177,661.15831 625.2353,659.94447 623.2653,664.90947 622.6562,667.69936 L 622.6562,713.03216 668.2484,713.03216 C 671.0313,713.56898 676.4345,715.45098 675.1622,721.90043 673.4661,730.49971 659.0579,724.76458 664.9949,737.18579 668.4396,741.2429 674.4098,743.47611 680.2951,744.22254 680.3871,744.23454 680.4837,744.25304 680.5755,744.26394 682.6452,744.68993 685.0134,744.9058 687.5315,744.81475 694.3525,744.56822 702.0037,742.32359 706.0852,737.51634 712.0222,725.09519 697.6,730.83028 695.9038,722.23098 694.2075,713.63174 704.3883,713.15619 704.3883,713.15619 L 748.0031,713.03227 748.0031,668.04371 C 748.6252,665.2446 750.6072,660.35135 756.9505,661.55778 765.708,663.22339 759.8673,677.38484 772.5172,671.55524 776.6489,668.17274 778.9232,662.29673 779.6834,656.51774 779.6954,656.42754 779.7144,656.34628 779.7254,656.25608 780.1592,654.22376 780.3791,651.89841 780.2864,649.42587 780.0353,642.72812 777.7493,635.21523 772.8537,631.20738 760.2038,625.37778 766.0445,639.53924 757.287,641.20485 748.5295,642.87045 748.0451,632.87362 748.0451,632.87362 L 748.0031,589.75791 702.1585,589.75791 C 699.2839,589.10485 694.5454,587.11752 695.7495,581.01355 697.4458,572.41427 711.8538,578.14936 705.917,565.72819 702.4722,561.67108 696.5021,559.43787 690.6168,558.6914 690.5248,558.6799 690.4281,558.6609 690.3363,558.65 688.2665,558.22401 685.8984,558.00813 683.3803,558.09917 z"
         style="fill:#ff0000;stroke:#000000;stroke-width:6;stroke-miterlimit:4;stroke-opacity:1;stroke-dasharray:none"
         inkscape:connector-curvature="0" />
      <path
         id="path17774"
         d="M 860.6627,230.05157 C 853.8417,230.29811 846.1906,232.54275 842.109,237.34999 836.1721,249.77114 850.5942,244.03605 852.2905,252.63534 853.9867,261.23463 843.8059,261.71015 843.8059,261.71015 L 843.8059,261.71015 799.9387,261.71015 C 799.9387,261.71015 799.9947,304.42657 799.9947,304.42653 799.9947,304.42653 800.479,314.42336 809.2365,312.75777 816.3521,311.40446 813.8286,301.79505 819.418,301.36945 820.7078,301.27125 822.4314,301.66725 824.8032,302.7603 829.699,306.76814 831.9848,314.28103 832.236,320.97878 832.329,323.45132 832.1088,325.77668 831.675,327.809 831.664,327.8992 831.645,327.99416 831.633,328.08441 830.8729,333.86344 828.5986,339.72566 824.4667,343.10815 811.8169,348.93777 817.6575,334.7763 808.9,333.11071 802.5193,331.89717 800.5483,336.84674 799.9387,339.63796 L 799.9387,384.98452 C 799.9387,384.98452 843.9601,384.64028 843.9601,384.64028 843.9601,384.64028 854.141,384.16472 852.4447,375.56543 850.7484,366.96618 836.3403,372.70127 842.2772,360.28006 846.3589,355.47283 853.996,353.22824 860.8169,352.98164 863.3351,352.89064 865.7032,353.10649 867.773,353.53247 867.865,353.54347 867.9615,353.56197 868.0534,353.57387 873.9387,354.32034 879.9229,356.55352 883.3676,360.61066 889.3046,373.03183 874.8824,367.29674 873.1861,375.89603 871.49,384.49531 881.6707,384.97083 881.6707,384.97083 L 925.2855,384.98443 C 925.2855,384.98443 925.005,341.68967 925.005,341.68967 925.005,341.68967 924.5207,331.69287 915.7632,333.35848 907.0056,335.02408 912.8462,349.1855 900.1965,343.35593 895.3007,339.34809 893.0149,331.83521 892.7637,325.13741 892.6707,322.66492 892.8909,320.33956 893.3247,318.30719 893.3357,318.21709 893.3547,318.12207 893.3667,318.03178 894.1268,312.25281 896.4011,306.39054 900.533,303.00809 902.9047,301.91503 904.6283,301.51906 905.9182,301.61724 911.5075,302.04282 908.9842,311.63848 916.0997,312.99174 924.2707,314.54582 925.1923,306.23217 925.2854,305.07368 L 925.2854,261.71006 879.4408,261.71006 C 876.5662,261.05708 871.8278,259.06975 873.0318,252.96578 874.7281,244.36651 889.1362,250.10159 883.1992,237.68043 879.7545,233.62332 873.7843,231.3901 867.899,230.64363 867.807,230.63223 867.7104,230.61323 867.6186,230.60223 865.5489,230.17625 863.1807,229.96037 860.6626,230.05141 z"
         style="fill:#ff0000;stroke:#000000;stroke-width:6;stroke-miterlimit:4;stroke-opacity:1;stroke-dasharray:none"
         inkscape:connector-curvature="0" />
      <path
         sodipodi:nodetypes="ccscscscscccccccscscscsccc"
         id="path17776"
         d="M 621.3659,753.57552 621.3659,797.26962 C 621.2438,798.6487 620.2284,806.61933 612.1941,805.09132 603.4367,803.42573 609.2773,789.27804 596.6274,795.10764 592.4957,798.49011 590.2215,804.35238 589.4612,810.13136 589.4492,810.22156 589.4302,810.31657 589.4192,810.40676 588.9854,812.43911 588.7655,814.76447 588.8583,817.23698 589.1093,823.93476 591.3953,831.44763 596.291,835.45548 608.9408,841.28507 603.1001,827.12363 611.8577,825.45803 620.6152,823.79243 621.0995,833.78924 621.0995,833.78924 L 621.366,876.84989 C 621.366,876.84989 665.3874,876.50562 665.3874,876.50563 666.4785,887.05968 691.5766,862.48412 703.1148,851.3602 711.2675,842.49402 717.3924,836.08649 743.1148,811.3602 L 803.1148,751.3602 C 803.1148,751.3602 703.0279,753.89237 703.0279,753.89237 703.0279,753.89237 692.847,754.3679 694.5434,762.96718 696.2396,771.56646 710.6617,765.83137 704.7248,778.25254 700.6432,783.05978 692.992,785.30439 686.171,785.55096 683.6529,785.64196 681.2847,785.42612 679.215,785.00013 679.123,784.98903 679.0265,784.97063 678.9346,784.95873 673.0493,784.21229 667.0791,781.97909 663.6344,777.92198 657.6975,765.50078 672.1056,771.2359 673.8018,762.63662 675.4712,754.17306 665.7399,753.59217 665.4294,753.57556 L 621.3659,753.57556 621.366,753.57552 z"
         style="fill:#ff0000;stroke:#000000;stroke-width:6;stroke-miterlimit:4;stroke-opacity:1;stroke-dasharray:none"
         inkscape:connector-curvature="0" />
      <path
         id="path17778"
         d="M 859.6143,397.72677 C 852.7933,397.97331 845.142,400.21795 841.0605,405.02519 835.1235,417.44634 849.5457,411.71126 851.242,420.31055 852.9382,428.90983 842.7573,429.38535 842.7573,429.38535 L 842.7573,429.38535 798.8902,429.38535 C 798.8902,429.38535 798.9452,472.10178 798.9452,472.10174 798.9452,472.10174 799.4295,482.09857 808.1871,480.43297 815.3026,479.07966 812.7793,469.47025 818.3686,469.04465 819.6584,468.94645 821.3819,469.34246 823.7538,470.43551 828.6496,474.44335 830.9354,481.95623 831.1865,488.65399 831.2795,491.12653 831.0594,493.45188 830.6256,495.4842 830.6146,495.5744 830.5956,495.66936 830.5836,495.75961 829.8233,501.53864 827.549,507.40086 823.4173,510.78336 810.7676,516.61297 816.6081,502.45151 807.8506,500.78591 801.4699,499.57237 799.4988,504.52195 798.8892,507.31317 L 798.8892,552.65971 C 798.8892,552.65971 842.9106,552.31548 842.9106,552.31548 842.9106,552.31548 853.0914,551.83992 851.3952,543.24063 849.699,534.64138 835.2909,540.37648 841.2278,527.95527 845.3094,523.14803 852.9466,520.90344 859.7676,520.65685 862.2855,520.56585 864.6537,520.7817 866.7234,521.20768 866.8154,521.21868 866.9121,521.23718 867.004,521.24908 872.8893,521.99556 878.8735,524.22874 882.3181,528.28588 888.2551,540.70705 873.833,534.97196 872.1367,543.57124 870.4405,552.17054 880.6213,552.64605 880.6213,552.64605 L 924.2361,552.65965 924.2361,507.67112 C 924.8583,504.87201 926.8401,499.97875 933.1834,501.18515 941.9409,502.85075 936.1002,517.01222 948.7501,511.1826 952.8818,507.80014 955.1561,501.92413 955.9163,496.1451 955.9283,496.0549 955.9473,495.9737 955.9583,495.8835 956.3922,493.85114 956.612,491.52577 956.5192,489.05328 956.2682,482.35552 953.9822,474.84264 949.0866,470.83475 936.4367,465.00518 942.2774,479.16665 933.5199,480.83221 924.7624,482.49781 924.278,472.50102 924.278,472.50102 L 924.236,429.38527 878.3915,429.38527 C 875.5168,428.73229 870.7784,426.74497 871.9824,420.641 873.6787,412.04172 888.0868,417.77681 882.1499,405.35564 878.7051,401.29854 872.735,399.06532 866.8497,398.31884 866.7577,398.30744 866.661,398.28844 866.5691,398.27744 864.4994,397.85146 862.1313,397.63558 859.6132,397.72663 z"
         style="fill:#ff0000;stroke:#000000;stroke-width:6;stroke-miterlimit:4;stroke-opacity:1;stroke-dasharray:none"
         inkscape:connector-curvature="0" />
      <path
         sodipodi:nodetypes="ccccscscscscccscscscccc"
         id="path17780"
         d="M 675.1147,143.3602 C 657.4607,149.14656 573.9902,198.48995 563.6862,209.78878 L 628.9665,208.69041 C 628.9665,208.69041 672.9879,208.34616 672.9879,208.34616 672.9879,208.34616 683.1688,207.8706 681.4725,199.27132 679.7762,190.67208 665.3682,196.40717 671.305,183.98596 675.3867,179.17872 683.0238,176.93414 689.8448,176.68754 692.3629,176.59654 694.731,176.81238 696.8008,177.23837 696.8928,177.24947 696.9893,177.26787 697.0812,177.27977 702.9666,178.02625 708.9508,180.25942 712.3954,184.31657 718.3324,196.73772 703.9102,191.00263 702.2141,199.60192 700.5178,208.20121 710.6986,208.67671 710.6986,208.67671 L 754.3133,208.69041 754.3133,163.70188 C 754.9356,160.90278 756.9175,156.00953 763.2607,157.21592 772.0182,158.88152 766.1775,173.04298 778.8274,167.21338 782.9592,163.83092 785.2335,157.95491 785.9937,152.17589 786.0057,152.08569 786.0247,152.00446 786.0357,151.91426 786.4695,149.88194 786.6894,147.55654 786.5966,145.08404 786.3456,138.38629 785.1146,128.3602 779.1639,126.86553 L 760.1146,123.3602 C 725.1146,123.3602 700.4938,134.62473 675.1146,143.3602 L 675.1147,143.3602 z"
         style="fill:#ff0000;stroke:#000000;stroke-width:6;stroke-miterlimit:4;stroke-opacity:1;stroke-dasharray:none"
         inkscape:connector-curvature="0" />
      <path
         id="path17782"
         d="M 344.5653,558.85853 C 337.7443,559.10507 330.0931,561.34971 326.0114,566.15695 320.0746,578.57811 334.4967,572.84301 336.1929,581.44231 337.8892,590.04159 327.7084,590.51711 327.7084,590.51711 L 327.7084,590.51711 283.8412,590.51711 283.8412,634.21123 C 283.719,635.5903 282.7035,643.56095 274.6695,642.03292 265.912,640.36732 271.7525,626.21965 259.1028,632.04926 254.971,635.43171 252.6966,641.29398 251.9365,647.07296 251.9245,647.16326 251.9055,647.25817 251.8945,647.34837 251.4606,649.38073 251.2407,651.70609 251.3334,654.17859 251.5846,660.87639 253.8705,668.38927 258.7663,672.3971 271.416,678.22667 265.5754,664.06526 274.333,662.39966 283.0905,660.73405 283.5747,670.73084 283.5747,670.73084 L 283.8412,713.79152 329.4333,713.79152 C 332.2162,714.32833 337.6194,716.21034 336.3472,722.65979 334.6509,731.25906 320.2428,725.52393 326.1797,737.94514 329.6245,742.00225 335.5946,744.23546 341.4799,744.9819 341.5719,744.9934 341.6686,745.0124 341.7605,745.0233 343.8303,745.44929 346.1982,745.66516 348.7164,745.57412 355.5374,745.32758 363.1885,743.08295 367.2702,738.27571 373.2071,725.85454 358.785,731.58963 357.0887,722.99034 355.3924,714.3911 365.5732,713.91555 365.5732,713.91555 L 409.1881,713.79163 C 409.1881,713.79163 408.9075,670.49689 408.9075,670.49689 408.9075,670.49689 408.4233,660.50005 399.6657,662.16564 390.9082,663.83125 396.7488,677.99271 384.099,672.1631 379.2033,668.15527 376.9174,660.64238 376.6662,653.94463 376.5732,651.47209 376.7935,649.14673 377.2272,647.11441 377.2382,647.02421 377.2572,646.92925 377.2692,646.83899 378.0294,641.06002 380.3037,635.19775 384.4355,631.81526 397.0852,625.98568 391.2447,640.13336 400.0023,641.79896 408.1732,643.35303 409.0948,635.03898 409.1878,633.88084 L 409.1878,590.51722 363.3433,590.51722 C 360.4686,589.86422 355.7304,587.87689 356.9344,581.77291 358.6306,573.17363 373.0387,578.90872 367.1018,566.48755 363.657,562.43044 357.6869,560.19723 351.8016,559.45076 351.7096,559.43926 351.6129,559.42026 351.521,559.40936 349.4514,558.98337 347.0832,558.7675 344.5652,558.85854 z"
         style="fill:#ff0000;stroke:#000000;stroke-width:6;stroke-miterlimit:4;stroke-opacity:1;stroke-dasharray:none"
         inkscape:connector-curvature="0" />
      <path
         sodipodi:nodetypes="cccscscscsccc"
         id="path17784"
         d="M 524.1147,1024.3602 629.1147,914.3602 C 629.1147,914.3602 534.4678,915.17124 534.4678,915.17124 534.4678,915.17124 524.2868,915.64676 525.9831,924.24604 527.6794,932.84534 542.1015,927.11021 536.1646,939.5314 532.0831,944.3386 524.4318,946.58328 517.6108,946.8298 515.0928,946.9209 512.7247,946.705 510.6549,946.27896 510.5629,946.26806 510.4663,946.24946 510.3744,946.23736 504.4891,945.49095 498.5189,943.25774 495.0742,939.20065 489.1374,926.7794 503.5453,932.51452 505.2416,923.91529 506.9112,915.45168 497.1797,914.87084 496.8693,914.8542 L 414.1147,914.3602 524.1147,1024.3602 z"
         style="fill:#ff0000;stroke:#000000;stroke-width:6;stroke-miterlimit:4;stroke-opacity:1;stroke-dasharray:none"
         inkscape:connector-curvature="0" />
      <path
         sodipodi:nodetypes="ccscscscccscscscsccccc"
         id="path17786"
         d="M 285.1147,123.3602 C 305.1147,128.3602 305.1147,128.3602 315.1147,133.3602 320.0104,137.36809 320.5094,139.8308 320.7605,146.52857 320.8535,149.00107 320.6333,151.32644 320.1996,153.35876 320.1886,153.44896 320.1696,153.5439 320.1576,153.63414 319.3973,159.41317 317.123,165.27545 312.9912,168.65792 300.3414,174.48752 306.1821,160.32609 297.4245,158.66048 291.0438,157.44695 289.0728,162.39649 288.4633,165.1877 L 288.4633,210.53428 C 288.4633,210.53428 332.4846,210.19003 332.4846,210.19003 332.4846,210.19003 342.6654,209.71446 340.9692,201.11518 339.2729,192.51588 324.8648,198.251 330.8017,185.82981 334.8833,181.02261 342.5205,178.77801 349.3415,178.53142 351.8595,178.44042 354.2277,178.65622 356.2974,179.08225 356.3894,179.09315 356.486,179.11175 356.5779,179.12385 362.4633,179.87027 368.4475,182.10348 371.8921,186.16063 377.829,198.58181 363.407,192.8467 361.7107,201.44598 360.0145,210.04526 370.1953,210.52078 370.1953,210.52078 L 413.81,210.53428 C 413.81,210.53428 468.6862,209.43163 468.6862,209.43163 408.5227,186.04209 351.0152,139.6477 285.1148,123.3602 L 285.1147,123.3602 z"
         style="fill:#ff0000;stroke:#000000;stroke-width:6;stroke-miterlimit:4;stroke-opacity:1;stroke-dasharray:none"
         inkscape:connector-curvature="0" />
      <path
         sodipodi:nodetypes="ccscscccscscscsscccsscccc"
         id="path17788"
         d="M 832.3554,119.38938 C 838.9872,125.81057 840.8805,135.56183 839.2272,144.42427 839.2162,144.51457 839.1972,144.60951 839.1852,144.69973 838.4251,150.47881 836.1508,156.35476 832.019,159.73727 819.3692,165.56685 825.2098,151.40533 816.4523,149.73982 807.6947,148.07419 807.2105,158.07099 807.2104,158.07099 L 807.1964,200.89763 C 807.1964,200.89763 851.288,200.62216 851.288,200.62216 851.288,200.62216 861.4688,200.14655 859.7725,191.54731 858.0763,182.94807 843.6542,188.68307 849.5911,176.26195 853.6727,171.45477 861.3238,169.21014 868.1449,168.96352 870.6629,168.87212 873.031,169.08835 875.1008,169.51434 875.1928,169.52524 875.2893,169.54374 875.3813,169.55574 881.2666,170.30214 887.2368,172.53535 890.6815,176.59243 891.7947,178.92152 892.1979,180.61391 892.0979,181.88044 891.6645,187.36871 881.8923,184.89095 880.5141,191.87789 878.9314,199.90139 887.3981,200.80615 888.5779,200.89757 L 932.7396,200.89757 977.1624,198.73568 C 981.2466,200.83672 973.6326,225.9192 979.1147,230.3602 987.2127,236.92031 1022.6137,236.36426 1024.1147,220.3602 1024.5525,215.69221 1011.5022,201.39697 1009.1147,195.3602 997.9091,181.61085 986.6856,167.89386 972.1917,160.06341 910.3692,114.2582 859.3977,116.53482 809.1147,115.3602 L 832.3554,119.38938 z"
         style="fill:#ff0000;stroke:#000000;stroke-width:6;stroke-miterlimit:4;stroke-opacity:1;stroke-dasharray:none"
         inkscape:connector-curvature="0" />
      <path
         id="path17790"
         d="M 421.2634,654.40421 C 421.5146,661.10201 423.8005,668.6149 428.6962,672.62273 441.346,678.45229 435.5053,664.29088 444.263,662.62527 453.0205,660.95967 453.5047,670.95646 453.5047,670.95646 L 453.5047,670.95646 453.5047,714.03089 C 453.5047,714.03089 497.0073,713.97579 497.0073,713.97579 497.0073,713.97579 507.1881,713.50029 505.4918,704.901 504.1136,697.91408 494.3274,700.39182 493.894,694.90355 493.794,693.637 494.1973,691.9446 495.3103,689.61564 499.392,684.80839 507.0431,682.56377 513.8642,682.31723 516.3822,682.22613 518.7504,682.44206 520.8201,682.86804 520.9121,682.87914 521.0088,682.89754 521.1006,682.90944 526.9859,683.65587 532.9562,685.88907 536.4008,689.94618 542.3377,702.3674 527.9156,696.63226 526.2195,705.23154 524.9835,711.49693 530.0241,713.43243 532.8668,714.03098 L 579.0479,714.03098 579.0479,669.26276 C 579.5947,666.53015 581.5113,661.22464 588.0794,662.47386 596.8369,664.13948 590.9964,678.28714 603.6461,672.45753 607.7778,669.07508 610.0521,663.21281 610.8124,657.43383 610.8244,657.34363 610.8434,657.24862 610.8544,657.15842 611.2882,655.12606 611.508,652.8007 611.4153,650.32821 611.1642,643.63041 608.8783,636.11752 603.9826,632.10969 591.3329,626.28012 597.1734,640.44154 588.4159,642.10713 579.6584,643.77275 579.1741,633.77596 579.1741,633.77596 L 579.0478,590.9494 C 579.0478,590.9494 534.9563,591.22481 534.9563,591.22481 534.9563,591.22481 524.7756,591.70038 526.4717,600.29962 528.168,608.8989 542.5901,603.16381 536.6532,615.58497 532.5715,620.39221 524.9205,622.63684 518.0994,622.88339 515.5815,622.97449 513.2132,622.75855 511.1435,622.33256 511.0515,622.32156 510.9549,622.30306 510.863,622.29116 504.9777,621.54473 499.0076,619.31152 495.5628,615.25441 494.4497,612.92544 494.0463,611.23299 494.1464,609.9665 494.5798,604.47817 504.352,606.95597 505.7302,599.96906 507.313,591.94558 498.8463,591.04072 497.6664,590.9493 L 453.5048,590.9493 453.5048,635.96539 C 452.8396,638.78808 450.8156,643.44081 444.5995,642.25853 435.8418,640.59292 441.6826,626.44526 429.0328,632.27486 424.901,635.65732 422.6266,641.51959 421.8665,647.29856 421.8545,647.38886 421.8355,647.48378 421.8245,647.57398 421.3906,649.60634 421.1707,651.93171 421.2634,654.40419 z"
         style="fill:#ff0000;stroke:#000000;stroke-width:6;stroke-miterlimit:4;stroke-opacity:1;stroke-dasharray:none"
         inkscape:connector-curvature="0" />
      <path
         id="path17792"
         d="M 513.3917,721.97904 C 506.5707,722.2256 498.9195,724.47022 494.8379,729.27746 488.9011,741.69863 503.3231,735.96354 505.0194,744.56282 506.7156,753.16212 496.5349,753.63768 496.5349,753.63768 L 496.5349,753.63768 452.6677,753.63768 C 452.6677,753.63768 452.7247,796.35404 452.7247,796.35404 452.7247,796.35404 453.2089,806.35084 461.9664,804.68523 469.082,803.33198 466.5586,793.72252 472.1479,793.29697 473.4377,793.19877 475.1613,793.59473 477.5332,794.68779 482.4289,798.69567 484.7148,806.20851 484.9659,812.90631 485.0589,815.3788 484.8387,817.70416 484.4049,819.73652 484.3939,819.82672 484.3749,819.92168 484.3629,820.01193 483.6028,825.79091 481.3283,831.65318 477.1966,835.03563 464.5469,840.86524 470.3874,826.70379 461.6299,825.03818 455.2493,823.82465 453.2781,828.77426 452.6686,831.56544 L 452.6686,876.91203 498.2607,876.91203 C 501.0436,877.44885 506.4467,879.33086 505.1746,885.7803 503.4783,894.37959 489.0702,888.64445 495.0071,901.06566 498.4519,905.12276 504.422,907.35598 510.3073,908.10241 510.3993,908.11381 510.496,908.13291 510.5879,908.14381 512.6576,908.56979 515.0258,908.78568 517.5438,908.69463 524.3648,908.44809 532.0159,906.20346 536.0976,901.39622 542.0345,888.97505 527.6123,894.71014 525.9161,886.11086 524.2199,877.51162 534.4006,877.03606 534.4006,877.03606 L 578.0154,876.91215 C 578.0154,876.91215 577.7349,833.61739 577.7349,833.61739 577.7349,833.61739 577.2506,823.62056 568.4931,825.28615 559.7356,826.95176 565.5761,841.11322 552.9264,835.2836 548.0307,831.27576 545.7447,823.76289 545.4936,817.06514 545.4006,814.5926 545.6208,812.26723 546.0546,810.23492 546.0656,810.14472 546.0846,810.04975 546.0966,809.95951 546.8568,804.18052 549.1311,798.31827 553.2629,794.93577 555.6347,793.84271 557.3583,793.44673 558.6482,793.54495 564.2375,793.9705 561.7141,803.56617 568.8296,804.91947 577.0007,806.47355 577.9223,798.15989 578.0154,797.00135 L 578.0154,753.63778 532.1708,753.63778 C 529.2962,752.98472 524.5578,750.9974 525.7618,744.89343 527.4581,736.29414 541.8661,742.02923 535.9292,729.60807 532.4846,725.55096 526.5143,723.31774 520.629,722.57127 520.537,722.55987 520.4405,722.54077 520.3486,722.52987 518.2788,722.10389 515.9106,721.88801 513.3926,721.97904 z"
         style="fill:#ff0000;stroke:#000000;stroke-width:6;stroke-miterlimit:4;stroke-opacity:1;stroke-dasharray:none"
         inkscape:connector-curvature="0" />
      <path
         sodipodi:nodetypes="cccccscscscscccscscscsccc"
         id="path17794"
         d="M 245.1147,756.3602 315.1147,826.3602 365.1147,876.3602 408.3541,875.99316 408.3541,831.00462 C 408.9762,828.20551 410.9581,823.31225 417.3014,824.51867 426.059,826.18427 420.2183,840.34573 432.868,834.51613 436.9999,831.13366 439.2742,825.25762 440.0343,819.47864 440.0463,819.38844 440.0653,819.30719 440.0763,819.217 440.5102,817.18465 440.7301,814.8593 440.6373,812.38678 440.3862,805.68901 438.1003,798.17613 433.2045,794.16829 420.5548,788.33867 426.3955,802.50014 417.6379,804.16574 408.8803,805.83134 408.3961,795.83452 408.3961,795.83452 L 408.3541,752.71879 C 408.3541,752.71879 364.6691,753.03554 364.6691,753.03554 364.6691,753.03554 354.4884,753.51105 356.1847,762.11033 357.8809,770.70963 372.3029,764.97453 366.3662,777.3957 362.2845,782.20294 354.6334,784.44757 347.8122,784.69412 345.2942,784.78512 342.9261,784.56928 340.8563,784.14329 340.7643,784.13219 340.6678,784.11379 340.5759,784.10189 334.6905,783.35546 328.7203,781.12224 325.2757,777.06513 319.3388,764.64393 333.7469,770.37901 335.443,761.77977 337.1126,753.31622 327.3812,752.73534 327.0707,752.71873 L 283.0072,752.71873 245.1147,756.3602 z"
         style="fill:#ff0000;stroke:#000000;stroke-width:6;stroke-miterlimit:4;stroke-opacity:1;stroke-dasharray:none"
         inkscape:connector-curvature="0" />
      <path
         sodipodi:nodetypes="cccscscscscccscscscsscccc"
         id="path17796"
         d="M 197.9498,712.0487 241.803,711.78695 C 241.803,711.78695 241.4524,668.56111 241.4524,668.56111 241.4524,668.56111 240.9681,658.56431 232.2105,660.22993 223.453,661.89545 229.2936,676.04315 216.6438,670.21367 211.7481,666.20579 209.4622,658.70666 209.2111,652.0089 209.1181,649.53636 209.3382,647.21097 209.7721,645.17868 209.7831,645.08838 209.8021,644.99344 209.8141,644.90321 210.5742,639.12424 212.8485,633.2483 216.9803,629.86578 229.6301,624.0362 223.7895,638.19761 232.547,639.86324 241.3046,641.52875 241.7889,631.53206 241.7889,631.53206 L 241.8029,588.70543 C 241.8029,588.70543 197.7113,588.98089 197.7113,588.98089 197.7113,588.98089 187.5305,589.4564 189.2268,598.05564 190.923,606.65499 205.3451,600.91987 199.4082,613.341 195.3266,618.14828 187.6754,620.39292 180.8544,620.63954 178.3364,620.73094 175.9682,620.51459 173.8985,620.08872 173.8065,620.07782 173.7099,620.05932 173.618,620.04732 167.7327,619.30082 161.7625,617.06772 158.3178,613.01053 157.2046,610.68155 156.8013,608.98915 156.9014,607.72263 157.3347,602.23435 167.107,604.71211 168.4852,597.72517 170.0679,589.70167 161.6012,588.79681 160.4214,588.70539 L 81.1145,589.3602 C 81.1145,589.3602 116.1145,629.3602 116.1145,629.3602 L 197.9496,712.0487 z"
         style="fill:#ff0000;stroke:#000000;stroke-width:6;stroke-miterlimit:4;stroke-opacity:1;stroke-dasharray:none"
         inkscape:connector-curvature="0" />
    </g>
    <rect
       style="fill:none;stroke:none"
       id="rect3057"
       width="512"
       height="512"
       x="38.337742"
       y="11.986747"
       inkscape:export-filename="C:\Python27\theGabit\thegabit\website\static\tasks\images\blood.png"
       inkscape:export-xdpi="5.625"
       inkscape:export-ydpi="5.625" />
  </g>
  <metadata
     id="metadata3055">
    <rdf:RDF>
      <cc:Work>
        <dc:format>image/svg+xml</dc:format>
        <dc:type
           rdf:resource="http://purl.org/dc/dcmitype/StillImage" />
        <cc:license
           rdf:resource="http://creativecommons.org/licenses/publicdomain/" />
        <dc:publisher>
          <cc:Agent
             rdf:about="http://openclipart.org/">
            <dc:title>Open Clip Art Library</dc:title>
          </cc:Agent>
        </dc:publisher>
        <dc:title>Corazon Rompecabezas</dc:title>
        <dc:date>2010-10-06T00:50:14</dc:date>
        <dc:description>Corazon Rompecabezas</dc:description>
        <dc:source>http://openclipart.org/detail/88825/corazon-rompecabezas-by-asrafil</dc:source>
        <dc:creator>
          <cc:Agent>
            <dc:title>asrafil</dc:title>
          </cc:Agent>
        </dc:creator>
        <dc:subject>
          <rdf:Bag>
            <rdf:li>Corazon</rdf:li>
            <rdf:li>Rompecabezas</rdf:li>
            <rdf:li>clip art</rdf:li>
            <rdf:li>clipart</rdf:li>
            <rdf:li>heart</rdf:li>
            <rdf:li>puzzle</rdf:li>
          </rdf:Bag>
        </dc:subject>
      </cc:Work>
      <cc:License
         rdf:about="http://creativecommons.org/licenses/publicdomain/">
        <cc:permits
           rdf:resource="http://creativecommons.org/ns#Reproduction" />
        <cc:permits
           rdf:resource="http://creativecommons.org/ns#Distribution" />
        <cc:permits
           rdf:resource="http://creativecommons.org/ns#DerivativeWorks" />
      </cc:License>
    </rdf:RDF>
  </metadata>
</svg>
