<?xml version="1.0" encoding="UTF-8" standalone="no"?>
<!-- Created with Inkscape (http://www.inkscape.org/) -->

<svg
   xmlns:dc="http://purl.org/dc/elements/1.1/"
   xmlns:cc="http://creativecommons.org/ns#"
   xmlns:rdf="http://www.w3.org/1999/02/22-rdf-syntax-ns#"
   xmlns:svg="http://www.w3.org/2000/svg"
   xmlns="http://www.w3.org/2000/svg"
   xmlns:xlink="http://www.w3.org/1999/xlink"
   xmlns:sodipodi="http://sodipodi.sourceforge.net/DTD/sodipodi-0.dtd"
   xmlns:inkscape="http://www.inkscape.org/namespaces/inkscape"
   width="307.28174"
   height="332.57791"
   id="svg2"
   version="1.1"
   inkscape:version="0.48.2 r9819"
   sodipodi:docname="love-shield.svg">
  <defs
     id="defs4">
    <inkscape:perspective
       sodipodi:type="inkscape:persp3d"
       inkscape:vp_x="0 : 526.18109 : 1"
       inkscape:vp_y="0 : 1000 : 0"
       inkscape:vp_z="744.09448 : 526.18109 : 1"
       inkscape:persp3d-origin="372.04724 : 350.78739 : 1"
       id="perspective10" />
    <inkscape:perspective
       id="perspective2824"
       inkscape:persp3d-origin="0.5 : 0.33333333 : 1"
       inkscape:vp_z="1 : 0.5 : 1"
       inkscape:vp_y="0 : 1000 : 0"
       inkscape:vp_x="0 : 0.5 : 1"
       sodipodi:type="inkscape:persp3d" />
    <linearGradient
       id="linearGradient7100">
      <stop
         style="stop-color:#c71907;stop-opacity:1;"
         offset="0"
         id="stop7102" />
      <stop
         style="stop-color:#e38d5e;stop-opacity:1.0000000"
         offset="1"
         id="stop7104" />
    </linearGradient>
    <linearGradient
       id="linearGradient4572">
      <stop
         style="stop-color:#c71907;stop-opacity:1;"
         offset="0"
         id="stop4574" />
      <stop
         style="stop-color:#e8a06c;stop-opacity:1.0000000"
         offset="1"
         id="stop4576" />
    </linearGradient>
    <linearGradient
       id="linearGradient7199">
      <stop
         style="stop-color:#fefefe;stop-opacity:1;"
         offset="0"
         id="stop7201" />
      <stop
         style="stop-color:#fefefe;stop-opacity:0;"
         offset="1"
         id="stop7203" />
    </linearGradient>
    <inkscape:perspective
       id="perspective3651"
       inkscape:persp3d-origin="177.91713 : 101.81116 : 1"
       inkscape:vp_z="355.83426 : 152.71674 : 1"
       inkscape:vp_y="0 : 1000 : 0"
       inkscape:vp_x="0 : 152.71674 : 1"
       sodipodi:type="inkscape:persp3d" />
    <linearGradient
       inkscape:collect="always"
       xlink:href="#linearGradient7199"
       id="linearGradient3684"
       gradientUnits="userSpaceOnUse"
       x1="478"
       y1="1272.3622"
       x2="472.11472"
       y2="1121.9014"
       gradientTransform="translate(240.72861,-844.30228)" />
    <inkscape:perspective
       id="perspective3701"
       inkscape:persp3d-origin="0.5 : 0.33333333 : 1"
       inkscape:vp_z="1 : 0.5 : 1"
       inkscape:vp_y="0 : 1000 : 0"
       inkscape:vp_x="0 : 0.5 : 1"
       sodipodi:type="inkscape:persp3d" />
    <inkscape:perspective
       id="perspective3725"
       inkscape:persp3d-origin="0.5 : 0.33333333 : 1"
       inkscape:vp_z="1 : 0.5 : 1"
       inkscape:vp_y="0 : 1000 : 0"
       inkscape:vp_x="0 : 0.5 : 1"
       sodipodi:type="inkscape:persp3d" />
    <inkscape:perspective
       id="perspective3749"
       inkscape:persp3d-origin="0.5 : 0.33333333 : 1"
       inkscape:vp_z="1 : 0.5 : 1"
       inkscape:vp_y="0 : 1000 : 0"
       inkscape:vp_x="0 : 0.5 : 1"
       sodipodi:type="inkscape:persp3d" />
    <inkscape:perspective
       id="perspective3773"
       inkscape:persp3d-origin="0.5 : 0.33333333 : 1"
       inkscape:vp_z="1 : 0.5 : 1"
       inkscape:vp_y="0 : 1000 : 0"
       inkscape:vp_x="0 : 0.5 : 1"
       sodipodi:type="inkscape:persp3d" />
    <inkscape:perspective
       id="perspective3795"
       inkscape:persp3d-origin="0.5 : 0.33333333 : 1"
       inkscape:vp_z="1 : 0.5 : 1"
       inkscape:vp_y="0 : 1000 : 0"
       inkscape:vp_x="0 : 0.5 : 1"
       sodipodi:type="inkscape:persp3d" />
    <linearGradient
       gradientUnits="userSpaceOnUse"
       y2="991.45898"
       x2="37.512707"
       y1="1065.209"
       x1="39.454529"
       id="linearGradient3936"
       xlink:href="#linearGradient3930"
       inkscape:collect="always" />
    <linearGradient
       y2="448.27444"
       x2="144.0524"
       y1="598.90796"
       x1="222.10353"
       gradientTransform="matrix(0.35827812,0,0,0.35827812,-21.028584,833.27385)"
       gradientUnits="userSpaceOnUse"
       id="linearGradient3927"
       xlink:href="#linearGradient3037"
       inkscape:collect="always" />
    <linearGradient
       y2="451.17957"
       x2="85.272011"
       y1="551.68976"
       x1="187.68785"
       gradientTransform="matrix(0.35827812,0,0,0.35827812,-21.028584,833.27385)"
       gradientUnits="userSpaceOnUse"
       id="linearGradient3924"
       xlink:href="#linearGradient3037"
       inkscape:collect="always" />
    <linearGradient
       y2="435.81619"
       x2="145.46196"
       y1="584.15649"
       x1="147.98734"
       gradientTransform="matrix(0.35827817,0,0,0.35827817,-21.028585,833.27384)"
       gradientUnits="userSpaceOnUse"
       id="linearGradient3921"
       xlink:href="#linearGradient3033"
       inkscape:collect="always" />
    <linearGradient
       y2="527.73151"
       x2="162.63457"
       y1="451.88361"
       x1="162.63457"
       gradientTransform="matrix(0.35827812,0,0,0.35827812,-21.028584,833.27385)"
       gradientUnits="userSpaceOnUse"
       id="linearGradient3918"
       xlink:href="#linearGradient3025"
       inkscape:collect="always" />
    <linearGradient
       y2="83.862183"
       x2="40.25"
       y1="-2.3878183"
       x1="42"
       gradientTransform="matrix(0.49448181,0,0,0.49448181,0.04097253,989.48764)"
       gradientUnits="userSpaceOnUse"
       id="linearGradient3915"
       xlink:href="#linearGradient3076"
       inkscape:collect="always" />
    <linearGradient
       y2="83.862183"
       x2="40.25"
       y1="-2.3878183"
       x1="42"
       gradientTransform="matrix(0.36374753,0,0,0.36374753,-0.56904339,-0.56647002)"
       gradientUnits="userSpaceOnUse"
       id="linearGradient3912"
       xlink:href="#linearGradient3076"
       inkscape:collect="always" />
    <linearGradient
       y2="527.73151"
       x2="162.63457"
       y1="451.88361"
       x1="162.63457"
       gradientTransform="matrix(0.26355425,0,0,0.26355425,-16.068095,-115.47945)"
       gradientUnits="userSpaceOnUse"
       id="linearGradient3910"
       xlink:href="#linearGradient3025"
       inkscape:collect="always" />
    <linearGradient
       y2="435.81619"
       x2="145.46196"
       y1="584.15649"
       x1="147.98734"
       gradientTransform="matrix(0.26355428,0,0,0.26355428,-16.068096,-115.47946)"
       gradientUnits="userSpaceOnUse"
       id="linearGradient3908"
       xlink:href="#linearGradient3033"
       inkscape:collect="always" />
    <linearGradient
       y2="451.17957"
       x2="85.272011"
       y1="551.68976"
       x1="187.68785"
       gradientTransform="matrix(0.26355425,0,0,0.26355425,-16.068095,-115.47945)"
       gradientUnits="userSpaceOnUse"
       id="linearGradient3906"
       xlink:href="#linearGradient3037"
       inkscape:collect="always" />
    <linearGradient
       y2="448.27444"
       x2="144.0524"
       y1="598.90796"
       x1="222.10353"
       gradientTransform="matrix(0.26355425,0,0,0.26355425,-16.068095,-115.47945)"
       gradientUnits="userSpaceOnUse"
       id="linearGradient3904"
       xlink:href="#linearGradient3037"
       inkscape:collect="always" />
    <linearGradient
       y2="451.17957"
       x2="85.272011"
       y1="551.68976"
       x1="187.68785"
       gradientTransform="matrix(0.26355425,0,0,0.26355425,-16.068095,-115.47945)"
       gradientUnits="userSpaceOnUse"
       id="linearGradient3891"
       xlink:href="#linearGradient3037"
       inkscape:collect="always" />
    <linearGradient
       y2="435.81619"
       x2="145.46196"
       y1="584.15649"
       x1="147.98734"
       gradientTransform="matrix(0.26355428,0,0,0.26355428,-16.068096,-115.47946)"
       gradientUnits="userSpaceOnUse"
       id="linearGradient3889"
       xlink:href="#linearGradient3033"
       inkscape:collect="always" />
    <linearGradient
       y2="527.73151"
       x2="162.63457"
       y1="451.88361"
       x1="162.63457"
       gradientTransform="matrix(0.26355425,0,0,0.26355425,-16.068095,-115.47945)"
       gradientUnits="userSpaceOnUse"
       id="linearGradient3887"
       xlink:href="#linearGradient3025"
       inkscape:collect="always" />
    <linearGradient
       y2="83.862183"
       x2="40.25"
       y1="-2.3878183"
       x1="42"
       gradientTransform="matrix(0.36374753,0,0,0.36374753,-0.56904339,-0.56647002)"
       gradientUnits="userSpaceOnUse"
       id="linearGradient3885"
       xlink:href="#linearGradient3076"
       inkscape:collect="always" />
    <filter
       color-interpolation-filters="sRGB"
       id="filter3881"
       inkscape:collect="always">
      <feGaussianBlur
         id="feGaussianBlur3883"
         stdDeviation="0.4609375"
         inkscape:collect="always" />
    </filter>
    <linearGradient
       y2="448.27444"
       x2="144.0524"
       y1="598.90796"
       x1="222.10353"
       gradientTransform="matrix(0.14914444,0,0,0.14914444,-8.1161464,-64.49)"
       gradientUnits="userSpaceOnUse"
       id="linearGradient3096"
       xlink:href="#linearGradient3037"
       inkscape:collect="always" />
    <linearGradient
       y2="451.17957"
       x2="85.272011"
       y1="551.68976"
       x1="187.68785"
       gradientTransform="matrix(0.14914444,0,0,0.14914444,-8.1161464,-64.49)"
       gradientUnits="userSpaceOnUse"
       id="linearGradient3084"
       xlink:href="#linearGradient3037"
       inkscape:collect="always" />
    <linearGradient
       gradientTransform="matrix(0.20584347,0,0,0.20584347,0.65471309,0.53885897)"
       gradientUnits="userSpaceOnUse"
       y2="83.862183"
       x2="40.25"
       y1="-2.3878183"
       x1="42"
       id="linearGradient3082"
       xlink:href="#linearGradient3076"
       inkscape:collect="always" />
    <linearGradient
       y2="359.97171"
       x2="247.76367"
       y1="601.2785"
       x1="138.54187"
       gradientTransform="matrix(0.72455273,0,0,0.72455273,-42.609366,-315.91413)"
       gradientUnits="userSpaceOnUse"
       id="linearGradient3073"
       xlink:href="#linearGradient3037"
       inkscape:collect="always" />
    <linearGradient
       y2="359.97171"
       x2="247.76367"
       y1="601.2785"
       x1="138.54187"
       gradientTransform="matrix(0.72455273,0,0,0.72455273,-42.609366,-309.91413)"
       gradientUnits="userSpaceOnUse"
       id="linearGradient3069"
       xlink:href="#linearGradient3037"
       inkscape:collect="always" />
    <linearGradient
       y2="359.97171"
       x2="247.76367"
       y1="601.2785"
       x1="138.54187"
       gradientTransform="matrix(0.72455273,0,0,0.72455273,-42.609366,-315.91413)"
       gradientUnits="userSpaceOnUse"
       id="linearGradient3066"
       xlink:href="#linearGradient3037"
       inkscape:collect="always" />
    <linearGradient
       y2="359.97171"
       x2="247.76367"
       y1="601.2785"
       x1="138.54187"
       gradientTransform="matrix(0.72455273,0,0,0.72455273,-42.609366,-315.91413)"
       gradientUnits="userSpaceOnUse"
       id="linearGradient3059"
       xlink:href="#linearGradient3037"
       inkscape:collect="always" />
    <linearGradient
       y2="359.97171"
       x2="247.76367"
       y1="601.2785"
       x1="138.54187"
       gradientTransform="matrix(0.72455273,0,0,0.72455273,-44.609366,-313.91413)"
       gradientUnits="userSpaceOnUse"
       id="linearGradient3057"
       xlink:href="#linearGradient3037"
       inkscape:collect="always" />
    <linearGradient
       y2="451.17957"
       x2="85.272011"
       y1="551.68976"
       x1="187.68785"
       gradientTransform="matrix(0.72455273,0,0,0.72455273,-42.609366,-315.91413)"
       gradientUnits="userSpaceOnUse"
       id="linearGradient3051"
       xlink:href="#linearGradient3037"
       inkscape:collect="always" />
    <linearGradient
       y2="448.27444"
       x2="144.0524"
       y1="598.90796"
       x1="222.10353"
       gradientTransform="matrix(0.26355425,0,0,0.26355425,-16.068095,-115.47945)"
       gradientUnits="userSpaceOnUse"
       id="linearGradient3049"
       xlink:href="#linearGradient3037"
       inkscape:collect="always" />
    <linearGradient
       gradientTransform="matrix(0.14914444,0,0,0.14914444,-8.1161464,-64.49)"
       gradientUnits="userSpaceOnUse"
       y2="527.73151"
       x2="162.63457"
       y1="451.88361"
       x1="162.63457"
       id="linearGradient3031"
       xlink:href="#linearGradient3025"
       inkscape:collect="always" />
    <linearGradient
       y2="435.81619"
       x2="145.46196"
       y1="579.10571"
       x1="145.46196"
       gradientUnits="userSpaceOnUse"
       id="linearGradient3022"
       xlink:href="#linearGradient3037"
       inkscape:collect="always" />
    <linearGradient
       gradientTransform="matrix(2.2585774,0,0,2.2585774,-129.98033,-931.93222)"
       gradientUnits="userSpaceOnUse"
       y2="451.17957"
       x2="85.272011"
       y1="551.68976"
       x1="187.68785"
       id="linearGradient3016"
       xlink:href="#linearGradient3037"
       inkscape:collect="always" />
    <linearGradient
       gradientTransform="matrix(0.14914445,0,0,0.14914445,-8.1161469,-64.490002)"
       gradientUnits="userSpaceOnUse"
       y2="435.81619"
       x2="145.46196"
       y1="584.15649"
       x1="147.98734"
       id="linearGradient3008"
       xlink:href="#linearGradient3033"
       inkscape:collect="always" />
    <linearGradient
       id="linearGradient3037">
      <stop
         id="stop3039"
         offset="0"
         style="stop-color:#800000;stop-opacity:1;" />
      <stop
         style="stop-color:#ff0000;stop-opacity:1"
         offset="0.35205141"
         id="stop3045" />
      <stop
         id="stop3047"
         offset="0.46797922"
         style="stop-color:#ff5555;stop-opacity:1" />
      <stop
         id="stop3041"
         offset="1"
         style="stop-color:#ffaaaa;stop-opacity:1" />
    </linearGradient>
    <linearGradient
       id="linearGradient3025"
       inkscape:collect="always">
      <stop
         id="stop3027"
         offset="0"
         style="stop-color:#ffffff;stop-opacity:1;" />
      <stop
         id="stop3029"
         offset="1"
         style="stop-color:#ffffff;stop-opacity:0;" />
    </linearGradient>
    <linearGradient
       id="linearGradient3033">
      <stop
         style="stop-color:#800000;stop-opacity:1;"
         offset="0"
         id="stop3035" />
      <stop
         id="stop3037"
         offset="0.35205141"
         style="stop-color:#ff0000;stop-opacity:1" />
      <stop
         style="stop-color:#ff2a2a;stop-opacity:1"
         offset="0.46797922"
         id="stop3040" />
      <stop
         style="stop-color:#ff5555;stop-opacity:1"
         offset="1"
         id="stop3042" />
    </linearGradient>
    <linearGradient
       id="linearGradient3076"
       inkscape:collect="always">
      <stop
         id="stop3078"
         offset="0"
         style="stop-color:#ffffff;stop-opacity:1;" />
      <stop
         id="stop3080"
         offset="1"
         style="stop-color:#ffffff;stop-opacity:0;" />
    </linearGradient>
    <linearGradient
       id="linearGradient3930"
       inkscape:collect="always">
      <stop
         id="stop3932"
         offset="0"
         style="stop-color:#800000;stop-opacity:1;" />
      <stop
         id="stop3934"
         offset="1"
         style="stop-color:#800000;stop-opacity:0;" />
    </linearGradient>
  </defs>
  <sodipodi:namedview
     id="base"
     pagecolor="#ffffff"
     bordercolor="#666666"
     borderopacity="1.0"
     inkscape:pageopacity="0.0"
     inkscape:pageshadow="2"
     inkscape:zoom="0.7"
     inkscape:cx="-293.66046"
     inkscape:cy="51.109853"
     inkscape:document-units="px"
     inkscape:current-layer="layer1"
     showgrid="false"
     inkscape:window-width="1680"
     inkscape:window-height="987"
     inkscape:window-x="-8"
     inkscape:window-y="-8"
     inkscape:window-maximized="1" />
  <metadata
     id="metadata7">
    <rdf:RDF>
      <cc:Work
         rdf:about="">
        <dc:format>image/svg+xml</dc:format>
        <dc:type
           rdf:resource="http://purl.org/dc/dcmitype/StillImage" />
        <dc:title></dc:title>
      </cc:Work>
    </rdf:RDF>
  </metadata>
  <g
     inkscape:label="Camada 1"
     inkscape:groupmode="layer"
     id="layer1"
     transform="translate(-152.23304,-111.67715)">
    <rect
       style="fill:none;stroke:none"
       id="rect3127"
       width="430"
       height="430"
       x="-76.268982"
       y="32.966103"
       inkscape:export-filename="C:\Python27\theGabit\thegabit\website\static\tasks\images\blood.png"
       inkscape:export-xdpi="6.6976743"
       inkscape:export-ydpi="6.6976743" />
    <path
       style="opacity:0.92857139;fill:url(#linearGradient3684);fill-opacity:1;fill-rule:evenodd;stroke:none"
       sodipodi:nodetypes="ccccccccccc"
       id="path7116"
       d="m 566.72861,361.05992 c -4.23633,-28.7204 5.6372,-58.9865 24.63299,-80.6714 13.65489,-12.691 33.9507,-21.7107 52.56049,-15.8451 11.85381,4.2045 22.78429,10.7766 33.41864,17.3484 14.89507,11.8874 25.75524,28.0295 35.4982,44.178 2.12596,5.847 -1.725,-7.0105 37.09075,-46.1761 20.08952,-15.2006 48.71811,-23.5829 72.34856,-11.5936 15.34185,7.8248 27.39711,20.7279 37.2853,34.592 3.22379,14.6851 -15.65663,18.0275 -24.89093,24.3233 -57.89321,29.4864 -124.52135,34.4803 -188.42795,31.9126 -26.47871,-1.0699 -53.32878,-3.5165 -79.51605,1.9319 z" />
    <g
       id="g3825"
       transform="matrix(1.2061815,0,0,1.2061815,-1998.4082,-381.16907)"
       inkscape:export-filename="C:\Python27\theGabit\thegabit\website\static\tasks\images\blood.png"
       inkscape:export-xdpi="6.6976743"
       inkscape:export-ydpi="6.6976743">
      <path
         sodipodi:nodetypes="cccccc"
         id="path3763-8"
         d="M 1311.5213,531.376 C 1318.9858,551.46205 1318.8838,565.38075 1318.2342,578.85317 1310.2666,623.85692 1273.1648,645.80406 1230.9667,657.14 1199.5088,666.08925 1185.513,679.69672 1168.4852,692.49534 L 1168.4852,531.376 1311.5213,531.376 z"
         style="fill:#ffa0b0;fill-opacity:1;stroke:none"
         inkscape:connector-curvature="0" />
      <path
         sodipodi:nodetypes="cccccc"
         id="path3763"
         d="M 1026.468,533.14377 C 1019.0035,553.22982 1019.1055,567.14852 1019.7551,580.62094 1027.7227,625.62469 1064.8245,647.57183 1107.0226,658.90777 1138.4805,667.85702 1152.4763,681.46449 1169.5041,694.26311 L 1169.5041,533.14377 1026.468,533.14377 z"
         style="fill:#ffc5cf;fill-opacity:1;stroke:none"
         inkscape:connector-curvature="0" />
      <path
         sodipodi:nodetypes="ccccccccc"
         id="path3739-9"
         d="M 1168.4896,389.95465 C 1193.8837,387.36194 1225.748,387.46022 1263.9491,369.49907 1282.7465,383.44839 1290.7596,399.49657 1302.8399,415.46101 L 1288.6978,442.98766 C 1283.2768,458.81871 1287.3189,482.6505 1294.5061,499.80874 L 1310.6686,530.6184 1311.6787,531.88109 1164.735,532.38616 1168.4896,389.95465 z"
         style="fill:#ffc5cf;fill-opacity:1;stroke:none"
         inkscape:connector-curvature="0" />
      <path
         id="path3715-0"
         d="M 1309.611,532.25181 1030.7906,532.25181"
         style="fill:none;stroke:#ffa0b0;stroke-width:7;stroke-linecap:butt;stroke-linejoin:miter;stroke-miterlimit:4;stroke-opacity:1;stroke-dasharray:none"
         inkscape:connector-curvature="0" />
      <path
         sodipodi:nodetypes="ccccccccc"
         id="path3739"
         d="M 1167.7363,389.44957 C 1142.3422,386.85686 1119.8219,387.71275 1081.6208,369.7516 1062.8234,383.70092 1048.4968,398.99149 1036.4165,414.95593 L 1050.5586,442.48258 C 1055.9796,458.31363 1051.9375,482.14542 1044.7503,499.30366 L 1028.5878,530.11332 1027.5777,531.37601 1166.2211,531.88108 1167.7363,389.44957 z"
         style="fill:#ffa0b0;fill-opacity:1;stroke:none"
         inkscape:connector-curvature="0" />
      <path
         id="path3715"
         d="M 1170.46,484.93506 1170.46,692.81824"
         style="fill:none;stroke:#ffa1b0;stroke-width:7;stroke-linecap:butt;stroke-linejoin:miter;stroke-miterlimit:4;stroke-opacity:1;stroke-dasharray:none"
         inkscape:connector-curvature="0" />
      <path
         id="path3715-4"
         d="M 1170.46,390.93822 1170.46,598.8214"
         style="fill:none;stroke:#ffc5ce;stroke-width:7;stroke-linecap:butt;stroke-linejoin:miter;stroke-miterlimit:4;stroke-opacity:1;stroke-dasharray:none"
         inkscape:connector-curvature="0" />
      <path
         sodipodi:nodetypes="csczssssccscsssssssscccsssscssccc"
         id="path2830"
         d="M 1037.2321,414.59432 C 1037.2321,414.59432 1063.059,381.39965 1080.5357,370.48718 1080.9349,370.23794 1081.875,370.04075 1081.875,370.04075 1094.9393,375.16424 1107.0868,380.41438 1121.6964,383.79075 1136.3061,387.16712 1153.1206,390.22247 1169.0179,389.7729 1192.377,389.11231 1216.57,387.09842 1238.6607,379.05861 L 1264.9107,369.50504 C 1265.5491,369.27271 1266.1714,370.05613 1266.6964,370.48718 1282.5006,383.46205 1306.1607,417.45147 1306.1607,417.45147 L 1306.1607,418.5229 C 1299.4083,427.10714 1294.9606,436.77552 1290.625,446.73718 1287.3288,454.31067 1287.8386,461.22821 1289.4643,469.05861 1292.2301,483.80594 1297.1105,497.95546 1302.5,511.91575 1308.3724,527.12697 1318.5853,541.46481 1319.7321,557.98718 1320.304,566.22684 1320.6921,574.68415 1319.6431,582.8979 1318.4684,592.09646 1314.5713,601.02703 1309.5538,608.79075 1302.675,619.43445 1292.9869,627.97656 1282.5003,634.95147 1271.0281,642.58196 1258.3785,648.10192 1245.536,652.98718 1231.7785,658.22054 1218.4983,664.44269 1205.3574,671.0229 1201.3287,673.04023 1196.0165,675.61937 1191.4288,678.07647 1182.8724,682.65917 1174.7641,688.2056 1167.7681,694.95147 L 1166.4288,695.04077 C 1158.8775,688.29674 1150.6016,682.56796 1142.2324,676.91577 1127.4512,666.72632 1110.53,660.87774 1093.4824,655.84434 1070.9154,649.18131 1051.7721,636.61729 1036.4288,618.96934 1027.521,608.72353 1022.2556,595.07379 1020.4467,581.55863 1019.6937,575.93251 1020.0111,565.00835 1020.8038,556.82649 1022.4918,539.40242 1032.3618,524.02464 1040.536,508.88006 1050.0629,490.58153 1056.6544,468.56235 1052.5003,447.80863 1050.4339,437.48479 1045.7129,427.55608 1039.4646,419.05863 L 1037.2324,416.02292 1037.2324,414.59434 1037.2321,414.59432 z"
         style="fill:none;stroke:#960012;stroke-width:7;stroke-linecap:butt;stroke-linejoin:miter;stroke-miterlimit:4;stroke-opacity:1;stroke-dasharray:none"
         inkscape:connector-curvature="0" />
      <path
         d="M 1167.0473,480.23201 C 1127.5604,429.08845 1089.0275,453.85307 1079.7997,488.60497 1058.1169,570.26288 1166.9814,613.44098 1166.9814,613.44104 1166.9814,613.44104 1284.9618,569.83206 1261.4855,487.93354 1252.373,456.14387 1206.1724,428.91706 1167.0473,480.23201 z"
         id="path7112-4"
         sodipodi:nodetypes="cscsc"
         style="fill:#ff0000;fill-opacity:1;stroke:#960012;stroke-width:7;stroke-linecap:butt;stroke-linejoin:miter;stroke-miterlimit:4;stroke-opacity:1;stroke-dasharray:none;display:inline"
         inkscape:connector-curvature="0" />
    </g>
    <g
       transform="matrix(5.2409994,0,0,5.2409994,-33.042455,-5056.8844)"
       id="layer1-9"
       inkscape:label="Layer 1"
       inkscape:export-filename="C:\Python27\theGabit\thegabit\website\static\tasks\images\blood.png"
       inkscape:export-xdpi="6.6976743"
       inkscape:export-ydpi="6.6976743">
      <path
         transform="matrix(2.4022225,0,0,2.4022225,-1.531794,988.19318)"
         inkscape:connector-curvature="0"
         id="path3086"
         d="M 8.84375,2.59375 C 5.281165,2.59375 2.375,5.501218 2.375,9.0625 2.375,9.25956 2.38677,9.470287 2.40625,9.65625 2.5689953,11.198757 3.356478,12.393543 4.21875,13.59375 4.22203,13.59865 4.246678,13.58885 4.25,13.59375 4.3867313,13.794863 4.5494538,14.000952 4.84375,14.34375 5.1452045,14.694886 5.540634,15.137979 6,15.65625 6.918733,16.692791 8.096287,18.004438 9.25,19.28125 11.557425,21.83487 13.78125,24.28125 13.78125,24.28125 L 14.3125,24.875 14.34375,24.875 14.90625,24.28125 24.25,13.84375 24.3125,13.8125 24.34375,13.75 C 25.048755,12.658132 25.971093,11.433803 26.15625,9.8125 26.17703,9.629331 26.1875,9.443225 26.1875,9.25 26.1875,8.1405352 25.899521,7.0718045 25.40625,6.15625 25.40195,6.14843 25.41055,6.132803 25.40625,6.125 24.303454,4.09835 22.149485,2.71875 19.6875,2.71875 18.00845,2.71875 16.492819,3.3833344 15.34375,4.4375 15.15236,4.6131465 14.982168,4.8028956 14.8125,5 14.642761,5.1971323 14.458452,5.4086709 14.3125,5.625 13.16487,3.8139929 11.13888,2.59375 8.84375,2.59375 z"
         style="font-size:medium;font-style:normal;font-variant:normal;font-weight:normal;font-stretch:normal;text-indent:0;text-align:start;text-decoration:none;line-height:normal;letter-spacing:normal;word-spacing:normal;text-transform:none;direction:ltr;block-progression:tb;writing-mode:lr-tb;text-anchor:start;baseline-shift:baseline;opacity:0.68609864;color:#000000;fill:#000000;fill-opacity:1;fill-rule:evenodd;stroke:none;stroke-width:9.99999905;marker:none;visibility:visible;display:inline;overflow:visible;filter:url(#filter3881);enable-background:accumulate;font-family:Sans;-inkscape-font-specification:Sans" />
      <path
         inkscape:connector-curvature="0"
         id="path3047"
         d="M 32.585238,1000.1815 32.585238,1046.4172 32.634818,1046.4712 33.958384,1045.0039 56.449145,1019.9701 56.548285,1019.8561 56.617685,1019.747 C 58.504302,1016.8252 61.094027,1013.4534 61.094027,1008.8759 61.094027,1000.2734 54.081409,993.25581 45.478885,993.25581 40.100949,993.25581 35.390112,996.02364 32.585241,1000.181 z"
         style="font-size:medium;font-style:normal;font-variant:normal;font-weight:normal;font-stretch:normal;text-indent:0;text-align:start;text-decoration:none;line-height:normal;letter-spacing:normal;word-spacing:normal;text-transform:none;direction:ltr;block-progression:tb;writing-mode:lr-tb;text-anchor:start;baseline-shift:baseline;color:#000000;fill:url(#linearGradient3927);fill-opacity:1;fill-rule:evenodd;stroke:none;stroke-width:9.99999905;marker:none;visibility:visible;display:inline;overflow:visible;enable-background:accumulate;font-family:Sans;-inkscape-font-specification:Sans" />
      <path
         inkscape:connector-curvature="0"
         id="path3006"
         d="M 19.389202,992.95394 C 10.831081,992.95394 3.8732066,999.93973 3.8732066,1008.4947 3.8732066,1012.8978 6.0075825,1016.0791 8.3297185,1019.3113 8.3375985,1019.3233 8.3514825,1019.3443 8.3594625,1019.3563 8.6879215,1019.8394 9.1099103,1020.3125 9.8168752,1021.1359 10.541036,1021.9794 11.4894,1023.0586 12.592899,1024.3036 14.7999,1026.7936 17.614124,1029.9263 20.385599,1032.9935 25.928547,1039.1279 31.301326,1045.0147 31.301326,1045.0147 L 32.585238,1046.4176 32.585238,1000.1819 C 32.565538,1000.2109 32.540388,1000.2369 32.520788,1000.2659 29.769495,995.8868 24.924424,992.95403 19.389195,992.95403 z"
         style="font-size:medium;font-style:normal;font-variant:normal;font-weight:normal;font-stretch:normal;text-indent:0;text-align:start;text-decoration:none;line-height:normal;letter-spacing:normal;word-spacing:normal;text-transform:none;direction:ltr;block-progression:tb;writing-mode:lr-tb;text-anchor:start;baseline-shift:baseline;color:#000000;fill:url(#linearGradient3924);fill-opacity:1;fill-rule:evenodd;stroke:none;stroke-width:9.99999905;marker:none;visibility:visible;display:inline;overflow:visible;enable-background:accumulate;font-family:Sans;-inkscape-font-specification:Sans" />
      <path
         inkscape:connector-curvature="0"
         id="path3049"
         d="M 19.389669,996.53672 C 24.714871,996.53672 29.210689,1000.0141 30.765,1004.7995 L 32.388449,1009.8042 34.157447,1004.8443 C 35.814491,1000.1861 40.233504,996.83902 45.476802,996.83902 52.140096,996.83902 57.512705,1002.2116 57.512705,1008.8749 57.512705,1012.0156 55.65424,1014.655 53.706001,1017.6639 L 32.612372,1041.1312 C 31.528104,1039.9431 27.898079,1035.9724 23.03963,1030.5955 20.272256,1027.5329 17.462298,1024.4037 15.26947,1021.9297 14.173055,1020.6927 13.228845,1019.6242 12.526404,1018.8059 11.823963,1017.9877 11.301914,1017.3107 11.30602,1017.3169 L 11.28368,1017.2949 11.27238,1017.2609 C 8.9763258,1014.0668 7.4545298,1011.781 7.4545298,1008.4942 7.4545298,1001.8725 12.771047,996.5367 19.389672,996.5367 z"
         style="font-size:medium;font-style:normal;font-variant:normal;font-weight:normal;font-stretch:normal;text-indent:0;text-align:start;text-decoration:none;line-height:normal;letter-spacing:normal;word-spacing:normal;text-transform:none;direction:ltr;block-progression:tb;writing-mode:lr-tb;text-anchor:start;baseline-shift:baseline;color:#000000;fill:url(#linearGradient3921);fill-opacity:1;fill-rule:evenodd;stroke:url(#linearGradient3936);stroke-width:0.50000006;marker:none;visibility:visible;display:inline;overflow:visible;enable-background:accumulate;font-family:Sans;-inkscape-font-specification:Sans" />
      <path
         inkscape:connector-curvature="0"
         id="path3018"
         d="M 19.389669,996.53672 C 12.771043,996.53672 7.4545276,1001.8725 7.4545276,1008.4943 7.4545276,1011.781 8.976324,1014.0668 11.272429,1017.2609 L 11.283729,1017.2949 11.306069,1017.3169 C 11.301969,1017.3069 11.824012,1017.9878 12.526453,1018.806 13.228895,1019.6242 14.173107,1020.6927 15.269519,1021.9297 15.403639,1022.081 15.578792,1022.2775 15.717369,1022.4335 23.816535,1016.3378 35.405297,1012.5249 48.275892,1012.5249 51.072297,1012.5249 53.807513,1012.7066 56.460308,1013.0511 57.095435,1011.7088 57.512753,1010.3479 57.512753,1008.875 57.512753,1002.2116 52.140144,996.83905 45.476843,996.83905 40.233553,996.83905 35.814539,1000.1862 34.157496,1004.8443 L 32.388497,1009.8042 30.76505,1004.7995 C 29.210687,1000.0142 24.714868,996.53681 19.389666,996.53681 z"
         style="font-size:medium;font-style:normal;font-variant:normal;font-weight:normal;font-stretch:normal;text-indent:0;text-align:start;text-decoration:none;line-height:normal;letter-spacing:normal;word-spacing:normal;text-transform:none;direction:ltr;block-progression:tb;writing-mode:lr-tb;text-anchor:start;baseline-shift:baseline;opacity:0.5;color:#000000;fill:url(#linearGradient3918);fill-opacity:1;fill-rule:evenodd;stroke:none;stroke-width:9.99999905;marker:none;visibility:visible;display:inline;overflow:visible;enable-background:accumulate;font-family:Sans;-inkscape-font-specification:Sans" />
      <path
         inkscape:connector-curvature="0"
         id="path3071"
         d="M 19.387574,992.94901 C 10.82945,992.94901 3.8732066,999.93929 3.8732066,1008.4943 3.8732066,1008.9677 3.9036736,1009.4228 3.9504696,1009.8696 4.7460456,1002.0525 11.364333,995.9159 19.387574,995.9159 24.922801,995.9159 29.770958,998.84588 32.522246,1003.225 32.541946,1003.196 32.564276,1003.177 32.584056,1003.148 35.38893,998.99064 40.093555,996.22526 45.47149,996.22526 53.531182,996.22526 60.207006,1002.3884 61.016759,1010.2407 61.066679,1009.8007 61.094019,1009.3451 61.094019,1008.8809 61.094019,1000.2784 54.07401,993.25837 45.471485,993.25837 40.09355,993.25837 35.388925,996.02375 32.584052,1000.1811 32.564352,1000.2101 32.541812,1000.2291 32.522242,1000.2581 29.770954,995.87899 24.922797,992.94901 19.38757,992.94901 z"
         style="font-size:medium;font-style:normal;font-variant:normal;font-weight:normal;font-stretch:normal;text-indent:0;text-align:start;text-decoration:none;line-height:normal;letter-spacing:normal;word-spacing:normal;text-transform:none;direction:ltr;block-progression:tb;writing-mode:lr-tb;text-anchor:start;baseline-shift:baseline;opacity:0.41999996;color:#000000;fill:url(#linearGradient3915);fill-opacity:1;fill-rule:evenodd;stroke:none;stroke-width:9.99999905;marker:none;visibility:visible;display:inline;overflow:visible;enable-background:accumulate;font-family:Sans;-inkscape-font-specification:Sans" />
    </g>
  </g>
</svg>
