<?xml version="1.0" encoding="UTF-8" standalone="no"?>
<!-- Created with Inkscape (http://www.inkscape.org/) -->

<svg
   xmlns:dc="http://purl.org/dc/elements/1.1/"
   xmlns:cc="http://creativecommons.org/ns#"
   xmlns:rdf="http://www.w3.org/1999/02/22-rdf-syntax-ns#"
   xmlns:svg="http://www.w3.org/2000/svg"
   xmlns="http://www.w3.org/2000/svg"
   xmlns:sodipodi="http://sodipodi.sourceforge.net/DTD/sodipodi-0.dtd"
   xmlns:inkscape="http://www.inkscape.org/namespaces/inkscape"
   width="649.3891"
   height="605.69971"
   id="svg3701"
   version="1.1"
   inkscape:version="0.48.2 r9819"
   sodipodi:docname="Trollface.svg">
  <defs
     id="defs3703">
    <style
       id="style3891"
       type="text/css">
   
    .str0 {stroke:black;stroke-width:0.238063}
    .fil0 {fill:black}
    .fil2 {fill:#050707}
    .fil3 {fill:#881846}
    .fil5 {fill:#F6BCD6}
    .fil1 {fill:#F9DD56}
    .fil4 {fill:#FDFCFD}
   
  </style>
    <inkscape:perspective
       sodipodi:type="inkscape:persp3d"
       inkscape:vp_x="0 : 0.5 : 1"
       inkscape:vp_y="0 : 1000 : 0"
       inkscape:vp_z="1 : 0.5 : 1"
       inkscape:persp3d-origin="0.5 : 0.33333333 : 1"
       id="perspective2991" />
    <inkscape:perspective
       sodipodi:type="inkscape:persp3d"
       inkscape:vp_x="0 : 0.5 : 1"
       inkscape:vp_y="0 : 1000 : 0"
       inkscape:vp_z="1 : 0.5 : 1"
       inkscape:persp3d-origin="0.5 : 0.33333333 : 1"
       id="perspective2975" />
    <inkscape:perspective
       sodipodi:type="inkscape:persp3d"
       inkscape:vp_x="0 : 0.5 : 1"
       inkscape:vp_y="0 : 1000 : 0"
       inkscape:vp_z="1 : 0.5 : 1"
       inkscape:persp3d-origin="0.5 : 0.33333333 : 1"
       id="perspective2959" />
    <inkscape:perspective
       sodipodi:type="inkscape:persp3d"
       inkscape:vp_x="0 : 0.5 : 1"
       inkscape:vp_y="0 : 1000 : 0"
       inkscape:vp_z="1 : 0.5 : 1"
       inkscape:persp3d-origin="0.5 : 0.33333333 : 1"
       id="perspective2943" />
    <inkscape:perspective
       sodipodi:type="inkscape:persp3d"
       inkscape:vp_x="0 : 0.5 : 1"
       inkscape:vp_y="0 : 1000 : 0"
       inkscape:vp_z="1 : 0.5 : 1"
       inkscape:persp3d-origin="0.5 : 0.33333333 : 1"
       id="perspective2927" />
    <inkscape:perspective
       sodipodi:type="inkscape:persp3d"
       inkscape:vp_x="0 : 0.5 : 1"
       inkscape:vp_y="0 : 1000 : 0"
       inkscape:vp_z="1 : 0.5 : 1"
       inkscape:persp3d-origin="0.5 : 0.33333333 : 1"
       id="perspective2911" />
    <inkscape:perspective
       sodipodi:type="inkscape:persp3d"
       inkscape:vp_x="0 : 0.5 : 1"
       inkscape:vp_y="0 : 1000 : 0"
       inkscape:vp_z="1 : 0.5 : 1"
       inkscape:persp3d-origin="0.5 : 0.33333333 : 1"
       id="perspective2895" />
    <inkscape:perspective
       sodipodi:type="inkscape:persp3d"
       inkscape:vp_x="0 : 0.5 : 1"
       inkscape:vp_y="0 : 1000 : 0"
       inkscape:vp_z="1 : 0.5 : 1"
       inkscape:persp3d-origin="0.5 : 0.33333333 : 1"
       id="perspective2879" />
    <inkscape:perspective
       id="perspective10"
       inkscape:persp3d-origin="372.04724 : 350.78739 : 1"
       inkscape:vp_z="744.09448 : 526.18109 : 1"
       inkscape:vp_y="0 : 1000 : 0"
       inkscape:vp_x="0 : 526.18109 : 1"
       sodipodi:type="inkscape:persp3d" />
    <inkscape:perspective
       sodipodi:type="inkscape:persp3d"
       inkscape:vp_x="0 : 0.5 : 1"
       inkscape:vp_y="0 : 1000 : 0"
       inkscape:vp_z="1 : 0.5 : 1"
       inkscape:persp3d-origin="0.5 : 0.33333333 : 1"
       id="perspective2911-1" />
    <inkscape:perspective
       sodipodi:type="inkscape:persp3d"
       inkscape:vp_x="0 : 0.5 : 1"
       inkscape:vp_y="0 : 1000 : 0"
       inkscape:vp_z="1 : 0.5 : 1"
       inkscape:persp3d-origin="0.5 : 0.33333333 : 1"
       id="perspective2895-9" />
    <inkscape:perspective
       sodipodi:type="inkscape:persp3d"
       inkscape:vp_x="0 : 0.5 : 1"
       inkscape:vp_y="0 : 1000 : 0"
       inkscape:vp_z="1 : 0.5 : 1"
       inkscape:persp3d-origin="0.5 : 0.33333333 : 1"
       id="perspective2879-8" />
    <inkscape:perspective
       id="perspective10-1"
       inkscape:persp3d-origin="372.04724 : 350.78739 : 1"
       inkscape:vp_z="744.09448 : 526.18109 : 1"
       inkscape:vp_y="0 : 1000 : 0"
       inkscape:vp_x="0 : 526.18109 : 1"
       sodipodi:type="inkscape:persp3d" />
    <inkscape:perspective
       sodipodi:type="inkscape:persp3d"
       inkscape:vp_x="0 : 526.18109 : 1"
       inkscape:vp_y="0 : 1000 : 0"
       inkscape:vp_z="744.09448 : 526.18109 : 1"
       inkscape:persp3d-origin="372.04724 : 350.78739 : 1"
       id="perspective2500" />
    <inkscape:perspective
       id="perspective2502"
       inkscape:persp3d-origin="372.04724 : 350.78739 : 1"
       inkscape:vp_z="744.09448 : 526.18109 : 1"
       inkscape:vp_y="0 : 1000 : 0"
       inkscape:vp_x="0 : 526.18109 : 1"
       sodipodi:type="inkscape:persp3d" />
    <inkscape:perspective
       id="perspective2504"
       inkscape:persp3d-origin="372.04724 : 350.78739 : 1"
       inkscape:vp_z="744.09448 : 526.18109 : 1"
       inkscape:vp_y="0 : 1000 : 0"
       inkscape:vp_x="0 : 526.18109 : 1"
       sodipodi:type="inkscape:persp3d" />
    <inkscape:perspective
       sodipodi:type="inkscape:persp3d"
       inkscape:vp_x="0 : 526.18109 : 1"
       inkscape:vp_y="0 : 1000 : 0"
       inkscape:vp_z="744.09448 : 526.18109 : 1"
       inkscape:persp3d-origin="372.04724 : 350.78739 : 1"
       id="perspective2468" />
    <inkscape:perspective
       sodipodi:type="inkscape:persp3d"
       inkscape:vp_x="0 : 526.18109 : 1"
       inkscape:vp_y="0 : 1000 : 0"
       inkscape:vp_z="744.09448 : 526.18109 : 1"
       inkscape:persp3d-origin="372.04724 : 350.78739 : 1"
       id="perspective2453" />
    <inkscape:perspective
       sodipodi:type="inkscape:persp3d"
       inkscape:vp_x="0 : 526.18109 : 1"
       inkscape:vp_y="0 : 1000 : 0"
       inkscape:vp_z="744.09448 : 526.18109 : 1"
       inkscape:persp3d-origin="372.04724 : 350.78739 : 1"
       id="perspective2430" />
    <inkscape:perspective
       sodipodi:type="inkscape:persp3d"
       inkscape:vp_x="0 : 526.18109 : 1"
       inkscape:vp_y="0 : 1000 : 0"
       inkscape:vp_z="744.09448 : 526.18109 : 1"
       inkscape:persp3d-origin="372.04724 : 350.78739 : 1"
       id="perspective2413" />
    <inkscape:perspective
       sodipodi:type="inkscape:persp3d"
       inkscape:vp_x="0 : 526.18109 : 1"
       inkscape:vp_y="0 : 1000 : 0"
       inkscape:vp_z="744.09448 : 526.18109 : 1"
       inkscape:persp3d-origin="372.04724 : 350.78739 : 1"
       id="perspective2400" />
    <inkscape:perspective
       sodipodi:type="inkscape:persp3d"
       inkscape:vp_x="0 : 526.18109 : 1"
       inkscape:vp_y="0 : 1000 : 0"
       inkscape:vp_z="744.09448 : 526.18109 : 1"
       inkscape:persp3d-origin="372.04724 : 350.78739 : 1"
       id="perspective2403" />
    <inkscape:perspective
       sodipodi:type="inkscape:persp3d"
       inkscape:vp_x="0 : 526.18109 : 1"
       inkscape:vp_y="0 : 1000 : 0"
       inkscape:vp_z="744.09448 : 526.18109 : 1"
       inkscape:persp3d-origin="372.04724 : 350.78739 : 1"
       id="perspective2390" />
    <inkscape:perspective
       id="perspective10-9"
       inkscape:persp3d-origin="372.04724 : 350.78739 : 1"
       inkscape:vp_z="744.09448 : 526.18109 : 1"
       inkscape:vp_y="0 : 1000 : 0"
       inkscape:vp_x="0 : 526.18109 : 1"
       sodipodi:type="inkscape:persp3d" />
    <inkscape:perspective
       sodipodi:type="inkscape:persp3d"
       inkscape:vp_x="0 : 526.18109 : 1"
       inkscape:vp_y="0 : 1000 : 0"
       inkscape:vp_z="744.09448 : 526.18109 : 1"
       inkscape:persp3d-origin="372.04724 : 350.78739 : 1"
       id="perspective2389" />
    <inkscape:perspective
       sodipodi:type="inkscape:persp3d"
       inkscape:vp_x="0 : 526.18109 : 1"
       inkscape:vp_y="0 : 1000 : 0"
       inkscape:vp_z="744.09448 : 526.18109 : 1"
       inkscape:persp3d-origin="372.04724 : 350.78739 : 1"
       id="perspective3240" />
    <inkscape:perspective
       sodipodi:type="inkscape:persp3d"
       inkscape:vp_x="0 : 526.18109 : 1"
       inkscape:vp_y="0 : 1000 : 0"
       inkscape:vp_z="744.09448 : 526.18109 : 1"
       inkscape:persp3d-origin="372.04724 : 350.78739 : 1"
       id="perspective3227" />
    <inkscape:perspective
       id="perspective3218"
       inkscape:persp3d-origin="372.04724 : 350.78739 : 1"
       inkscape:vp_z="744.09448 : 526.18109 : 1"
       inkscape:vp_y="0 : 1000 : 0"
       inkscape:vp_x="0 : 526.18109 : 1"
       sodipodi:type="inkscape:persp3d" />
  </defs>
  <sodipodi:namedview
     id="base"
     pagecolor="#ffffff"
     bordercolor="#666666"
     borderopacity="1.0"
     inkscape:pageopacity="0.0"
     inkscape:pageshadow="2"
     inkscape:zoom="0.49497475"
     inkscape:cx="-31.152285"
     inkscape:cy="405.28068"
     inkscape:document-units="px"
     inkscape:current-layer="layer1"
     showgrid="false"
     fit-margin-top="0"
     fit-margin-left="0"
     fit-margin-right="0"
     fit-margin-bottom="0"
     showborder="false"
     inkscape:window-width="589"
     inkscape:window-height="437"
     inkscape:window-x="1837"
     inkscape:window-y="217"
     inkscape:window-maximized="1" />
  <g
     inkscape:label="Layer 1"
     inkscape:groupmode="layer"
     id="layer1"
     transform="translate(-423.46816,-1439.6244)">
    <g
       id="layer1-9"
       inkscape:label="Layer 1"
       transform="matrix(0.73915623,0,0,0.73915623,-485.23514,988.56889)"
       inkscape:export-filename="C:\Python27\theGabit\thegabit\website\static\users\images\avatar.png"
       inkscape:export-xdpi="11.25"
       inkscape:export-ydpi="11.25">
      <path
         id="path2403"
         d="M 569.91814,838.80475 C 562.17758,838.56571 552.67778,838.11509 548.80752,837.80347 541.51722,837.21636 538.40644,836.42665 488.96608,822.61188 467.09202,816.49971 443.9836,810.87868 433.45766,809.10967 429.44131,808.43463 425.07893,807.26496 421.87306,806.00349 413.55834,802.73183 390.52381,791.01648 370.44967,779.84971 341.35121,763.66293 322.73732,753.76196 306.74282,745.96323 283.35452,734.55937 262.33921,721.85815 238.9142,704.96899 224.28795,694.42368 216.62018,687.8696 204.00046,675.12636 181.37492,652.27938 169.00683,634.53391 158.53713,609.89641 150.02034,589.85458 141.05481,575.31235 129.00293,561.9915 122.81912,555.15656 115.09259,545.26149 110.19407,537.90372 104.74965,529.72595 98.3441,516.95323 95.80658,509.21491 90.192783,492.09528 88.032243,467.29466 90.831627,452.10792 93.771403,436.15957 102.32677,421.77466 123.02522,397.97809 125.87367,394.7032 128.32957,391.902 128.48271,391.75313 129.49287,390.77122 136.25142,382.8477 140.87435,377.22547 153.30228,362.11111 160.68454,349.74819 169.3702,329.50383 181.34923,301.58329 193.5128,281.49234 209.29066,263.56571 217.55614,254.17463 222.6759,249.86942 237.99745,239.42604 L 246.55341,233.59416 332.72466,233.92212 C 380.11885,234.10247 421.81892,234.35781 425.39149,234.48949 428.96406,234.62118 438.82921,234.99181 447.31405,235.31298 534.76363,238.62375 588.82181,247.91239 626.54349,266.10949 647.95277,276.43742 670.78555,294.03854 681.65015,308.5897 687.7394,316.74506 691.43964,326.22564 691.43964,333.6715 691.43964,346.66043 695.22604,360.69492 701.16438,369.71711 704.87554,375.35537 707.56457,378.17365 713.89929,383.06387 725.10173,391.71183 731.37697,401.36253 735.03617,415.57028 738.06482,427.32943 739.40017,444.18757 738.8952,464.28714 738.27947,488.79758 737.7144,490.73792 719.58345,530.59619 L 710.22683,551.16553 710.5668,607.73122 C 710.75384,638.84235 711.02196,667.58529 711.16263,671.60443 711.3034,675.62357 711.55545,683.54006 711.72269,689.19663 712.3415,710.12344 712.8083,719.55838 714.75572,750.49408 L 715.85439,767.94636 710.31549,777.82965 C 698.0099,799.78683 690.16767,808.96702 675.23701,818.89285 665.39609,825.43512 649.84129,832.67796 639.47498,835.54495 626.62311,839.0993 607.88793,839.97735 569.91814,838.80475 z M 613.22199,822.39388 C 633.44891,820.44056 640.63505,818.71542 652.91803,812.86427 669.13298,805.14016 681.28574,794.75818 690.13984,781.06612 692.9848,776.66678 697.78323,766.80722 699.34792,762.14617 701.09687,756.93597 701.56858,748.66054 700.6982,738.45479 698.037,707.2494 697.4785,689.11675 696.79714,611.79095 L 696.20095,544.12865 705.97509,522.62628 C 722.71805,485.79295 723.96171,481.94754 725.04581,463.6605 725.94229,448.53988 724.60427,432.22749 721.72303,423.14845 720.10346,418.04507 716.74534,411.5097 713.58328,407.30725 712.06783,405.2932 706.75727,399.56894 701.78219,394.58676 684.501,377.28097 679.14919,365.89891 677.92526,343.84822 677.24213,331.54158 675.06235,325.28545 668.68378,317.3246 658.46132,304.56646 631.44442,285.56832 611.86131,277.36748 595.10651,270.35105 580.91766,268.41631 552.05532,269.21249 529.33277,269.83934 504.92549,269.7218 494.13639,268.93361 481.6776,268.02344 476.85906,267.50322 455.97485,264.81335 431.88687,261.71087 418.89287,260.40079 404.82214,259.65604 382.61141,258.48036 363.61713,260.65904 345.66874,266.4409 317.25727,275.59336 274.74902,299.62829 248.90989,321.1501 239.41823,329.05587 232.31199,333.90803 231.46531,333.06136 229.49841,331.09446 251.61767,312.79288 278.15831,294.42744 299.41069,279.72135 313.72401,272.24479 332.74194,265.91572 368.19256,254.11797 404.67364,251.78076 442.71304,258.8702 461.56085,262.38288 492.67122,264.84734 525.5317,265.43085 543.56777,265.75114 552.85244,265.32062 554.06519,264.10787 554.79219,263.38087 551.43584,261.65761 547.15115,260.55795 533.90699,257.15894 496.8542,253.48533 459.22265,251.84034 455.50121,251.67764 450.26417,251.42867 447.58474,251.28707 442.12348,250.99837 428.53741,250.56488 405.63409,249.94847 397.14925,249.72008 359.25606,249.58056 321.42703,249.63831 L 252.64694,249.74337 243.20938,256.12477 C 232.34593,263.47037 229.59026,265.67793 223.1436,272.19978 207.66592,287.85791 194.50338,309.49104 181.52567,340.60042 175.76851,354.40125 168.57778,369.37912 165.28367,374.43158 164.02199,376.36673 161.40861,379.8485 159.47612,382.1688 157.54368,384.48914 156.05335,386.46727 156.16436,386.5646 156.38638,386.75926 184.04052,387.40589 192.58806,387.41623 195.54037,387.42023 197.80965,387.56901 197.63087,387.7478 197.45208,387.92658 191.74818,388.66058 184.95549,389.37885 165.37959,391.44882 152.18581,394.03113 145.83512,397.0355 134.92974,402.19458 109.78323,437.71736 105.76362,453.64189 101.32315,471.23373 104.64564,493.91692 114.68355,514.53976 122.81818,531.25235 132.75106,541.95717 145.6565,547.91985 150.55737,550.18419 156.63681,554.42545 156.63681,555.58012 156.63681,556.61897 154.26294,556.42111 148.94147,554.93871 146.94188,554.3817 145.14024,554.09155 144.93786,554.29395 144.46907,554.76273 146.33086,557.56862 151.48895,564.16722 158.31825,572.90375 166.98333,588.70153 173.1002,603.56797 184.46456,631.18798 209.66729,662.6744 236.91931,683.2989 256.42483,698.06078 294.75496,721.80602 309.82426,728.46294 319.94427,732.93349 349.17134,748.47399 375.86268,763.57661 389.39125,771.23141 412.14028,782.74338 421.87306,786.85978 426.91012,788.99027 430.64509,790.12856 436.48809,791.31416 453.78285,794.82345 470.41261,799.23032 519.8078,813.39389 549.98138,822.04582 551.70871,822.46443 560.15789,823.17205 568.49255,823.87006 603.20746,823.36102 613.22199,822.39388 z M 586.69837,769.5372 C 544.71979,768.90532 514.68145,767.47217 496.57223,765.23722 443.17322,758.64697 377.88707,741.45468 332.82945,722.1176 316.2055,714.9832 285.70897,698.50556 260.56613,683.07285 244.68974,673.32788 232.41861,664.78495 232.41861,663.47704 232.41861,661.27323 244.06618,667.25255 268.95625,682.23378 296.56099,698.84895 304.09503,703.11631 319.00659,710.5828 350.41971,726.31188 379.20075,735.92894 431.61639,748.21084 482.70013,760.18064 501.73377,762.61885 562.33997,764.95653 573.95083,765.40438 586.13006,765.89066 589.4049,766.03715 598.42777,766.44076 617.37504,767.12132 618.90563,767.09677 619.73732,767.08347 624.95327,763.87394 632.43813,758.76994 665.83099,735.99896 667.19642,734.56873 668.92438,720.55195 669.34989,717.1003 669.81184,714.16244 669.95088,714.02337 670.41263,713.56164 670.99363,729.89678 670.60097,732.30211 670.09787,735.38448 668.0067,739.22106 665.5366,741.59363 663.01371,744.01696 654.30785,750.24186 637.94178,761.32464 L 624.95248,770.12075 619.35787,770.03265 C 616.28087,769.98425 601.58408,769.76125 586.69837,769.53718 z M 532.56855,745.94977 C 516.39657,745.7021 481.53923,744.05872 459.49328,742.50457 430.40234,740.45377 417.97707,737.44246 387.50059,725.05691 363.64517,715.36215 331.52052,699.76198 299.76529,682.4515 286.52901,675.23609 271.60534,666.23691 269.02251,663.91313 266.8351,661.94507 266.81907,661.90502 268.21228,661.88326 270.744,661.84376 285.9608,669.29182 308.47105,681.58858 330.02444,693.36263 356.04727,706.23265 376.99288,715.47718 379.79496,716.71391 391.95278,721.81109 404.01019,726.80425 L 425.93275,735.88272 432.42834,736.24041 C 436.00092,736.43713 443.18669,736.83539 448.39668,737.12542 468.05456,738.21974 507.58549,740.33652 519.30674,740.92248 526.00529,741.25736 540.25502,741.54231 550.97269,741.5557 572.38907,741.5825 581.73849,740.87506 591.63319,738.47918 605.91837,735.02021 613.6051,730.4247 627.02512,717.32016 634.70657,709.81931 638.45741,706.78883 640.05969,706.78883 640.87973,706.78883 640.95163,707.03865 640.54252,708.46525 638.44237,715.78802 622.10022,730.04432 607.25096,737.50759 599.24958,741.52911 590.43224,743.63346 576.21625,744.9144 567.42109,745.70688 547.52553,746.17883 532.56855,745.94977 z M 474.64962,721.44362 470.86056,721.13324 474.92365,720.71665 C 480.16471,720.17929 531.5043,720.17271 537.32955,720.70865 L 541.77062,721.11725 538.25219,721.46794 C 533.95127,721.89662 479.92755,721.87595 474.64962,721.44364 z M 477.08547,703.21925 C 475.44804,703.11011 469.04263,702.76705 462.8512,702.45691 422.84996,700.45314 389.4948,694.11523 362.60938,683.40968 335.20259,672.49652 301.38271,649.16712 275.70195,623.45979 256.13696,603.8746 244.2175,587.88438 224.83846,555.22527 214.56389,537.90979 208.17696,527.99583 204.63832,523.87013 201.71839,520.46582 201.1778,518.45323 202.157,514.63256 203.12418,510.85887 202.162,505.31335 199.64779,500.17254 196.72744,494.20101 194.27546,492.99072 185.05501,492.96957 174.57069,492.94557 167.91052,490.43335 167.56846,486.37378 167.42695,484.69444 167.65826,484.22695 169.19235,483.09127 170.17625,482.36291 173.4171,480.84703 176.39421,479.72265 183.61355,476.99611 190.4051,473.47178 193.71576,470.73403 198.73475,466.58357 200.95542,462.46084 203.22955,453.07165 205.86815,442.17765 210.92087,436.29382 214.53444,439.90738 215.47149,440.84444 216.543,443.82536 217.46476,448.05913 219.87842,459.14592 252.12197,477.47476 309.86295,500.58291 341.57678,513.27488 387.93701,529.70824 409.01691,535.73012 434.51873,543.01518 459.5916,547.9296 485.47558,550.71639 496.56325,551.91014 531.54795,552.08723 540.68804,550.99587 569.93824,547.50328 589.57429,540.91701 608.89162,528.11926 627.51537,515.78101 634.30984,504.7645 636.7425,482.96193 637.07469,479.98479 637.86059,475.03606 638.48884,471.96475 640.02105,464.475 642.02048,461.55661 645.09163,462.32741 647.67483,462.97575 649.47432,467.14634 650.76378,475.47309 651.60471,480.9038 653.34327,485.19904 655.76304,487.82419 658.32342,490.60187 659.56677,493.45157 661.35311,500.63655 668.44917,529.17859 669.52413,591.60693 663.53905,627.59143 657.15191,665.99345 641.84921,683.50995 606.45577,692.93285 590.18202,697.26546 565.07182,700.66957 536.08698,702.4725 526.76915,703.05209 482.90633,703.60724 477.08547,703.21925 z M 501.93496,685.54287 C 502.24726,683.97986 502.73375,681.23955 503.01608,679.45326 503.29835,677.66697 504.39978,671.14656 505.46372,664.96345 508.1607,649.29022 508.01136,645.44423 504.63825,643.69994 502.87969,642.79054 498.11786,642.05358 488.99406,641.27881 479.65143,640.48544 469.11448,638.79833 463.10324,637.13334 458.72253,635.91996 457.94969,635.83709 457.27804,636.50874 455.95976,637.82702 454.97811,644.33473 454.31122,656.17743 453.41594,672.07512 454.24132,684.51067 456.29326,686.03913 458.09412,687.38055 469.49555,688.18781 488.27903,688.30384 L 501.36717,688.38464 501.93496,685.54283 z M 537.87582,687.01168 C 541.90497,685.78079 543.60087,683.82886 547.60349,675.81527 550.37707,670.26231 558.82154,649.62935 558.82154,648.40542 558.82154,647.70257 547.8418,646.97064 537.71088,646.99811 525.18849,647.03211 524.86569,647.26287 522.05807,658.19006 520.85467,662.87349 516.60026,686.24023 516.60026,688.16608 516.60026,688.35503 520.68032,688.38854 525.66699,688.24058 532.16065,688.04791 535.62545,687.69914 537.87582,687.01168 z M 572.68169,682.67194 C 575.3925,681.98297 579.11258,681.24932 580.94863,681.0416 582.78462,680.83389 584.4564,680.39153 584.6637,680.05859 584.87104,679.72566 585.06429,677.50458 585.09322,675.12287 585.16822,668.93674 586.31443,665.65081 595.72761,644.63481 596.30417,643.3475 596.70074,642.10192 596.60885,641.86683 596.51695,641.63175 593.65471,642.25973 590.24829,643.26235 586.84191,644.26497 582.46924,645.36141 580.53132,645.69888 576.40438,646.41756 575.73278,647.02958 573.19058,652.38834 571.40408,656.15416 563.69323,680.94987 563.69323,682.92884 563.69323,684.82758 564.26442,684.81126 572.68169,682.67194 z M 436.45858,683.52879 C 438.04071,682.68205 439.11958,679.12403 439.69416,672.85797 440.32759,665.95033 441.61992,632.16932 441.26433,631.81377 441.12956,631.679 436.40689,630.24344 430.76957,628.62365 411.7648,623.163 402.1282,619.68675 380.48452,610.48419 376.92343,608.97006 373.97775,607.73122 373.93865,607.73122 373.89945,607.73122 373.71073,611.70621 373.5191,616.56454 373.05328,628.37611 371.86147,633.00355 366.49681,643.82954 357.86567,661.24733 359.17173,664.21057 378.56915,671.2194 401.84362,679.62912 431.83084,686.00549 436.45858,683.52879 z M 606.34695,675.16552 C 608.18629,674.4447 611.4427,673.58317 613.58348,673.25102 615.93672,672.8859 618.71301,671.98765 620.60488,670.97931 623.7743,669.29003 630.27291,663.83609 630.27291,662.86546 630.27291,662.53638 628.84634,662.47737 626.49404,662.70917 623.46811,663.00733 622.44881,662.90702 621.37855,662.20576 618.60957,660.39145 618.60164,655.8894 621.34845,645.05336 623.41435,636.90329 623.08257,634.24946 620.23119,636.11774 616.4353,638.6049 609.95636,649.74863 604.94938,662.40236 599.06936,677.26232 599.14867,677.9865 606.34692,675.16552 z M 637.01642,657.34769 C 640.37293,651.62015 648.40234,630.44406 649.43219,624.60329 650.92367,616.14384 638.2438,642.34034 635.02258,654.37321 633.37999,660.50934 634.33156,661.929 637.01642,657.34769 z M 348.94264,646.46798 C 358.52676,624.00941 361.00475,611.99789 357.38925,605.52485 355.57508,602.27682 354.17629,601.42968 346.29485,598.80596 336.06064,595.39899 326.88839,591.18986 306.51438,580.55085 L 292.64917,573.31064 292.35024,581.72483 C 291.94484,593.13385 290.62316,598.01631 285.92932,605.44419 282.89268,610.2497 286.10706,613.62343 314.42532,635.35284 321.57047,640.83552 330.94845,648.05938 335.2653,651.40588 339.58215,654.75238 343.36332,657.49949 343.66795,657.51055 343.97252,657.52165 346.34613,652.55247 348.94264,646.46798 z M 274.15387,594.59395 C 275.16544,593.91815 276.41902,592.51754 276.93956,591.48148 278.86583,587.64745 277.72388,572.94841 275.05709,567.25041 272.5707,561.93787 266.54056,557.50993 250.75868,549.40804 241.1228,544.46131 236.78788,542.55608 236.29351,543.05044 234.88182,544.46217 260.08382,582.88878 269.21779,593.25148 270.46428,594.66563 271.67098,595.82265 271.89937,595.82265 272.12776,595.82265 273.14225,595.26973 274.15387,594.59395 z M 454.65501,590.27434 C 454.4603,587.22277 454.07197,581.43765 453.7921,577.41851 453.51222,573.39937 453.23658,568.83738 453.17956,567.28077 453.12256,565.72415 452.93655,564.23275 452.76617,563.96655 452.59579,563.70035 451.23845,563.21773 449.7499,562.89406 448.26134,562.5704 441.80638,561.07235 435.40551,559.56507 391.84872,549.30829 388.65742,548.76896 387.23612,551.42464 386.53126,552.74166 383.07612,567.52955 382.28642,572.60912 381.26968,579.14885 382.42437,582.2799 386.64718,584.43424 389.46859,585.87361 401.44762,589.48766 408.88189,591.1424 418.91898,593.37649 430.09432,594.8124 440.81846,595.24591 446.32619,595.46855 451.7722,595.68939 452.92078,595.73668 L 455.00903,595.82268 454.65501,590.27437 z M 516.05665,594.87538 C 516.05365,593.50574 513.53898,579.46701 512.4599,574.79307 511.76826,571.79738 511.26354,570.69742 510.41703,570.34095 509.03614,569.75947 498.32588,568.16584 483.58105,566.34792 477.47792,565.59545 471.571,564.83409 470.45459,564.65599 L 468.42471,564.33218 468.42471,580.07742 468.42471,595.82265 492.2418,595.82265 C 514.5648,595.82265 516.05879,595.76325 516.05665,594.87538 z M 561.52802,593.96607 C 568.95602,592.8825 576.12383,591.11767 578.1832,589.86531 580.85459,588.24074 580.80817,586.90707 577.64522,574.40951 575.08135,564.27885 574.66211,563.08409 573.70056,563.16818 572.13917,563.3047 527.72474,570.50144 527.54852,570.64647 527.20828,570.92645 529.14432,589.50433 529.65321,590.84282 530.33384,592.63307 531.6716,594.16801 533.10987,594.80905 534.71361,595.52383 554.96799,594.92302 561.52802,593.96607 z M 602.93735,588.7861 C 603.83049,588.53381 605.83974,588.16412 607.40228,587.96459 610.5269,587.56559 611.60749,586.54574 613.16095,582.52963 616.73285,573.29556 617.44663,560.2136 614.84965,551.58081 613.36089,546.63201 611.77803,546.66322 602.39603,551.82637 591.10075,558.04245 590.40148,559.29406 592.57312,569.40819 593.35928,573.06958 594.24558,578.57569 594.54274,581.64399 595.27866,589.24291 596.26558,590.81379 599.64407,589.7637 600.56223,589.47832 602.0442,589.0384 602.93735,588.7861 z M 636.8805,576.54866 C 637.8056,576.07023 639.74222,574.5754 641.18399,573.22679 643.58725,570.97883 643.80504,570.56698 643.8016,568.27769 643.7966,564.87395 642.20772,558.53899 639.17077,549.81228 635.22831,538.48344 631.68403,531.4405 630.51415,532.61039 629.10214,534.02238 628.88853,547.64551 630.06379,561.3295 631.43361,577.27856 632.19251,578.9729 636.8805,576.54866 z M 366.04849,573.86718 C 366.64813,573.1048 367.41731,571.09523 367.75776,569.40147 368.0982,567.7077 369.30312,561.93737 370.43541,556.57852 372.8452,545.17329 372.76537,544.56804 368.48977,541.82478 365.77248,540.08135 358.11734,536.87795 350.96295,534.49043 337.28154,529.92476 319.8283,523.87108 309.28299,520.03366 295.84673,515.14426 290.9294,514.13447 289.90222,516.05379 288.90564,517.91585 288.76221,522.16494 289.58862,525.34209 291.17461,531.43922 297.53329,541.52333 304.48738,548.96973 309.56605,554.40789 312.14492,556.12526 316.68697,557.09388 323.56676,558.56101 328.92588,560.64989 345.54995,568.34408 361.74641,575.84035 364.01548,576.45171 366.04849,573.86718 z M 274.97939,539.17569 C 275.9659,536.81457 276.05738,527.51758 275.20757,515.98113 274.9006,511.81314 274.64725,507.99089 274.64464,507.48726 274.63964,506.51531 273.7764,505.98025 251.63469,493.22457 218.77135,474.29222 210.9014,472.03951 211.16754,481.64118 211.27541,485.53374 214.64524,496.02287 217.93924,502.71932 221.71499,510.39518 228.75972,516.74765 242.70326,525.04983 254.2192,531.90659 271.81446,541.1148 273.44959,541.14046 273.83692,541.14646 274.52533,540.26239 274.97939,539.17569 z M 649.86427,525.04472 C 649.01316,521.73055 645.92081,515.59004 644.94261,515.27167 644.3426,515.07638 644.25707,515.47426 644.53099,517.18709 645.5542,523.58598 648.51481,529.62167 649.93424,528.20232 650.35948,527.77706 650.34,526.89695 649.86424,525.04472 z M 162.15529,540.59348 C 160.57583,540.03234 156.1535,537.94664 152.32779,535.95858 128.41896,523.53406 124.15176,513.64608 123.26682,468.61752 122.8964,449.76861 123.47563,439.39551 125.25779,432.96441 127.35867,425.38316 134.60225,412.97637 140.52879,406.80828 145.93104,401.18589 152.82932,397.72291 162.04982,396.00472 165.6651,395.33103 198.13365,394.99101 206.70694,395.53708 L 211.03731,395.81288 203.18851,396.52489 C 198.87166,396.9165 194.36532,397.34226 193.1745,397.47108 191.98362,397.59989 185.89401,398.20382 179.642,398.81317 150.82122,401.62225 147.59499,403.1294 137.97807,418.27675 133.15108,425.87957 129.80872,432.77732 128.40434,438.03415 127.3735,441.89276 127.22056,444.20152 127.00042,459.22471 126.5415,490.54159 128.83548,505.75462 135.54907,515.91748 139.41828,521.77451 142.73416,524.58673 152.84775,530.58856 163.96941,537.18863 167.46277,539.78874 167.46277,541.46643 167.46277,541.97962 164.84496,541.54903 162.15529,540.59348 z M 499.46637,541.10022 C 495.15459,540.37986 490.86849,538.56989 489.0361,536.69566 487.09045,534.70565 485.20495,530.04625 485.20495,527.22835 485.20495,526.14266 485.69572,524.24058 486.29552,523.00152 488.22806,519.00942 491.72205,518.42463 495.83647,521.40465 501.55405,525.5458 504.30731,525.77776 510.29401,522.62267 516.72563,519.23309 526.46134,507.87602 531.83158,497.4982 534.4329,492.47129 534.65675,488.7144 532.62823,484.1276 530.31045,478.88666 527.21805,476.21099 522.55454,475.41151 516.28577,474.33684 509.08961,463.56678 506.58902,451.51679 506.10044,449.1625 505.50273,442.8059 505.26071,437.39107 504.63992,423.49959 504.33728,422.9623 493.51022,416.52733 487.61349,413.02269 483.87482,409.62169 483.27006,407.21217 482.68191,404.86864 483.44524,403.21106 485.61959,402.11047 488.12395,400.84278 489.66571,400.53502 495.4896,400.14033 504.13448,399.55442 509.45444,397.23595 516.79994,390.85325 529.98353,379.39763 539.29796,374.97707 555.57375,372.45168 564.65264,371.04296 587.10247,371.0415 593.10629,372.44968 600.53069,374.19049 604.46611,376.39403 610.7674,382.33833 615.14973,386.47238 617.36528,389.83828 617.44005,392.47537 617.66536,400.42406 607.13311,404.28324 575.87241,407.70632 541.06978,411.51726 522.21623,417.72253 519.90764,426.12607 519.17344,428.7985 519.15803,433.72549 519.86284,440.47046 521.09032,452.21762 522.79395,454.99862 533.47136,462.68462 545.9996,471.7029 554.60553,479.09284 563.9021,488.8157 573.58105,498.9384 577.27007,501.78078 581.96814,502.73558 586.42378,503.64111 591.25877,506.09237 595.8085,509.75242 599.27403,512.54033 602.66672,516.37257 602.66672,517.49926 602.66672,518.68882 599.03238,517.51416 594.52682,514.86838 587.79819,510.91713 575.12026,504.71494 570.88251,503.30131 564.95221,501.32311 563.44746,501.81334 560.13586,506.80248 557.6019,510.62002 556.23804,511.01298 553.41006,508.74034 550.102,506.08193 548.74441,506.42869 543.47227,511.27863 540.47047,514.04003 536.17894,518.65455 531.52807,524.12178 526.64734,529.85917 519.20519,537.05956 516.54482,538.61836 511.88538,541.34843 506.03716,542.19845 499.46638,541.10068 z M 584.45155,389.23787 C 586.72934,389.04535 588.59295,388.70136 588.59295,388.47349 588.59295,387.80947 584.38168,387.27844 579.1202,387.27896 573.47713,387.27958 568.56492,387.86137 568.56492,388.52915 568.56492,389.31243 578.38621,389.75057 584.45155,389.23787 z M 400.3901,524.14461 C 397.28031,522.36638 393.34892,519.31361 392.06238,517.67811 390.02499,515.08799 387.80568,509.46269 387.01859,504.89357 385.61802,496.76347 386.87787,485.98003 389.92651,480.0042 393.51172,472.9766 400.41355,469.32342 411.15686,468.76679 425.05387,468.04678 432.28956,472.60771 427.92968,479.33935 426.73102,481.19004 423.83996,482.40799 418.08395,483.48716 403.90879,486.14479 400.7624,488.3466 400.7624,495.60862 400.7624,500.14742 402.40619,504.22679 405.67743,507.80605 408.80696,511.23024 409.96901,513.70515 409.95261,516.91102 409.93991,519.38719 408.55199,522.99992 407.02793,524.52398 405.72792,525.82398 403.0604,525.67152 400.3901,524.14461 z M 157.94,520.11181 C 156.10948,518.98117 153.13827,515.48562 151.36582,512.37739 147.37965,505.38722 144.18523,488.72287 144.18914,474.93861 144.19414,457.74077 148.677,443.10828 157.56859,431.26793 160.58434,427.25205 166.95278,421.0213 170.87066,418.25347 182.5728,409.98637 207.98783,407.13661 225.35476,412.14422 228.28566,412.98932 233.14691,415.19621 238.8872,418.28761 254.63922,426.77078 269.72877,432.93203 281.28612,435.59972 291.19267,437.88633 299.8339,436.57933 311.83873,430.97855 319.77744,427.27476 325.46406,423.23737 331.88237,416.74789 338.3754,410.18285 340.2185,409.15896 343.80486,410.12463 346.99715,410.98425 347.99253,412.40331 347.95028,416.03442 347.83938,425.56079 332.20971,441.28712 316.66755,447.51045 299.89363,454.2271 280.71295,453.78314 258.49986,446.16408 246.03225,441.88775 227.53992,433.12977 223.51354,429.59453 221.10469,427.47955 218.89139,426.62677 213.83297,425.86464 206.57227,424.77062 195.19909,426.02624 186.94724,428.83287 179.69166,431.30067 176.10253,433.98898 171.13779,440.67442 166.98954,446.26042 164.06407,451.32188 161.99024,456.50104 156.91699,469.1709 156.52454,474.29881 159.63371,487.29232 163.54568,503.64091 164.32719,507.82144 164.40671,512.8259 164.47461,517.09625 164.32691,518.00419 163.34951,519.32148 161.95129,521.20609 160.14004,521.47071 157.94,520.11181 z M 674.6594,518.78411 C 674.6594,517.09605 680.68511,512.90271 693.06354,505.97651 708.9675,497.07765 710.2711,495.35213 713.92675,478.36089 716.36996,467.005 717.105,460.0082 716.68461,452.10792 715.79867,435.45644 711.45336,426.32345 701.07149,419.29192 697.82036,417.09 693.55128,413.36392 689.00379,408.7592 682.10985,401.77848 679.55162,399.9017 675.74198,399.02986 674.69997,398.79145 663.98225,398.57898 651.92484,398.55784 631.12731,398.52134 629.89117,398.46384 627.83707,397.43677 621.64725,394.34187 628.05329,390.43908 635.95655,392.49005 640.93027,393.78081 649.98024,394.45867 662.24541,394.45919 680.0086,394.45993 682.12923,395.183 692.40938,404.74431 699.52231,411.35989 705.36495,416.23137 708.31496,418.00612 712.05071,420.25357 719.95267,438.68397 721.23497,448.14038 722.3988,456.7236 718.76555,480.34656 714.0894,494.59985 712.70893,498.80761 711.99499,500.13569 710.16114,501.90737 704.96399,506.92843 683.71678,517.92088 676.64421,519.2477 675.05467,519.54589 674.6594,519.45356 674.6594,518.78411 z M 423.22628,518.02765 C 419.92804,517.22414 417.98474,513.02853 418.03038,506.80965 418.06838,501.64059 418.28399,500.82489 420.14526,498.80938 422.68433,496.05994 425.8974,495.40846 436.75877,495.44085 447.85709,495.47395 453.79053,496.50636 460.40533,499.55534 467.89468,503.0074 469.64859,508.11208 464.14562,510.4414 463.34265,510.78131 456.82941,511.19991 448.93795,511.41879 440.77173,511.64529 434.25907,512.07047 432.99023,512.45994 431.8051,512.82373 429.98879,514.03343 428.93049,515.16384 427.27119,516.9362 425.01747,518.55172 424.47981,518.35419 424.38581,518.31969 423.82169,518.17271 423.22628,518.02765 z M 681.46421,494.66227 C 680.81888,493.61812 683.20972,489.95473 688.02068,484.61614 696.36746,475.35392 697.1331,473.78708 697.02898,466.18168 696.95148,460.52585 695.62277,449.55474 694.08758,441.89464 692.24976,432.72484 690.03541,429.75917 681.46218,424.98533 675.68893,421.77059 671.06422,417.79752 671.56789,416.48509 671.76093,415.98194 672.37561,415.57028 672.93379,415.57028 674.53983,415.57028 679.95535,417.57159 684.70616,419.92075 692.23859,423.64543 695.36352,427.67896 697.37929,436.27878 699.80543,446.62911 701.44541,470.12625 700.14681,475.92915 699.34483,479.51279 696.35269,484.22458 692.17734,488.47898 687.43415,493.31185 682.41866,496.20664 681.46421,494.66227 z M 328.83028,487.55954 C 325.90564,486.93535 325.52327,486.59001 326.75759,485.68745 328.41741,484.47378 335.58057,483.72367 350.15101,483.23773 369.10356,482.60565 375.85704,481.17128 378.76982,477.15933 379.81877,475.71459 379.82018,475.63264 378.84662,472.76849 377.66389,469.28891 377.97384,468.07313 380.04073,468.08451 381.84905,468.09451 382.5361,468.50556 383.3598,470.07051 384.99252,473.17242 383.07919,479.80105 379.6593,482.89073 377.20105,485.11159 375.63057,485.5977 367.20192,486.74665 359.8796,487.74477 332.42352,488.32642 328.83027,487.55954 z M 596.98307,466.45195 C 589.02676,464.99034 585.98574,463.78282 582.32596,460.63192 578.41597,457.26558 575.97908,451.01344 577.17022,447.40425 579.06235,441.67111 582.63581,441.70348 594.15864,447.55813 602.45075,451.77129 604.04483,451.49568 613.22199,444.26214 629.51647,431.41873 632.66761,429.95863 645.53713,429.28897 660.17983,428.52699 674.44569,432.49807 680.93177,439.14154 685.29478,443.61039 686.06245,449.40478 682.75994,452.94016 680.00766,455.88645 675.13717,455.05336 668.89462,450.56849 658.5599,443.14374 644.16157,442.43946 634.78134,448.89985 631.33299,451.27482 628.85877,454.5766 626.789,459.56536 624.93609,464.03134 623.04688,466.15371 620.22767,466.93642 616.83665,467.87789 603.19774,467.59363 596.98307,466.45195 z M 408.06994,427.83467 C 400.94938,423.69812 386.8667,415.89385 383.17021,414.03588 359.84578,402.31207 333.94462,399.64256 305.74091,406.05565 290.93196,409.42296 281.24748,409.05939 275.83755,404.93297 270.6829,401.00136 271.55365,392.48587 278.12046,382.60798 289.38524,365.66342 313.07158,355.25315 346.09126,352.73454 368.53039,351.02292 387.06731,354.9457 403.93339,364.97507 414.43765,371.22138 429.53911,383.91049 433.41119,389.74399 437.35199,395.68109 437.92631,402.00301 435.06062,407.90146 432.61574,412.93382 420.21084,424.47733 413.70533,427.77394 410.5251,429.38546 410.73553,429.38322 408.06994,427.83464 z M 416.87277,404.58422 C 418.21715,403.23983 418.80567,402.16414 418.80567,401.05138 418.80567,397.86139 411.55526,389.98006 403.86707,384.81293 391.2662,376.34397 370.22671,366.85989 368.30451,368.78209 367.6632,369.4234 364.4954,383.97305 364.4954,386.27731 364.4954,388.9487 365.97466,390.14589 369.91598,390.66434 375.77527,391.43514 380.81394,393.4094 395.39706,400.64854 406.40051,406.11068 408.76717,406.95777 412.31682,406.70437 414.47196,406.55054 415.28458,406.1724 416.87277,404.58422 z M 299.7728,390.6317 C 305.53524,388.83252 309.17235,385.72774 307.65685,383.90162 306.76668,382.82906 302.10119,382.83856 298.92911,383.91942 294.80974,385.32302 290.12931,390.1025 291.19137,391.82091 291.63556,392.53965 295.27941,392.03468 299.7728,390.6317 z M 255.51398,411.4203 C 255.31551,411.22183 255.15312,410.36571 255.15312,409.51784 255.15312,407.1812 257.84701,405.67354 261.34539,406.05215 262.81598,406.2113 264.36098,406.68328 264.77865,407.101 265.43046,407.75275 265.28123,408.05644 263.72636,409.2424 260.8436,411.44119 256.64763,412.55395 255.51398,411.4203 z M 243.28859,400.63669 C 239.99855,399.75211 237.60803,398.42093 235.74138,396.43403 233.19782,393.72651 235.29588,392.11525 243.51521,390.46378 249.4913,389.26309 265.5339,386.79711 265.77837,387.04159 265.88844,387.15166 262.02033,388.99721 257.18268,391.14289 248.5271,394.98197 245.36807,396.76356 246.0346,397.43009 246.22053,397.61603 249.06429,398.42991 252.35412,399.23883 255.64395,400.0477 258.51271,400.88659 258.72914,401.10302 259.46929,401.84312 246.29625,401.44529 243.28859,400.63669 z M 512.69257,372.47523 C 512.17773,348.85812 514.85716,336.16295 521.03042,332.97066 522.76841,332.07188 524.17843,332.47989 524.17843,333.88161 524.17843,334.43943 523.07303,337.03187 521.72201,339.64269 518.52048,345.82942 516.55797,353.75629 514.71952,367.92659 513.92835,374.02456 513.18287,379.11201 513.06283,379.23205 512.94284,379.35204 512.77617,376.31149 512.69257,372.47523 z M 268.68562,356.11136 C 268.68562,352.68963 279.55226,340.42613 292.66478,329.04966 304.13315,319.09971 312.12325,314.57656 326.77686,309.73891 338.89432,305.73848 349.38156,303.77461 364.22476,302.72623 366.60646,302.55799 370.32091,302.28198 372.47902,302.11286 379.33239,301.57577 407.3124,301.7862 413.03682,302.41785 421.78002,303.38268 425.87871,305.03566 422.04684,306.05162 420.0721,306.57518 408.52442,306.5991 393.18423,306.11152 371.10215,305.40954 350.97,307.69495 332.56211,312.99329 314.2339,318.26871 303.1007,325.51312 283.30064,345.04782 275.7174,352.52945 270.33672,357.11004 269.13164,357.11004 268.88633,357.11004 268.68562,356.66067 268.68562,356.11137 z M 424.92328,349.5907 C 424.23821,337.85656 421.69271,330.7666 414.05397,319.31646 409.98822,313.22214 409.00193,311.13661 409.67232,310.05189 410.2881,309.05557 413.94719,311.39142 417.09244,314.78865 420.68845,318.6728 424.00919,325.24561 425.60437,331.63677 426.90245,336.83752 427.02087,342.84798 425.99426,351.42639 L 425.34648,356.8394 424.92328,349.5907 z M 617.29949,354.26821 C 616.72152,353.00292 615.51571,349.52256 614.6199,346.53407 611.84581,337.27979 607.70528,332.3091 596.54117,324.83061 588.73634,319.60239 581.97325,316.25846 576.93896,315.13845 573.44278,314.36059 571.24268,314.25058 564.798,314.53118 549.573,315.19411 527.61384,318.04224 516.1615,320.83937 508.75804,322.64764 506.74138,322.82026 505.83121,321.72358 503.2523,318.61614 513.92078,315.37227 535.27503,312.7709 561.00623,309.63631 572.95221,309.08193 579.39089,310.72364 583.69333,311.82068 593.62354,316.76151 600.11824,321.03664 609.12277,326.96392 615.89323,334.62412 618.48436,341.81647 620.23269,346.66936 620.50374,356.56876 618.8883,356.56876 618.59239,356.56876 617.87741,355.53349 617.29949,354.26821 z M 249.98041,350.25932 C 250.79706,346.97795 262.47977,332.84268 269.89696,326.16168 291.74903,306.47843 320.81768,290.91648 346.99219,284.88853 363.01822,281.19779 377.34617,279.65619 397.78524,279.42357 419.52494,279.17612 429.08635,280.03057 447.31405,283.84965 467.49627,288.07826 480.04106,289.17912 507.93946,289.16972 531.54012,289.16172 538.69393,288.76087 562.88128,286.09032 588.02214,283.31445 602.31134,283.73347 608.87564,287.43904 611.59324,288.97313 613.49268,291.75318 613.49268,294.19649 613.49268,296.03102 613.44818,296.06977 611.73344,295.72802 610.76589,295.53524 608.34383,294.29408 606.35113,292.97 604.35844,291.64587 601.19184,290.03968 599.31428,289.40067 596.16345,288.32837 595.17078,288.26305 586.42774,288.5529 581.21775,288.72563 574.03203,289.24068 570.45945,289.69741 557.23158,291.3885 539.14915,292.73535 523.13496,293.22225 514.07617,293.49769 506.50281,293.62322 506.30533,293.50114 506.1078,293.37906 501.8275,293.23776 496.79352,293.18711 479.67195,293.01486 461.23111,291.04075 443.52499,287.48468 415.08841,281.77357 388.06613,281.54126 361.2476,286.77737 323.36975,294.17273 291.71697,310.5424 269.03139,334.4682 261.91501,341.97363 253.50359,349.74291 251.15729,350.97775 L 249.59725,351.79873 249.98041,350.25932 z"
         style="fill:#000000"
         inkscape:connector-curvature="0" />
    </g>
    <rect
       style="fill:none;stroke:none"
       id="rect3059"
       width="512"
       height="512"
       x="-434.99905"
       y="1123.2021"
       inkscape:export-filename="C:\Python27\theGabit\thegabit\website\static\users\images\avatar.png"
       inkscape:export-xdpi="11.25"
       inkscape:export-ydpi="11.25" />
  </g>
  <metadata
     id="metadata3057">
    <rdf:RDF>
      <cc:Work>
        <dc:format>image/svg+xml</dc:format>
        <dc:type
           rdf:resource="http://purl.org/dc/dcmitype/StillImage" />
        <cc:license
           rdf:resource="http://creativecommons.org/licenses/publicdomain/" />
        <dc:publisher>
          <cc:Agent
             rdf:about="http://openclipart.org/">
            <dc:title>Open Clip Art Library</dc:title>
          </cc:Agent>
        </dc:publisher>
        <dc:title>Trollface</dc:title>
        <dc:date>2011-04-03T12:59:21</dc:date>
        <dc:description>http://encyclopediadramatica.com/Trollface</dc:description>
        <dc:source>http://openclipart.org/detail/130795/trollface-by-rones</dc:source>
        <dc:creator>
          <cc:Agent>
            <dc:title>rones</dc:title>
          </cc:Agent>
        </dc:creator>
        <dc:subject>
          <rdf:Bag>
            <rdf:li>clip art</rdf:li>
            <rdf:li>clipart</rdf:li>
            <rdf:li>face</rdf:li>
            <rdf:li>meme</rdf:li>
            <rdf:li>troll</rdf:li>
            <rdf:li>trollface</rdf:li>
          </rdf:Bag>
        </dc:subject>
      </cc:Work>
      <cc:License
         rdf:about="http://creativecommons.org/licenses/publicdomain/">
        <cc:permits
           rdf:resource="http://creativecommons.org/ns#Reproduction" />
        <cc:permits
           rdf:resource="http://creativecommons.org/ns#Distribution" />
        <cc:permits
           rdf:resource="http://creativecommons.org/ns#DerivativeWorks" />
      </cc:License>
    </rdf:RDF>
  </metadata>
</svg>
